<svg width="25" height="25" viewBox="0 0 25 25" fill="none" xmlns="http://www.w3.org/2000/svg">
<path d="M12.5 25C5.59476 25 0 19.4052 0 12.5C0 5.59476 5.59476 0 12.5 0C19.4052 0 25 5.59476 25 12.5C25 19.4052 19.4052 25 12.5 25ZM13.9567 17.7621L10.1512 14.1129H19.3548C20.0252 14.1129 20.5645 13.5736 20.5645 12.9032V12.0968C20.5645 11.4264 20.0252 10.8871 19.3548 10.8871H10.1512L13.9567 7.2379C14.4456 6.76915 14.4556 5.9879 13.9768 5.50907L13.4224 4.95968C12.9486 4.48589 12.1825 4.48589 11.7137 4.95968L5.0252 11.6431C4.55141 12.1169 4.55141 12.8831 5.0252 13.3518L11.7137 20.0403C12.1875 20.5141 12.9536 20.5141 13.4224 20.0403L13.9768 19.4909C14.4556 19.0121 14.4456 18.2308 13.9567 17.7621Z" fill="#0063A7"/>
</svg>
