<svg width="1178" height="661" viewBox="0 0 1178 661" fill="none" xmlns="http://www.w3.org/2000/svg">
<rect width="1178" height="661" rx="20" fill="#0063A7" fill-opacity="0.2"/>
<path d="M894.926 160.95L878.456 224.13H859.826L849.746 182.55L839.306 224.13H820.676L804.656 160.95H821.126L830.216 206.94L841.466 160.95H858.386L869.186 206.94L878.366 160.95H894.926ZM925.504 224.85C920.584 224.85 916.144 223.8 912.184 221.7C908.284 219.6 905.194 216.6 902.914 212.7C900.694 208.8 899.584 204.24 899.584 199.02C899.584 193.86 900.724 189.33 903.004 185.43C905.284 181.47 908.404 178.44 912.364 176.34C916.324 174.24 920.764 173.19 925.684 173.19C930.604 173.19 935.044 174.24 939.004 176.34C942.964 178.44 946.084 181.47 948.364 185.43C950.644 189.33 951.784 193.86 951.784 199.02C951.784 204.18 950.614 208.74 948.274 212.7C945.994 216.6 942.844 219.6 938.824 221.7C934.864 223.8 930.424 224.85 925.504 224.85ZM925.504 211.53C928.444 211.53 930.934 210.45 932.974 208.29C935.074 206.13 936.124 203.04 936.124 199.02C936.124 195 935.104 191.91 933.064 189.75C931.084 187.59 928.624 186.51 925.684 186.51C922.684 186.51 920.194 187.59 918.214 189.75C916.234 191.85 915.244 194.94 915.244 199.02C915.244 203.04 916.204 206.13 918.124 208.29C920.104 210.45 922.564 211.53 925.504 211.53ZM975.339 182.28C977.139 179.52 979.389 177.36 982.089 175.8C984.789 174.18 987.789 173.37 991.089 173.37V189.66H986.859C983.019 189.66 980.139 190.5 978.219 192.18C976.299 193.8 975.339 196.68 975.339 200.82V224.13H959.949V173.91H975.339V182.28ZM1013.83 157.53V224.13H998.445V157.53H1013.83ZM1021.93 198.93C1021.93 193.77 1022.89 189.24 1024.81 185.34C1026.79 181.44 1029.46 178.44 1032.82 176.34C1036.18 174.24 1039.93 173.19 1044.07 173.19C1047.37 173.19 1050.37 173.88 1053.07 175.26C1055.83 176.64 1057.99 178.5 1059.55 180.84V157.53H1074.94V224.13H1059.55V216.93C1058.11 219.33 1056.04 221.25 1053.34 222.69C1050.7 224.13 1047.61 224.85 1044.07 224.85C1039.93 224.85 1036.18 223.8 1032.82 221.7C1029.46 219.54 1026.79 216.51 1024.81 212.61C1022.89 208.65 1021.93 204.09 1021.93 198.93ZM1059.55 199.02C1059.55 195.18 1058.47 192.15 1056.31 189.93C1054.21 187.71 1051.63 186.6 1048.57 186.6C1045.51 186.6 1042.9 187.71 1040.74 189.93C1038.64 192.09 1037.59 195.09 1037.59 198.93C1037.59 202.77 1038.64 205.83 1040.74 208.11C1042.9 210.33 1045.51 211.44 1048.57 211.44C1051.63 211.44 1054.21 210.33 1056.31 208.11C1058.47 205.89 1059.55 202.86 1059.55 199.02ZM830.846 359.76C826.226 359.76 822.086 359.01 818.426 357.51C814.766 356.01 811.826 353.79 809.606 350.85C807.446 347.91 806.306 344.37 806.186 340.23H822.566C822.806 342.57 823.616 344.37 824.996 345.63C826.376 346.83 828.176 347.43 830.396 347.43C832.676 347.43 834.476 346.92 835.796 345.9C837.116 344.82 837.776 343.35 837.776 341.49C837.776 339.93 837.236 338.64 836.156 337.62C835.136 336.6 833.846 335.76 832.286 335.1C830.786 334.44 828.626 333.69 825.806 332.85C821.726 331.59 818.396 330.33 815.816 329.07C813.236 327.81 811.016 325.95 809.156 323.49C807.296 321.03 806.366 317.82 806.366 313.86C806.366 307.98 808.496 303.39 812.756 300.09C817.016 296.73 822.566 295.05 829.406 295.05C836.366 295.05 841.976 296.73 846.236 300.09C850.496 303.39 852.776 308.01 853.076 313.95H836.426C836.306 311.91 835.556 310.32 834.176 309.18C832.796 307.98 831.026 307.38 828.866 307.38C827.006 307.38 825.506 307.89 824.366 308.91C823.226 309.87 822.656 311.28 822.656 313.14C822.656 315.18 823.616 316.77 825.536 317.91C827.456 319.05 830.456 320.28 834.536 321.6C838.616 322.98 841.916 324.3 844.436 325.56C847.016 326.82 849.236 328.65 851.096 331.05C852.956 333.45 853.886 336.54 853.886 340.32C853.886 343.92 852.956 347.19 851.096 350.13C849.296 353.07 846.656 355.41 843.176 357.15C839.696 358.89 835.586 359.76 830.846 359.76ZM860.297 333.93C860.297 328.77 861.257 324.24 863.177 320.34C865.157 316.44 867.827 313.44 871.187 311.34C874.547 309.24 878.297 308.19 882.437 308.19C885.977 308.19 889.067 308.91 891.707 310.35C894.407 311.79 896.477 313.68 897.917 316.02V308.91H913.307V359.13H897.917V352.02C896.417 354.36 894.317 356.25 891.617 357.69C888.977 359.13 885.887 359.85 882.347 359.85C878.267 359.85 874.547 358.8 871.187 356.7C867.827 354.54 865.157 351.51 863.177 347.61C861.257 343.65 860.297 339.09 860.297 333.93ZM897.917 334.02C897.917 330.18 896.837 327.15 894.677 324.93C892.577 322.71 889.997 321.6 886.937 321.6C883.877 321.6 881.267 322.71 879.107 324.93C877.007 327.09 875.957 330.09 875.957 333.93C875.957 337.77 877.007 340.83 879.107 343.11C881.267 345.33 883.877 346.44 886.937 346.44C889.997 346.44 892.577 345.33 894.677 343.11C896.837 340.89 897.917 337.86 897.917 334.02ZM947.031 344.73L957.921 308.91H974.301L956.481 359.13H937.491L919.671 308.91H936.141L947.031 344.73ZM1028.12 333.21C1028.12 334.65 1028.03 336.15 1027.85 337.71H993.019C993.259 340.83 994.249 343.23 995.989 344.91C997.789 346.53 999.979 347.34 1002.56 347.34C1006.4 347.34 1009.07 345.72 1010.57 342.48H1026.95C1026.11 345.78 1024.58 348.75 1022.36 351.39C1020.2 354.03 1017.47 356.1 1014.17 357.6C1010.87 359.1 1007.18 359.85 1003.1 359.85C998.179 359.85 993.799 358.8 989.959 356.7C986.119 354.6 983.119 351.6 980.959 347.7C978.799 343.8 977.719 339.24 977.719 334.02C977.719 328.8 978.769 324.24 980.869 320.34C983.029 316.44 986.029 313.44 989.869 311.34C993.709 309.24 998.119 308.19 1003.1 308.19C1007.96 308.19 1012.28 309.21 1016.06 311.25C1019.84 313.29 1022.78 316.2 1024.88 319.98C1027.04 323.76 1028.12 328.17 1028.12 333.21ZM1012.37 329.16C1012.37 326.52 1011.47 324.42 1009.67 322.86C1007.87 321.3 1005.62 320.52 1002.92 320.52C1000.34 320.52 998.149 321.27 996.349 322.77C994.609 324.27 993.529 326.4 993.109 329.16H1012.37ZM1056.67 359.85C1052.29 359.85 1048.39 359.1 1044.97 357.6C1041.55 356.1 1038.85 354.06 1036.87 351.48C1034.89 348.84 1033.78 345.9 1033.54 342.66H1048.75C1048.93 344.4 1049.74 345.81 1051.18 346.89C1052.62 347.97 1054.39 348.51 1056.49 348.51C1058.41 348.51 1059.88 348.15 1060.9 347.43C1061.98 346.65 1062.52 345.66 1062.52 344.46C1062.52 343.02 1061.77 341.97 1060.27 341.31C1058.77 340.59 1056.34 339.81 1052.98 338.97C1049.38 338.13 1046.38 337.26 1043.98 336.36C1041.58 335.4 1039.51 333.93 1037.77 331.95C1036.03 329.91 1035.16 327.18 1035.16 323.76C1035.16 320.88 1035.94 318.27 1037.5 315.93C1039.12 313.53 1041.46 311.64 1044.52 310.26C1047.64 308.88 1051.33 308.19 1055.59 308.19C1061.89 308.19 1066.84 309.75 1070.44 312.87C1074.1 315.99 1076.2 320.13 1076.74 325.29H1062.52C1062.28 323.55 1061.5 322.17 1060.18 321.15C1058.92 320.13 1057.24 319.62 1055.14 319.62C1053.34 319.62 1051.96 319.98 1051 320.7C1050.04 321.36 1049.56 322.29 1049.56 323.49C1049.56 324.93 1050.31 326.01 1051.81 326.73C1053.37 327.45 1055.77 328.17 1059.01 328.89C1062.73 329.85 1065.76 330.81 1068.1 331.77C1070.44 332.67 1072.48 334.17 1074.22 336.27C1076.02 338.31 1076.95 341.07 1077.01 344.55C1077.01 347.49 1076.17 350.13 1074.49 352.47C1072.87 354.75 1070.5 356.55 1067.38 357.87C1064.32 359.19 1060.75 359.85 1056.67 359.85ZM894.926 430.95L878.456 494.13H859.826L849.746 452.55L839.306 494.13H820.676L804.656 430.95H821.126L830.216 476.94L841.466 430.95H858.386L869.186 476.94L878.366 430.95H894.926ZM899.584 468.93C899.584 463.77 900.544 459.24 902.464 455.34C904.444 451.44 907.114 448.44 910.474 446.34C913.834 444.24 917.584 443.19 921.724 443.19C925.264 443.19 928.354 443.91 930.994 445.35C933.694 446.79 935.764 448.68 937.204 451.02V443.91H952.594V494.13H937.204V487.02C935.704 489.36 933.604 491.25 930.904 492.69C928.264 494.13 925.174 494.85 921.634 494.85C917.554 494.85 913.834 493.8 910.474 491.7C907.114 489.54 904.444 486.51 902.464 482.61C900.544 478.65 899.584 474.09 899.584 468.93ZM937.204 469.02C937.204 465.18 936.124 462.15 933.964 459.93C931.864 457.71 929.284 456.6 926.224 456.6C923.164 456.6 920.554 457.71 918.394 459.93C916.294 462.09 915.244 465.09 915.244 468.93C915.244 472.77 916.294 475.83 918.394 478.11C920.554 480.33 923.164 481.44 926.224 481.44C929.284 481.44 931.864 480.33 933.964 478.11C936.124 475.89 937.204 472.86 937.204 469.02ZM991.718 481.08V494.13H983.888C978.308 494.13 973.958 492.78 970.838 490.08C967.718 487.32 966.158 482.85 966.158 476.67V456.69H960.038V443.91H966.158V431.67H981.548V443.91H991.628V456.69H981.548V476.85C981.548 478.35 981.908 479.43 982.628 480.09C983.348 480.75 984.548 481.08 986.228 481.08H991.718ZM1047.63 468.21C1047.63 469.65 1047.54 471.15 1047.36 472.71H1012.53C1012.77 475.83 1013.76 478.23 1015.5 479.91C1017.3 481.53 1019.49 482.34 1022.07 482.34C1025.91 482.34 1028.58 480.72 1030.08 477.48H1046.46C1045.62 480.78 1044.09 483.75 1041.87 486.39C1039.71 489.03 1036.98 491.1 1033.68 492.6C1030.38 494.1 1026.69 494.85 1022.61 494.85C1017.69 494.85 1013.31 493.8 1009.47 491.7C1005.63 489.6 1002.63 486.6 1000.47 482.7C998.31 478.8 997.23 474.24 997.23 469.02C997.23 463.8 998.28 459.24 1000.38 455.34C1002.54 451.44 1005.54 448.44 1009.38 446.34C1013.22 444.24 1017.63 443.19 1022.61 443.19C1027.47 443.19 1031.79 444.21 1035.57 446.25C1039.35 448.29 1042.29 451.2 1044.39 454.98C1046.55 458.76 1047.63 463.17 1047.63 468.21ZM1031.88 464.16C1031.88 461.52 1030.98 459.42 1029.18 457.86C1027.38 456.3 1025.13 455.52 1022.43 455.52C1019.85 455.52 1017.66 456.27 1015.86 457.77C1014.12 459.27 1013.04 461.4 1012.62 464.16H1031.88ZM1071.14 452.28C1072.94 449.52 1075.19 447.36 1077.89 445.8C1080.59 444.18 1083.59 443.37 1086.89 443.37V459.66H1082.66C1078.82 459.66 1075.94 460.5 1074.02 462.18C1072.1 463.8 1071.14 466.68 1071.14 470.82V494.13H1055.75V443.91H1071.14V452.28Z" fill="#0063A7"/>
<path d="M676.689 371.567C666.486 371.567 656.988 370.185 654.763 369.681C650.097 368.619 650.594 361.733 651.183 353.766C651.535 348.952 651.902 343.976 651.175 340.149C649.6 331.826 643.703 329.375 642.591 328.986C634.218 328.744 626.476 331.667 617.536 335.06C610.582 337.704 602.679 340.699 593.554 342.352C578.109 345.155 561.238 339.237 550.068 335.329C546.284 334 543.294 332.952 541.532 332.675C535.054 331.652 531.161 334.059 531.003 334.163C530.342 334.578 529.448 334.44 528.984 333.843C528.671 333.443 528.639 332.933 528.855 332.52C528.775 332.366 528.725 332.194 528.719 332.008C528.708 331.892 528.161 320.54 527.891 309.053C527.329 285.335 528.418 284.209 529.072 283.525C530.691 281.847 533.567 282.668 537.541 283.805C541.587 284.952 546.623 286.385 551.596 285.657C557.746 284.757 558.933 266.632 558.235 255.42C558.208 255.06 558.35 254.706 558.625 254.444C558.899 254.179 559.275 254.031 559.674 254.031H610.854C611.646 254.031 612.283 254.605 612.298 255.325C612.298 255.502 612.64 272.944 615.081 282.088C615.971 285.441 622.374 285.796 631.228 286.3C642.929 286.957 658.953 287.864 675.279 296.056C705.225 311.085 703.435 362.019 703.347 364.182C703.33 364.482 703.201 364.77 702.983 364.997C698.008 370.159 686.987 371.567 676.689 371.567Z" fill="#454545"/>
<path d="M641.623 326.344C642.058 326.344 642.493 326.351 642.925 326.368C643.057 326.37 643.186 326.391 643.312 326.423C643.663 326.528 652.021 329.07 654.023 339.698C654.811 343.837 654.431 348.97 654.067 353.935C653.655 359.58 653.148 366.604 655.465 367.124C663.577 368.972 692.153 371.315 700.457 363.6C700.574 358.359 700.785 311.862 673.87 298.355C658.119 290.452 642.472 289.565 631.048 288.917C620.949 288.348 613.66 287.93 612.264 282.709C610.116 274.653 609.55 260.943 609.43 256.659H561.193C561.48 263.231 561.827 286.825 552.051 288.252C546.399 289.082 540.78 287.475 536.68 286.307C534.799 285.774 531.989 284.967 531.303 285.24C530.183 288.013 530.591 310.532 531.571 330.967C533.719 330.175 537.319 329.348 542.021 330.087C544.073 330.408 547.18 331.498 551.115 332.881C561.969 336.678 578.372 342.425 592.979 339.777C601.828 338.172 609.244 335.359 616.427 332.641C624.942 329.403 633.008 326.344 641.623 326.344Z" fill="#909697"/>
<g opacity="0.5">
<path d="M675.65 362.615C656.896 355.558 669.624 336.033 664.136 322.827C661.135 315.599 655.027 309.198 646.429 307.287C640.72 306.017 634.936 305.42 629.407 303.551C624.32 301.842 621.913 297.463 623.79 292.955C624.515 291.196 625.873 289.82 627.566 288.713C619.303 288.184 613.498 287.313 612.263 282.708C610.115 274.653 609.549 260.942 609.43 256.659H561.193C561.479 263.23 561.826 286.824 552.051 288.251C546.398 289.081 540.779 287.474 536.679 286.306C534.799 285.773 531.988 284.966 531.303 285.239C530.183 288.012 530.59 310.531 531.57 330.966C533.718 330.174 537.319 329.347 542.02 330.086C544.072 330.407 547.18 331.497 551.114 332.88C561.968 336.677 578.372 342.424 592.978 339.776C601.828 338.171 609.244 335.358 616.426 332.64C624.943 329.404 633.011 326.347 641.625 326.347C642.059 326.347 642.494 326.354 642.926 326.371C643.058 326.373 643.188 326.394 643.313 326.426C643.664 326.531 652.023 329.072 654.024 339.7C654.812 343.84 654.432 348.973 654.068 353.938C653.657 359.582 653.149 366.607 655.466 367.126C663.578 368.975 692.154 371.317 700.458 363.603C700.458 363.409 700.466 363.146 700.466 362.843C692.988 366.129 682.978 365.373 675.65 362.615Z" fill="#909697"/>
</g>
<g opacity="0.5">
<path d="M612.011 328.367C602.422 331.294 592.958 336.8 582.426 334.857C566.449 331.906 550.037 316.475 557.838 300.757C561.873 292.635 572.346 287.951 575.06 279.346C577.399 271.925 578 264.294 577.758 256.659H561.192C561.478 263.23 561.825 286.824 552.049 288.251C546.397 289.081 540.778 287.474 536.678 286.306C534.797 285.773 531.987 284.966 531.301 285.239C530.181 288.012 530.589 310.531 531.569 330.966C533.717 330.174 537.318 329.347 542.019 330.086C544.071 330.407 547.178 331.497 551.113 332.88C561.967 336.677 578.37 342.424 592.977 339.776C601.826 338.171 609.243 335.358 616.425 332.64C623.423 329.982 630.12 327.471 637.06 326.65C628.536 325.261 618.617 326.35 612.011 328.367Z" fill="#909697"/>
</g>
<path d="M585.814 254.552H583.885C577.89 254.552 573.195 251.927 573.195 248.582V212.448C573.195 209.1 577.89 206.477 583.885 206.477H585.814C591.807 206.477 596.496 209.102 596.496 212.448V248.583C596.498 251.929 591.807 254.552 585.814 254.552Z" fill="#454545"/>
<path d="M583.886 209.106C579.427 209.106 576.094 210.87 576.094 212.449V248.585C576.094 250.16 579.427 251.933 583.886 251.933H585.815C590.272 251.933 593.607 250.16 593.607 248.585V212.449C593.607 210.87 590.272 209.106 585.815 209.106H583.886Z" fill="#909697"/>
<g opacity="0.5">
<path d="M583.883 209.102C579.423 209.102 576.09 210.867 576.09 212.446V248.582C576.09 250.157 579.423 251.929 583.883 251.929H585.811C590.269 251.929 593.604 250.157 593.604 248.582V212.446C593.604 210.867 590.269 209.102 585.811 209.102H583.883Z" fill="#909697"/>
</g>
<g opacity="0.7">
<path d="M589.924 241.307C590.985 241.38 592.057 241.442 593.127 241.501C593.28 241.514 593.445 241.516 593.608 241.527V222.62C592.5 222.58 591.403 222.551 590.302 222.533C590.348 228.769 590.486 235.075 589.924 241.307Z" fill="#909697"/>
</g>
<g opacity="0.7">
<path d="M579.207 240.768C579.817 234.69 579.548 228.455 579.47 222.395C578.352 222.378 577.226 222.344 576.098 222.306V240.827C577.132 240.784 578.171 240.761 579.207 240.768Z" fill="#909697"/>
</g>
<path d="M543.092 332.484C543.092 336.926 539.13 340.512 534.244 340.512H512.107C507.217 340.512 503.251 336.924 503.251 332.484V285.302C503.251 280.866 507.217 277.27 512.107 277.27H534.244C539.13 277.27 543.092 280.866 543.092 285.302V332.484Z" fill="#454545"/>
<path d="M541.605 330.046C541.605 334.152 537.936 337.48 533.418 337.48H512.932C508.405 337.48 504.736 334.152 504.736 330.046V286.376C504.736 282.278 508.405 278.949 512.932 278.949H533.418C537.936 278.949 541.605 282.278 541.605 286.376V330.046Z" fill="#B4B8BA"/>
<path opacity="0.5" d="M540.678 324.381C537.737 326.868 531.843 326.09 528.971 322.896C524.234 317.631 524.215 312.164 524.048 305.689C523.81 296.778 523.923 287.864 523.988 278.949H512.934C508.407 278.949 504.738 282.278 504.738 286.376V330.046C504.738 334.152 508.407 337.48 512.934 337.48H533.42C537.938 337.48 541.607 334.152 541.607 330.046V323.478C541.296 323.785 541.014 324.094 540.678 324.381Z" fill="#B4B8BA"/>
<path d="M518.34 340.658C518.34 346.466 513.16 351.167 506.756 351.167H477.791C471.391 351.167 466.206 346.468 466.206 340.658V278.918C466.206 273.116 471.391 268.41 477.791 268.41H506.756C513.16 268.41 518.34 273.116 518.34 278.918V340.658Z" fill="#454545"/>
<path d="M516.952 336.894C516.952 342.234 513.473 346.56 509.177 346.56H489.731C485.433 346.56 481.951 342.234 481.951 336.894V280.072C481.951 274.732 485.433 270.392 489.731 270.392H509.178C513.474 270.392 516.953 274.732 516.953 280.072L516.952 336.894Z" fill="#B4B8BA"/>
<path d="M614.295 265.492H555.905C550.95 265.492 546.921 261.834 546.921 257.338V255.918C546.921 251.418 550.95 247.771 555.905 247.771H614.295C619.25 247.771 623.281 251.418 623.281 255.918V257.338C623.281 261.834 619.25 265.492 614.295 265.492Z" fill="#454545"/>
<path d="M555.905 250.393C552.552 250.393 549.818 252.869 549.818 255.919V257.339C549.818 260.387 552.552 262.864 555.905 262.864H614.296C617.654 262.864 620.385 260.387 620.385 257.339V255.919C620.385 252.869 617.654 250.393 614.296 250.393H555.905Z" fill="#B4B8BA"/>
<path opacity="0.5" d="M569.738 258.392C576.391 258.48 596.109 258.036 602.762 258.199C608.049 258.326 616.757 257.966 619.479 253.07C618.412 251.472 616.5 250.393 614.297 250.393H555.904C552.726 250.393 550.139 252.621 549.868 255.441C552.432 258.527 560.702 258.283 569.738 258.392Z" fill="#B4B8BA"/>
<path opacity="0.5" d="M565.938 255.483C572.717 255.572 579.487 255.487 586.268 255.229C592.704 254.992 600.638 255.43 607.074 255.145C610.65 254.998 615.784 254.51 617.364 251.169C616.453 250.693 615.418 250.393 614.294 250.393H555.904C554.29 250.393 552.824 250.977 551.737 251.917C553.722 255.979 561.241 255.415 565.938 255.483Z" fill="#B4B8BA"/>
<path d="M605.569 253.526H561.492C557.564 253.526 554.365 250.62 554.365 247.054V245.98C554.365 242.412 557.564 239.51 561.492 239.51H605.571C609.501 239.51 612.705 242.412 612.705 245.98V247.054C612.703 250.62 609.499 253.526 605.569 253.526Z" fill="#454545"/>
<path d="M561.491 242.135C559.161 242.135 557.259 243.862 557.259 245.979V247.054C557.259 249.175 559.161 250.898 561.491 250.898H605.57C607.906 250.898 609.799 249.175 609.799 247.054V245.979C609.799 243.862 607.906 242.135 605.57 242.135H561.491Z" fill="#B4B8BA"/>
<path opacity="0.5" d="M557.627 244.502C557.406 244.961 557.259 245.45 557.259 245.979V247.054C557.259 249.175 559.161 250.898 561.491 250.898H605.57C607.906 250.898 609.799 249.175 609.799 247.054V245.979C609.799 245.585 609.724 245.217 609.605 244.863C603.49 247.952 561.138 248.817 557.627 244.502Z" fill="#B4B8BA"/>
<path opacity="0.5" d="M604.631 248.99C601.956 249.381 599.186 249.42 597.47 249.493C594.837 249.61 592.185 249.705 589.532 249.764C586.157 249.889 582.78 249.968 579.388 249.946C578.548 249.946 577.539 249.946 576.423 249.946C573.59 250.22 570.564 249.946 568.002 249.608C564.274 249.127 559.715 249.288 557.255 246.53V247.055C557.255 249.176 559.157 250.899 561.487 250.899H605.565C607.49 250.899 609.093 249.724 609.607 248.126C608.029 248.674 606.343 248.886 604.631 248.99Z" fill="#B4B8BA"/>
<path d="M634.75 220.159H535.382C531.598 220.159 528.52 217.365 528.52 213.929V208.052C528.52 204.62 531.6 201.82 535.382 201.82H634.75C638.533 201.82 641.613 204.62 641.613 208.052V213.929C641.613 217.365 638.533 220.159 634.75 220.159Z" fill="#454545"/>
<path d="M535.383 203.83C532.817 203.83 530.731 205.726 530.731 208.054V213.93C530.731 216.257 532.817 218.147 535.383 218.147H634.751C637.315 218.147 639.405 216.257 639.405 213.93V208.054C639.405 205.726 637.315 203.83 634.751 203.83H535.383Z" fill="#B4B8BA"/>
<path d="M634.751 203.83H622.848C621.208 208.385 616.964 212.063 610.102 212.063C603.239 212.063 598.999 208.387 597.359 203.83H571.669C569.97 208.274 565.758 211.831 559.004 211.831C552.257 211.831 548.04 208.274 546.339 203.83H535.383C532.817 203.83 530.731 205.726 530.731 208.054V213.93C530.731 216.257 532.817 218.147 535.383 218.147H634.751C637.315 218.147 639.405 216.257 639.405 213.93V208.054C639.407 205.726 637.317 203.83 634.751 203.83Z" fill="#B4B8BA"/>
<path d="M534.668 228.324C524.132 228.324 515.561 220.547 515.561 210.992C515.561 201.44 524.132 193.659 534.668 193.659C545.2 193.659 553.776 201.438 553.776 210.992C553.774 220.547 545.2 228.324 534.668 228.324Z" fill="#454545"/>
<path d="M534.669 195.668C525.349 195.668 517.774 202.541 517.774 210.989C517.774 219.439 525.349 226.314 534.669 226.314C543.978 226.314 551.563 219.439 551.563 210.989C551.563 202.541 543.978 195.668 534.669 195.668Z" fill="#909697"/>
<path opacity="0.5" d="M546.732 200.286C550.078 207.773 545.957 218.283 534.349 218.283C523.291 218.283 519.024 208.747 521.533 201.374C519.189 204.003 517.772 207.348 517.772 210.989C517.772 219.44 525.347 226.315 534.667 226.315C543.976 226.315 551.561 219.44 551.561 210.989C551.563 206.825 549.712 203.047 546.732 200.286Z" fill="#909697"/>
<path d="M635.227 228.324C624.698 228.324 616.124 220.547 616.124 210.992C616.124 201.44 624.7 193.659 635.227 193.659C645.765 193.659 654.337 201.438 654.337 210.992C654.335 220.547 645.765 228.324 635.227 228.324Z" fill="#454545"/>
<path d="M635.228 195.668C625.915 195.668 618.34 202.541 618.34 210.989C618.34 219.439 625.915 226.314 635.228 226.314C644.544 226.314 652.125 219.439 652.125 210.989C652.125 202.541 644.544 195.668 635.228 195.668Z" fill="#909697"/>
<path d="M584.877 228.324C574.339 228.324 565.766 220.547 565.766 210.992C565.766 201.44 574.342 193.659 584.877 193.659C595.407 193.659 603.985 201.438 603.985 210.992C603.985 220.547 595.407 228.324 584.877 228.324Z" fill="#454545"/>
<path d="M584.878 195.668C575.558 195.668 567.987 202.541 567.987 210.989C567.987 219.439 575.558 226.314 584.878 226.314C594.193 226.314 601.768 219.439 601.768 210.989C601.768 202.541 594.193 195.668 584.878 195.668Z" fill="#909697"/>
<path opacity="0.5" d="M596.933 200.264C600.278 207.744 596.158 218.26 584.546 218.26C573.494 218.26 569.227 208.724 571.736 201.347C569.39 203.98 567.975 207.327 567.975 210.972C567.975 219.416 575.55 226.288 584.863 226.288C594.183 226.288 601.76 219.416 601.76 210.972C601.76 206.806 599.913 203.024 596.933 200.264Z" fill="#909697"/>
<path opacity="0.5" d="M647.289 200.232C650.641 207.724 646.522 218.234 634.906 218.234C623.848 218.234 619.591 208.702 622.094 201.32C619.746 203.953 618.333 207.301 618.333 210.94C618.333 219.39 625.912 226.265 635.226 226.265C644.541 226.265 652.122 219.39 652.122 210.94C652.125 206.774 650.284 202.998 647.289 200.232Z" fill="#909697"/>
<g opacity="0.5">
<path d="M510.356 333.558C506.267 336.47 501.212 337.467 497.334 335.188C491.75 332.25 488.275 320.081 487.642 316.283C486.221 307.721 485.824 298.167 486.478 289.543C486.929 283.627 486.85 276.894 489.558 271.359C489.577 271.32 489.577 271.287 489.589 271.251C489.587 271.03 489.581 270.813 489.581 270.592H478.876C472.952 270.592 468.152 274.955 468.152 280.325V337.465C468.152 342.835 472.952 347.185 478.876 347.185H505.684C511.606 347.185 516.402 342.835 516.402 337.465V323.203C515.764 327.229 514.028 330.933 510.356 333.558Z" fill="#B4B8BA"/>
</g>
<path d="M508.826 273.756C504.942 272.168 500.286 273.038 496.336 273.868C495.919 273.954 495.975 274.515 496.366 274.596C499.218 275.201 502.108 275.531 504.983 276.022C507.167 276.389 508.58 277.413 509.812 279.024C510.793 280.3 510.805 281.858 511.756 283.133C512.615 284.282 514.418 283.88 514.817 282.605C515.91 279.143 512.115 275.11 508.826 273.756Z" fill="#B4B8BA"/>
<path d="M514.648 307.826C514.671 301.994 515.122 296.158 514.224 290.354C514.136 289.775 513.135 289.618 513.029 290.272C512.253 295.335 511.401 300.584 511.025 305.679C510.561 311.936 509.123 319.582 511.346 325.612C511.773 326.753 513.365 326.506 513.739 325.489C515.693 320.086 514.631 313.469 514.648 307.826Z" fill="#B4B8BA"/>
<path d="M537.924 290.333C537.698 287.018 537.934 281.085 533.153 280.917C532.721 280.9 532.57 281.517 532.969 281.679C537.287 283.421 536.1 293.842 536.083 297.33C536.035 303.778 536.593 310.794 537.87 317.134C537.966 317.61 538.858 317.555 538.906 317.085C539.838 308.337 538.517 299.098 537.924 290.333Z" fill="#B4B8BA"/>
<path d="M564.734 205.054C563.562 204.199 562.216 204.404 560.806 204.501C559.974 204.559 558.898 204.45 558.054 204.404C557.095 204.359 556.244 204.721 555.3 204.692C555.12 204.688 555.13 204.901 555.266 204.944C556.907 205.46 558.948 205.56 560.683 205.737C561.89 205.856 563.658 206.097 564.697 205.399C564.812 205.323 564.864 205.153 564.734 205.054Z" fill="#B4B8BA"/>
<path d="M615.934 204.889C614.261 204.381 612.748 204.419 611.03 204.419C608.919 204.41 606.65 204.396 604.56 204.647C604.287 204.686 604.197 205.079 604.508 205.12C606.623 205.412 608.775 205.45 610.9 205.674C612.606 205.848 614.304 205.899 615.953 205.401C616.244 205.314 616.2 204.967 615.934 204.889Z" fill="#B4B8BA"/>
<path d="M644 199.414C638.759 194.099 626.98 196.789 623.776 202.837C623.701 202.981 623.891 203.188 624.05 203.065C626.909 200.894 629.09 199.848 632.732 199.35C636.439 198.834 639.967 198.864 643.527 200.023C643.962 200.159 644.311 199.734 644 199.414Z" fill="#B4B8BA"/>
<path d="M593.146 199.414C587.908 194.099 576.128 196.789 572.925 202.837C572.854 202.981 573.044 203.188 573.199 203.065C576.053 200.894 578.235 199.848 581.889 199.35C585.592 198.834 589.122 198.864 592.676 200.023C593.111 200.159 593.466 199.734 593.146 199.414Z" fill="#B4B8BA"/>
<path d="M542.836 199.414C537.597 194.099 525.816 196.789 522.616 202.837C522.543 202.981 522.729 203.188 522.886 203.065C525.745 200.894 527.922 199.848 531.573 199.35C535.275 198.834 538.809 198.864 542.365 200.023C542.8 200.159 543.157 199.734 542.836 199.414Z" fill="#B4B8BA"/>
<path d="M684.779 309.297C679.656 303.218 673.78 298.186 665.555 296.154C661.223 295.086 656.958 294.484 652.497 294.114C648.044 293.739 643.745 292.742 639.267 292.444C639.037 292.429 638.956 292.694 639.188 292.763C642.621 293.801 646.09 294.886 649.594 295.704C653.259 296.563 657.054 296.834 660.692 297.784C665.532 299.058 669.696 300.117 673.692 303.004C676.745 305.214 679.534 308.181 681.979 310.92C687.719 317.334 691.155 325.754 692.707 333.813C693.579 338.313 694.716 342.756 695.119 347.315C695.499 351.603 695.384 355.896 695.915 360.176C695.967 360.593 696.692 360.69 696.751 360.235C698.851 343.166 696.632 323.339 684.779 309.297Z" fill="#B4B8BA"/>
<path d="M604.428 242.947C598.101 242.981 591.78 242.456 585.436 242.456C581.8 242.462 578.151 242.553 574.52 242.667C570.574 242.782 566.571 243.539 562.625 243.218C562.4 243.203 562.312 243.489 562.552 243.539C576.204 246.719 590.768 244.754 604.437 243.114C604.562 243.099 604.562 242.947 604.428 242.947Z" fill="#B4B8BA"/>
<path d="M610.581 259.225C605.882 259.541 601.107 259.405 596.378 259.685C591.493 259.973 586.561 260.036 581.659 260.036C577.06 260.036 572.412 259.951 567.817 259.651C562.973 259.342 558.013 259.807 553.221 259.314C553.023 259.289 552.876 259.553 553.094 259.646C556.6 261.12 561.118 260.311 564.919 260.823C569.995 261.509 575.162 261.465 580.28 261.465C590.128 261.465 601.074 262.043 610.632 259.57C610.853 259.515 610.797 259.21 610.581 259.225Z" fill="#B4B8BA"/>
<path d="M675.163 370.501C675.163 370.501 671.401 411.797 651.082 444.475C630.764 477.155 609.317 497.623 608.941 525.992C608.565 554.36 638.29 565.853 680.055 562.98C721.819 560.107 746.521 545.68 737.246 509.832C729.722 480.746 702.179 457.562 692.471 431.906C682.688 406.052 675.163 370.501 675.163 370.501Z" fill="#0271B0"/>
<path d="M739.809 527.789C739.809 562.306 710.491 590.285 674.324 590.285C638.159 590.285 608.841 562.306 608.841 527.789C608.841 493.272 638.159 465.293 674.324 465.293C710.491 465.293 739.809 493.272 739.809 527.789Z" fill="#0271B0"/>
<path d="M638.362 477.546C638.883 477.278 639.333 476.947 639.727 476.522C640 476.232 640.269 475.919 640.636 475.731C641.456 475.316 642.608 475.229 643.52 475.366C644.205 475.47 644.765 475.866 644.353 476.565C644.196 476.832 644.333 477.144 644.264 477.437C644.219 477.633 644.154 477.823 644.039 477.994C643.785 478.373 643.433 478.636 643.018 478.823C644.149 479.442 644.228 480.588 644.129 481.749C644.782 481.754 645.12 481.494 645.15 480.844C645.167 480.493 645.129 480.062 645.355 479.759C645.626 479.396 646.207 479.236 646.654 479.34C647.273 479.484 647.721 479.772 648.379 479.546C648.423 479.53 648.488 479.546 648.503 479.595C648.684 480.206 648.665 480.813 648.176 481.284C647.741 481.7 647.074 481.857 646.471 481.918C646.067 482.337 646.204 482.914 646.032 483.422C645.905 483.798 645.642 484.097 645.268 484.268C644.963 484.411 644.684 484.402 644.357 484.347C643.894 484.267 643.157 484.241 642.867 484.68C642.645 485.013 642.67 485.52 642.343 485.793C642.085 486.006 641.712 486.048 641.385 486.091C641.197 486.115 641.007 486.13 640.822 486.169C640.607 486.21 640.509 486.434 640.438 486.615C640.317 486.927 640.269 487.255 640.16 487.569C640.056 487.872 639.895 488.173 639.614 488.356C639.452 488.458 639.28 488.55 639.093 488.602C638.786 488.687 638.854 488.914 638.871 489.199C638.921 490.042 639.245 491.22 638.587 491.929C638.238 492.307 637.708 492.568 637.476 493.035C637.237 493.516 637.255 494.105 637.331 494.622C637.453 495.46 637.604 496.242 637.506 497.065C637.807 496.601 638.143 496.156 638.343 495.638C638.362 495.589 638.444 495.566 638.484 495.607C638.922 496.02 639.357 496.307 639.925 496.527C639.955 496.536 639.978 496.566 639.978 496.598C640.008 497.163 640.289 497.677 640.329 498.239C640.495 498.179 640.666 498.132 640.831 498.062C640.891 498.036 640.948 498.089 640.92 498.15C640.595 498.872 640.39 499.676 640.34 500.461C640.314 500.85 640.369 500.841 640.675 501.027C640.791 501.096 640.902 501.202 640.983 501.311C641.507 502.023 641.392 502.994 641.299 503.812C641.294 503.859 641.262 503.885 641.211 503.879C641.048 503.854 640.672 503.72 640.864 504.029C640.956 504.173 641.05 504.315 641.158 504.451C641.391 504.736 641.653 504.994 641.898 505.271C642.123 505.527 642.324 505.791 642.482 506.088C642.529 506.176 642.556 506.464 642.727 506.301C642.824 506.212 642.908 506.151 643.023 506.085C643.055 506.066 643.094 506.08 643.113 506.108C643.612 506.908 643.906 507.75 643.523 508.652C643.402 508.938 643.461 508.926 643.707 509.086C643.873 509.191 644.04 509.304 644.191 509.432C644.511 509.694 644.801 509.982 645.079 510.285C644.667 509.243 644.315 508.177 643.98 507.112C643.639 506.043 643.221 505.042 642.769 504.014C642.576 503.572 642.377 503.118 642.285 502.645C642.212 502.276 642.069 501.889 642.072 501.513C642.081 500.867 642.522 500.212 642.731 499.617C642.744 499.586 642.768 499.553 642.807 499.555C643.055 499.563 643.289 499.609 643.521 499.668C643.544 499.496 643.533 499.323 643.589 499.151C643.607 499.096 643.672 499.072 643.719 499.112C644.868 500.055 644.234 501.53 644.593 502.738C644.691 503.069 644.892 503.36 645.265 503.448C645.366 503.472 645.592 503.458 645.671 503.52C645.826 503.644 645.971 503.873 646.068 504.04C646.237 504.338 646.393 504.704 646.243 505.043C646.136 505.289 645.869 505.423 646.214 505.588C646.427 505.687 646.645 505.762 646.873 505.833C646.906 505.847 646.927 505.89 646.92 505.925C646.889 506.075 646.571 506.477 646.864 506.413C646.995 506.383 647.111 506.353 647.237 506.416C647.268 506.432 647.291 506.467 647.283 506.506C647.14 507.202 648.047 508.024 648.463 508.504C648.822 508.92 649.276 509.367 649.575 509.861C649.735 509.971 649.892 510.086 649.993 510.236C650.141 510.449 650.125 510.776 650.472 510.701C650.537 510.687 650.587 510.752 650.581 510.805C650.499 511.539 650.585 512.225 650.788 512.931C650.958 513.524 651.141 514.122 651.183 514.74C651.239 515.603 650.963 516.21 650.501 516.935C650.315 517.227 650.009 517.635 650.092 518.003C650.194 518.471 650.78 518.773 651.212 518.925C652.255 519.288 653.415 518.961 654.494 519.001C655.534 519.039 656.359 519.368 657.112 520.051C657.461 520.368 657.879 520.9 658.367 521.024C658.915 521.164 659.47 520.824 659.895 520.539C660.213 520.321 660.559 520.069 660.957 520.01C661.302 519.956 661.665 519.974 662.01 520.01C663.403 520.152 665.529 520.673 665.941 522.17C665.95 522.201 665.932 522.246 665.905 522.266C665.686 522.422 665.568 522.626 665.419 522.821C666.156 522.99 666.829 523.299 667.454 523.717C668.126 524.168 668.763 524.69 669.527 524.998C670.667 525.455 671.911 525.809 673.131 526.014C673.413 526.061 673.703 526.106 673.991 526.11C674.123 526.11 674.413 526.007 674.52 526.044C674.788 526.147 675.063 526.44 675.266 526.628C675.546 526.881 675.811 527.146 676.058 527.43C677.062 528.564 677.976 529.86 678.558 531.243C679.419 530.933 680.094 531.229 680.663 531.904C680.938 532.23 681.193 532.619 681.563 532.847C682.066 533.158 682.602 532.971 683.07 532.69C683.125 532.657 683.193 532.667 683.225 532.727C683.442 533.145 683.889 534.208 684.523 534.208C684.931 534.208 685.241 533.753 685.453 533.478C685.863 532.958 686.293 532.315 686.918 532.017C686.874 532.014 686.829 532.011 686.787 532.012C686.702 532.014 686.704 531.89 686.785 531.887C686.921 531.88 687.054 531.89 687.188 531.914C687.288 531.886 687.394 531.864 687.502 531.855C687.608 531.847 687.647 531.974 687.584 532.023C688.496 532.365 689.297 533.286 689.759 533.976C690.276 534.746 690.926 536.059 690.101 536.828C690.659 537.276 691.012 537.994 691.185 538.655C691.308 539.128 691.493 540.169 690.973 540.524C690.804 540.639 690.508 540.656 690.312 540.695C689.924 540.772 689.531 540.838 689.151 540.936C688.176 541.184 687.792 542.096 687.314 542.857C686.802 543.674 686.128 544.396 685.774 545.3C685.475 546.068 685.292 546.909 685.159 547.717C685.032 548.491 684.975 549.283 684.733 550.032C684.575 550.527 684.324 551.04 683.821 551.269C684.872 552.005 685.835 552.831 686.544 553.884C687.196 554.852 687.692 555.907 688.352 556.869C689.012 557.831 689.682 558.815 690.122 559.888C690.433 560.648 690.739 561.632 690.229 562.367C691.141 562.766 691.92 563.361 692.749 563.895C693.211 564.194 693.713 564.531 694.255 564.676C694.705 564.802 695.164 564.849 695.626 564.911C696.337 565.006 697.062 565.179 697.529 565.748C697.9 566.199 698.024 566.647 698.054 567.217C698.122 568.655 697.897 570.129 697.597 571.535C697.471 572.124 697.337 572.718 697.127 573.287C696.873 573.973 696.408 574.547 695.907 575.087C695.048 576.012 694.257 576.862 693.846 578.059C693.436 579.257 693.17 580.495 692.752 581.692C692.494 582.428 692.192 583.157 691.977 583.91C691.875 584.277 691.601 585.097 692.066 585.355C692.734 585.718 693.905 585.169 694.514 584.93C695.515 584.536 696.392 583.881 697.237 583.25C698.105 582.601 698.955 581.914 699.888 581.348C700.335 581.077 700.809 580.814 701.312 580.644C701.312 580.538 701.312 580.431 701.309 580.323C701.309 580.28 701.338 580.225 701.394 580.225C701.54 580.225 701.706 580.222 701.872 580.225C701.975 580.173 702.079 580.131 702.188 580.113C702.384 580.075 702.561 580.084 702.755 580.108C702.834 580.117 702.928 580.202 703 580.221C703.042 580.234 703.071 580.268 703.077 580.309C703.148 580.284 703.219 580.264 703.29 580.238C704.007 579.963 704.659 579.562 705.257 579.094C706.479 578.134 707.507 576.966 708.766 576.045C710.36 574.879 712.116 573.911 713.726 572.764C715.299 571.643 716.79 570.424 718.105 569.031C717.861 569.067 717.619 569.137 717.394 569.237C717.34 569.258 717.272 569.22 717.269 569.163C717.248 568.858 717.476 568.58 717.678 568.365C718.03 567.983 718.438 567.656 718.853 567.341C719.92 566.534 721.055 565.815 722.161 565.055C723.261 564.299 724.333 563.439 725.296 562.528C726.521 561.365 727.428 559.926 726.781 558.253C726.77 558.228 726.773 558.192 726.794 558.174C727.535 557.503 728.287 556.782 728.683 555.867C729.078 554.955 729.267 553.97 729.575 553.031C729.865 552.158 730.496 551.613 731.213 551.053C731.69 550.676 732.198 550.247 732.498 549.721C732.798 549.198 732.924 548.623 732.978 548.032C733.076 547.017 733.165 546.074 733.576 545.12C733.722 544.779 733.914 544.434 733.946 544.063C733.967 543.829 733.958 543.597 733.925 543.365C733.889 543.087 733.91 542.845 733.611 542.731C732.795 542.416 731.867 542.227 731.195 541.651C731.064 541.537 730.941 541.391 730.863 541.236C730.751 541.012 730.297 541.151 730.084 541.178C729.524 541.253 728.918 541.384 728.354 541.292C727.975 541.231 727.819 541.128 727.661 540.79C727.526 540.504 727.345 539.822 726.941 539.822C726.3 539.822 725.345 540.312 724.815 539.815C724.35 539.381 724.314 538.801 724.247 538.22C724.211 537.909 724.169 537.554 723.945 537.309C723.761 537.102 723.518 536.988 723.258 536.919C723.227 536.943 723.183 536.95 723.142 536.916C723.13 536.907 723.118 536.894 723.106 536.883C722.974 536.857 722.84 536.839 722.707 536.824C722.662 536.821 722.615 536.785 722.609 536.739C722.582 536.426 722.407 536.213 722.253 535.95C722.244 535.936 722.238 535.92 722.238 535.904C721.972 535.557 721.717 535.197 721.446 534.857C720.856 534.122 720.187 533.26 719.291 532.851C718.723 532.592 718.188 532.636 717.601 532.789C717.224 532.887 716.854 532.961 716.469 532.857C715.972 532.723 715.522 532.471 715.163 532.115C714.977 531.927 714.803 531.73 714.662 531.512C714.582 531.39 714.45 531.012 714.299 530.997C713.259 530.881 712.613 530.031 711.891 529.403C711.554 529.106 711.162 528.729 710.739 528.541C710.544 528.453 710.341 528.468 710.131 528.451C709.616 528.412 709.115 528.283 708.601 528.213C707.997 528.129 707.386 528.067 706.776 528.033C705.432 527.963 704.084 527.995 702.754 528.208C702.692 528.22 702.633 528.164 702.644 528.105C702.669 527.953 702.737 527.756 702.561 527.681C702.444 527.629 702.33 527.577 702.215 527.523C701.975 527.409 701.736 527.289 701.498 527.17C701.126 526.981 700.754 526.765 700.361 526.616C700.193 526.982 699.83 527.204 699.668 527.572C699.644 527.622 699.59 527.642 699.537 527.625C699.017 527.474 698.472 527.425 697.951 527.273C697.879 527.252 697.879 527.154 697.929 527.113C698.117 526.966 698.317 526.818 698.484 526.644C698.501 526.626 698.672 526.41 698.678 526.41C698.463 526.389 698.223 526.487 698.027 526.557C697.447 526.766 696.869 527.03 696.327 527.311C695.572 527.704 694.822 528.224 693.961 528.378C693.73 528.42 693.504 528.44 693.268 528.438C693.07 528.438 692.921 528.701 692.805 528.824C692.634 529.015 692.382 529.242 692.195 529.489C692.273 529.459 692.352 529.432 692.433 529.422C692.522 529.412 692.587 529.537 692.504 529.583C692.495 529.587 692.486 529.592 692.477 529.596C692.539 529.619 692.575 529.687 692.534 529.74C692.534 529.765 692.521 529.78 692.5 529.796C692.501 529.812 692.504 529.829 692.504 529.845C692.527 529.835 692.549 529.828 692.577 529.824C692.637 529.821 692.691 529.886 692.658 529.938C692.619 530.004 692.569 530.046 692.516 530.069C692.521 530.334 692.474 530.603 692.287 530.773C692.016 531.014 691.662 530.93 691.355 530.804C691.08 531.815 690.075 532.492 689.02 531.873C688.751 531.716 688.508 531.505 688.342 531.247C688.266 531.129 688.194 531.01 688.142 530.88C688.035 530.609 687.943 530.606 687.623 530.622C686.865 530.662 685.971 530.844 685.39 531.353C685.049 532.674 682.275 531.984 682.257 530.587C682.227 530.572 682.198 530.554 682.171 530.537C681.856 530.675 681.305 530.389 681.016 530.296C680.974 530.282 680.951 530.239 680.956 530.195C681.018 529.36 680.437 528.855 680.189 528.116C680.012 527.592 680.044 527.005 680.21 526.481C680.411 525.85 680.53 525.196 680.598 524.536C680.646 524.082 680.689 523.562 680.486 523.131C680.133 522.368 679.189 522.162 678.397 522.079C677.329 521.968 676.472 522.518 675.459 522.71C674.597 522.873 673.73 522.587 673.244 521.844C672.853 521.249 673.067 520.675 673.487 520.149C674.059 519.429 674.653 518.877 674.733 517.923C674.787 517.278 674.625 516.598 674.798 515.964C674.884 515.648 675.075 515.354 675.302 515.116C675.448 514.967 675.598 514.818 675.764 514.686C675.98 514.511 676.268 514.389 675.993 514.128C675.282 513.456 674.079 513.809 673.261 514.09C672.814 514.242 672.379 514.415 671.936 514.576C671.619 514.688 671.233 514.795 670.967 515.005C670.708 515.211 670.94 515.642 670.907 515.929C670.821 516.634 670.342 517.455 669.728 517.863C669.021 518.325 668.186 518.315 667.377 518.137C666.48 517.936 665.617 517.649 664.711 517.481C664.062 517.358 663.4 517.358 662.75 517.242C662.327 517.167 661.726 517.043 661.537 516.615C661.302 516.077 661.691 515.482 662.019 515.039C661.244 514.882 660.805 514.108 660.566 513.442C660.234 512.52 660.079 511.504 660.148 510.53C660.213 509.591 660.674 508.959 661.347 508.299C661.67 507.981 662.103 507.614 662.197 507.16C662.324 506.55 661.9 506.036 661.492 505.614C661.466 505.586 661.469 505.531 661.496 505.507C661.937 505.049 662.528 504.771 663.107 504.5C663.34 504.393 663.586 504.287 663.827 504.171C663.823 504.151 663.827 504.131 663.856 504.122C664.01 504.059 664.158 503.985 664.305 503.909C664.507 503.781 664.691 503.635 664.839 503.457C664.857 503.436 664.886 503.461 664.872 503.484C664.818 503.552 664.759 503.618 664.697 503.68C665.238 503.34 665.743 502.931 666.281 502.605C666.92 502.22 667.827 501.668 668.627 501.896C669.012 502.006 669.314 502.261 669.504 502.598C669.572 502.72 669.729 503.272 669.85 503.289C670.155 503.337 670.461 503.389 670.765 503.438C672.042 503.631 673.63 503.827 674.574 502.805C674.255 502.678 673.972 502.524 673.609 502.506C673.547 502.503 673.514 502.412 673.559 502.372C674.68 501.379 676.419 502.086 677.758 501.993C677.796 501.99 677.832 502.013 677.847 502.046C677.871 502.104 677.989 502.575 678.01 502.575C678.194 502.579 678.382 502.589 678.566 502.581C679.04 502.557 679.342 502.363 679.651 502.024C679.679 501.993 679.737 501.984 679.768 502.016C680.613 502.846 681.14 503.896 681.854 504.82C681.889 504.867 681.851 504.938 681.791 504.942C681.53 504.959 681.288 505.033 681.056 505.129C681.727 506.121 682.66 507.168 683.77 507.714C683.797 507.729 683.812 507.775 683.793 507.802C683.465 508.236 683.186 508.696 682.879 509.141C683.124 509.132 683.372 509.122 683.601 509.018C683.862 508.903 684.061 508.73 684.258 508.534C684.456 508.335 684.653 508.132 684.883 507.964C684.96 507.908 685.02 507.853 685.055 507.798C685.056 507.704 685.05 507.614 685.038 507.527C685.019 507.497 684.998 507.461 684.961 507.425C684.853 507.298 684.72 507.199 684.59 507.091C684.507 507.026 684.581 506.877 684.69 506.926C684.767 506.965 684.836 507.01 684.899 507.059C684.69 506.576 684.332 506.153 684.176 505.624C683.69 505.154 683.593 504.546 684.163 503.987C684.305 503.849 684.344 503.851 684.193 503.727C684.093 503.647 683.998 503.563 683.909 503.471C683.755 503.32 683.636 503.141 683.529 502.957C683.361 502.678 683.246 502.353 683.198 502.027C683.142 502.032 683.088 501.962 683.134 501.909C683.15 501.892 683.163 501.88 683.177 501.869C683.177 501.86 683.175 501.851 683.175 501.843C683.172 501.808 683.198 501.784 683.225 501.774C683.214 501.762 683.195 501.748 683.165 501.73C683.057 501.668 682.949 501.599 682.881 501.496C682.746 501.287 682.685 501.053 682.703 500.808C682.742 500.248 682.979 499.673 683.328 499.222C683.684 498.761 684.206 498.588 684.776 498.48C685.574 498.331 686.042 498.049 686.291 497.304C685.263 496.877 686.935 495.924 687.356 495.69C687.854 495.416 688.355 495.167 688.885 494.954C689.666 494.643 690.538 494.267 690.685 493.403C690.126 493.481 689.495 493.677 689.101 493.161C688.887 492.882 688.767 492.588 688.769 492.236C688.77 491.715 688.77 491.349 688.304 490.991C688.251 490.952 688.239 490.875 688.296 490.833C689.192 490.151 690.107 489.484 691.111 488.952C691.551 488.72 692.053 488.576 692.485 488.333C692.812 488.148 692.743 487.872 692.59 487.582C692.392 487.206 692.05 487.027 691.609 487.058C691.503 487.063 691.446 486.952 691.524 486.88C691.559 486.85 691.595 486.821 691.631 486.79C690.916 487.032 690.162 487.229 689.462 487.086C688.327 486.857 687.338 486.21 686.128 486.454C685.153 486.65 684.235 487.082 683.219 486.852C682.337 486.653 681.641 485.901 681.347 485.102C680.799 485.226 680.805 485.602 680.643 486.059C680.547 486.336 680.337 486.428 680.041 486.379C678.77 486.173 678.691 484.85 678.108 484.003C678.071 483.947 678.077 483.875 678.143 483.843C679.189 483.347 680.334 485.13 681.157 483.996C681.188 483.952 681.253 483.947 681.296 483.976C682.017 484.474 682.544 485.215 683.313 485.653C683.728 485.891 684.196 486 684.679 486.022C684.907 486.03 685.133 486.03 685.36 486.035C685.603 486.042 685.763 486.072 685.766 485.784C685.769 485.732 685.831 485.696 685.878 485.702C686.56 485.784 687.202 485.999 687.866 486.144C688.604 486.307 689.309 486.316 690.037 486.097C690.564 485.94 691.138 485.667 691.696 485.641C692.235 485.617 692.764 485.715 693.288 485.827C693.892 485.957 694.5 486.102 695.125 486.104C695.774 486.105 696.337 485.899 696.953 485.731C697.743 485.519 699.067 485.219 699.057 484.232C699.055 484.192 699.085 484.144 699.137 484.144C699.534 484.137 699.922 484.095 700.302 483.99C701.083 482.638 696.591 482.702 697.646 480.82C697.674 480.772 697.722 480.744 697.779 480.765C698.383 480.991 698.915 481.38 699.528 481.578C700.26 481.816 701.01 481.708 701.755 481.846C702.546 481.993 703.275 482.36 704.06 482.545C704.462 482.638 704.863 482.721 705.269 482.797C705.346 482.811 705.869 482.976 705.837 482.785C705.817 482.661 705.784 482.546 705.727 482.435C705.364 481.744 704.84 481.428 704.066 481.252C703.612 481.153 703.214 481.043 703.088 480.575C703.006 480.284 702.553 480.039 702.312 479.87C702.063 479.698 701.804 479.523 701.533 479.382C701.187 479.199 700.793 479.015 700.39 478.983C700 478.951 700.035 479.066 699.919 479.382C699.89 479.457 699.78 479.481 699.724 479.415C699.422 479.053 699.123 478.649 698.703 478.396C698.305 478.159 697.968 478.104 697.517 478.066C696.913 478.015 696.356 477.856 696.2 477.223C696.141 476.999 696.15 476.78 696.211 476.558C696.254 476.383 696.377 476.126 696.274 475.954C696.057 475.604 695.423 475.504 695.047 475.428C694.615 475.34 694.172 475.296 693.745 475.186C693.152 475.028 692.361 474.68 692.128 474.087C692.023 473.817 691.887 473.788 691.57 473.739C691.115 473.67 690.671 473.587 690.236 473.443C689.771 473.287 689.323 473.094 688.858 472.94C688.339 472.767 687.825 472.676 687.285 472.595C686.204 472.428 685.147 472.14 684.122 471.771C684.061 471.749 684.045 471.698 684.057 471.651C683.566 471.441 682.842 471.503 682.342 471.487C681.637 471.464 680.944 471.352 680.246 471.242C679.464 471.118 678.803 470.817 678.075 470.536C677.403 470.275 676.698 470.036 676.119 469.607C676.063 469.565 676.061 469.493 676.111 469.447C677.648 468.056 679.756 469.479 681.277 470.146C682.417 470.647 683.696 470.837 684.922 471.043C686.079 471.239 687.243 471.368 688.414 471.427C688.071 471.257 687.779 471.016 687.551 470.693C687.504 470.627 687.532 470.549 687.614 470.528C690.662 469.797 693.335 472.322 696.356 471.585C696.218 471.499 696.084 471.415 695.937 471.353C695.875 471.33 695.85 471.232 695.915 471.195C696.962 470.566 697.787 471.013 698.756 471.525C700.151 472.257 701.591 472.085 703.115 472.157C703.551 472.177 703.987 472.222 704.419 472.278C695.409 467.82 685.174 465.3 674.319 465.3C660.695 465.3 648.038 469.273 637.556 476.072C638.059 476.378 638.299 476.934 638.362 477.546Z" fill="#0271B0"/>
<path d="M636.554 572.995C637.962 570.6 639.419 568.235 640.938 565.907C641.13 565.614 641.323 565.32 641.515 565.027C635.273 560.288 630.595 553.903 627.38 547.151C623.357 538.699 621.374 529.67 621.45 520.456C621.544 509.168 626.263 498.888 630.651 488.529C630.978 487.753 629.802 487.259 629.367 487.991C623.227 498.297 616.344 508.451 613.894 520.137C611.813 530.058 614.519 541.56 618.663 550.758C622.523 559.323 628.458 567.335 636.554 572.995Z" fill="white"/>
<path d="M646.881 568.454C646.588 568.906 646.292 569.359 646 569.813C644.626 571.947 643.296 574.112 642.007 576.304C650.566 580.839 660.564 583.416 670.364 582.553C670.963 580.48 671.574 578.406 672.204 576.34C663.582 574.311 654.579 572.558 646.881 568.454Z" fill="white"/>
<path d="M728.613 496.37C722.65 485.37 714.269 475.608 706.705 465.605C698.927 455.317 692.576 444.535 688.011 432.594C685.725 426.617 683.74 420.519 681.972 414.387C680.026 407.64 677.901 400.851 676.396 394.012C676.367 393.885 676.158 393.901 676.185 394.03C677.56 400.277 678.294 406.646 679.555 412.927C680.765 418.969 682.126 425.028 684.008 430.91C687.917 443.121 694.061 454.13 701.469 464.71C708.521 474.781 716.386 484.334 722.868 494.763C726.086 499.938 729.216 505.325 731.717 510.849C734.562 517.13 735.635 524.08 735.656 530.872C735.658 531.439 736.577 531.364 736.57 530.8C736.425 519.035 734.316 506.884 728.613 496.37Z" fill="white"/>
<path d="M490.207 306.297C490.207 431.63 387.589 533.231 260.999 533.231C134.41 533.231 31.7972 431.63 31.7972 306.297C31.7972 180.972 134.41 79.3687 260.999 79.3687C387.589 79.3687 490.207 180.972 490.207 306.297Z" fill="#0266AE"/>
<path d="M490.208 306.297H489.717C489.717 368.844 464.114 425.435 422.73 466.424C381.337 507.397 324.163 532.751 261 532.751C197.839 532.751 140.671 507.4 99.2781 466.424C57.8853 425.432 32.2819 368.844 32.2819 306.297C32.2819 243.773 57.8853 187.165 99.2809 146.184C140.671 105.203 197.839 79.8594 261 79.8594C324.163 79.8594 381.334 105.203 422.73 146.184C464.111 187.165 489.717 243.773 489.717 306.297H490.208H490.701C490.701 180.707 387.865 78.8861 261.003 78.8861C134.145 78.8861 31.3016 180.71 31.3016 306.297C31.3016 431.898 134.145 533.716 261.003 533.716C387.868 533.716 490.701 431.895 490.701 306.297H490.208Z" fill="#06496E"/>
<path d="M197.92 112.997C205.885 115.294 209.866 123.797 206.478 130.167C201.818 138.933 187.485 141.032 188.061 152.373C188.616 163.334 193.805 166.68 195.199 177.62C196.407 187.102 199.091 200.427 197.92 210.115C196.057 225.575 199.881 236.632 188.061 246.233C180.19 252.623 184.47 267.465 177.497 274.608C169.653 282.655 159.027 278.488 149.973 283.055C136.84 289.691 145.614 305.515 138.758 316.083C127.824 332.954 102.129 322.541 96.5469 345.447C93.2898 358.819 94.9597 376.912 99.7498 389.729C101.924 395.546 111.801 416.609 119.076 417.363C125.148 408.453 123.498 395.786 126.399 385.658C130.297 372.079 143.006 352.867 159.585 354.39C170.448 355.397 167.883 370.293 166.501 379.081C164.449 392.118 161.526 392.07 169.752 402.483C178.15 413.128 175.996 425.406 182.57 437.01C185.456 442.119 190.406 440.708 195.8 439.303C199.319 438.386 203.032 437.47 206.475 438.361C214.16 440.37 234.002 439.171 234.5 447.99C235.29 461.879 257.394 477.398 270.656 470.424C271.334 465.707 285.248 465.73 290.235 463.563C295.535 461.255 300.861 458.555 306.609 457.534C310.646 456.84 314.519 457.517 318.36 458.194C321.714 458.795 325.048 459.393 328.413 459.063C335.44 458.364 335.133 454.428 339.609 449.88C344.995 444.438 353.943 442.74 361.517 442.757C379.409 442.785 373.465 458.922 372.496 470.675C392.301 473.028 401.006 443.411 401.932 428.611C402.511 419.569 405.309 410.767 405.91 401.843C406.432 394.15 405.483 388.49 409.492 381.505C413.105 375.185 418.805 369.687 426.119 367.991C432.272 366.581 436.461 367.393 440.783 361.717C445.006 356.15 450.013 345.393 447.517 338.193C443.151 325.63 432.542 335.096 424.139 336.044C419.685 336.557 418.468 334.574 415.117 332.892C408.862 329.758 404.654 330.438 397.362 331.806C384.855 334.162 373.753 335.152 363.244 324.728C358.24 319.745 354.647 313.358 355.328 306.294C356.496 294.326 363.586 291.578 366.039 279.673C368.193 269.18 358.194 250.645 355.328 241.304C347.491 215.783 348.708 211.703 367.851 198.376C402.234 174.435 404.751 170.81 378.509 169.808C376.101 169.718 373.947 169.738 371.926 169.752C365.646 169.803 360.722 169.856 353.789 166.561C346.973 163.322 340.923 159.553 333.263 157.917C324.142 155.967 319.489 156.427 310.735 153.183C302.935 150.308 294.364 138.955 290.36 132.119C286.083 124.767 275.297 126.793 271.647 119.311C266.15 108.091 285.154 91.9367 271.508 86.7795C261.799 83.1034 244.608 87.2704 234.07 87.2704C222.965 87.2704 213.958 93.5533 202.542 92.4502C195.199 91.7449 169.866 96.6989 179.771 102.931L197.92 112.997Z" fill="#0C72B6"/>
<path d="M254.932 93.7707C244.591 93.1839 222.117 86.0349 217.007 99.7827C212.921 110.709 227.252 118.513 226.699 128.895C226.271 136.783 201.486 143.342 202.554 152.37C204.184 166.24 207.792 176.024 209.302 189.884C210.721 202.972 216.654 214.872 211.003 226.354C205.977 236.562 208.003 248.061 202.275 257.588C198.006 264.698 196.268 267.92 191.538 274.809C187.503 280.714 186.89 292.546 179.761 292.904C176.994 293.048 175.065 292.484 173.366 291.911C169.588 290.633 167.06 289.344 159.318 296.061C153.396 301.199 153.963 320.51 150.071 326.951C145.247 334.907 125.308 335.172 118.005 339.48C114.278 341.672 106.527 354.142 108.524 359.124C111.374 366.2 135.723 353.863 140.588 351.922C146.842 349.402 154.613 346.042 161.566 346.592C166.801 347.004 170.981 352.748 176.028 351.69C178.795 345.362 182.14 340.064 184.143 333.039C189.785 331.16 195.903 331.253 201.919 331.352C212.42 331.518 222.601 331.693 229.329 321.241C234.185 313.725 239.587 306.031 243.785 297.884C247.942 289.767 252.396 283.617 261.82 281.112C286.01 274.668 291.153 294.233 298.924 311.479C303.346 321.294 308.302 331.496 310.55 341.918C311.624 346.86 311.867 357.375 318.475 358.385C320.341 361.486 326.04 361.971 329.26 363.98C332.648 366.084 336.342 370.096 340.26 371.103C349.022 373.38 345.594 366.837 349.931 360.873C353.04 356.582 360.708 353.806 365.601 357.465C364.96 363.878 385.428 365.384 389.968 364.854C395.764 364.154 401.32 359.968 407.039 358.741C415.708 356.915 423.567 355.756 431.349 350.677C436.701 347.182 445.648 337.714 434.139 336.196C431.101 335.793 427.975 336.693 424.761 337.573C421.224 338.58 417.606 339.556 413.938 338.8C411.311 338.267 409.074 336.052 406.045 335.519C400.71 334.548 394.758 336.935 389.634 338.004C378.384 340.318 364.418 343.007 354.838 334.929C349.903 330.757 346.329 323.754 343.85 317.875C340.416 309.744 340.841 305.383 345.551 299.179C351.538 291.282 353.217 285.298 354.191 275.291C355.582 260.945 347.706 249.376 342.864 236.243C338.194 223.567 337.889 212.731 347.452 203.09C355.063 195.414 378.093 189.921 378.039 177.618C384.18 172.734 352.841 175.222 344.842 173.705C340.642 172.909 339.516 170.976 335.715 169.148C330.081 166.429 322.142 165.667 315.998 164.773C306.142 163.339 299.069 162.541 290.341 157.917C283.029 154.038 275.395 141.985 271.508 135.045C266.596 126.229 261.159 119.111 261.159 108.921C261.173 101.777 261.133 94.129 254.932 93.7707Z" fill="#157EBE"/>
<path d="M333.05 316.696C331.562 330.957 353.88 343.966 366.524 345.303C380.911 346.809 393.62 339.11 407.825 345.43C409.863 357.313 393.358 356.055 386.396 354.858C375.032 352.909 359.764 348.197 348.13 351.834C339.906 354.39 341.496 361.415 331.172 354.39C320.383 347.072 314.377 338.98 310.749 326.437C307.184 314.117 314.12 310.336 320.745 300.282C327.225 290.458 322.093 282.731 312.068 278.863C304.828 276.061 293.492 273.661 303.548 268.012C311.55 263.504 319.762 262.457 328.599 265.335C336.324 267.854 343.397 270.368 344.206 278.66C345.263 289.471 337.643 297.816 333.699 306.959L333.05 316.696Z" fill="#1D89C6"/>
<path d="M248.373 98.3236C241.642 99.8273 229.854 96.803 225.953 104.186C222.852 110.06 233.558 123.813 234.781 130.675C236.054 137.824 235.208 139.491 233.065 145.464C231.022 151.092 218.267 157.299 220.809 162.969C223.499 168.959 224.744 198.311 228.839 203.22C233.581 208.899 249.316 207.088 252.986 213.478C254.599 216.307 256.956 214.885 259.711 213.458C262.054 212.245 264.678 211.043 267.397 212.428C275.196 216.409 284.731 217.808 292.416 222.255C302.515 228.109 311.89 236.479 323.2 240.209C335.293 244.204 332.521 234.606 330.401 226.969C327.865 217.794 327.967 209.094 336.402 203.471C341.195 200.26 362.436 191.142 360.706 185.124C359.016 179.251 345.911 179.71 341.537 179.575C329.039 179.222 318.729 173.82 307.561 168.987C293.125 162.729 281.288 159.564 270.682 147.063C264.231 139.46 250.798 127.221 251.639 117.167C252.308 109.377 255.845 96.6562 248.373 98.3236Z" fill="#1D89C6"/>
<path d="M329.851 271.206C316.766 266.887 306.798 274.276 319.271 278.265C331.732 282.266 348.906 277.492 329.851 271.206Z" fill="#2195CE"/>
<path d="M329.851 316.613C331.224 322.436 333.028 331.726 342.887 339.485C352.747 347.249 331.991 355.128 325.955 339.485C319.923 323.849 318.854 315.846 325.955 305.221C333.051 294.596 327.303 305.861 329.851 316.613Z" fill="#2195CE"/>
<path d="M292.568 174.214C273.777 155.969 240.386 149.83 263.177 168.681C285.959 187.536 284.036 189.313 298.452 191.344C312.874 193.39 312.221 208.827 320.094 201.103C327.976 193.39 337.286 199.721 324.092 191.344C310.902 182.985 298.862 180.336 292.568 174.214Z" fill="#2195CE"/>
<path d="M59.0137 323.837C73.6662 321.459 75.4272 312.49 85.9735 304.032C95.833 296.11 111.816 299.219 122.08 290.363C127.839 285.415 126.261 280.162 129.575 274.449C134.995 265.164 129.15 268.177 141.366 268.894C163.245 270.18 169.041 271.501 176.815 250.759C181.579 238.049 191.835 234.136 193.875 220.789C196.75 202.017 190.313 182.669 185.993 164.912C184.443 158.533 181.531 152.386 184.546 145.759C187.658 138.973 199.401 136.423 200.689 130.25C203.835 115.272 183.041 106.044 167.505 99.0587C87.5294 134.488 31.8004 213.95 31.8004 306.298C31.8004 315.165 32.3304 323.908 33.322 332.498C33.8976 332.058 34.4533 331.627 35.0118 331.22C44.518 324.179 47.775 325.66 59.0137 323.837Z" fill="#45B64B"/>
<path d="M59.0144 323.837L59.0913 324.326C66.5145 323.132 70.7603 320.204 74.3878 316.561C78.0068 312.925 81.0615 308.594 86.2677 304.419C91.0777 300.559 97.4465 299.346 103.963 298.029C110.478 296.711 117.143 295.267 122.4 290.739C125.369 288.197 126.467 285.503 127.216 282.825C127.96 280.137 128.396 277.465 130.011 274.68C131.573 272.02 132.208 270.327 132.61 269.334C132.795 268.849 132.927 268.547 133.029 268.434C133.129 268.355 133.075 268.366 133.297 268.347C133.622 268.338 134.357 268.51 135.617 268.742C136.879 268.962 138.688 269.227 141.333 269.388C146.641 269.687 151.016 270.008 154.72 270.008C160.476 270.02 164.679 269.241 168.173 266.409C171.635 263.587 174.316 258.819 177.277 250.943C179.625 244.677 183.333 240.577 186.758 236.329C190.183 232.083 193.332 227.662 194.357 220.871C194.859 217.61 195.081 214.326 195.081 211.033C195.081 195.274 190.04 179.47 186.476 164.796C185.398 160.395 183.717 156.166 183.717 151.915C183.717 149.954 184.068 147.987 184.997 145.979C186.447 142.771 190.066 140.452 193.565 138.184C195.312 137.064 197.01 135.949 198.392 134.688C199.757 133.45 200.815 132.053 201.168 130.36C201.393 129.305 201.504 128.27 201.504 127.265C201.484 120.387 196.574 114.858 189.966 110.245C183.344 105.621 174.946 101.88 167.703 98.6272H167.304C87.1653 134.118 31.2995 213.747 31.2995 306.298C31.2995 315.185 31.8352 323.942 32.8383 332.558L33.1346 332.953L33.6276 332.894C34.1918 332.448 34.7503 332.025 35.3088 331.621C40.022 328.131 43.1224 326.788 46.4649 326.055C49.8074 325.333 53.4435 325.242 59.0942 324.331L59.0144 323.837L58.9346 323.355C53.3352 324.269 49.7334 324.345 46.254 325.096C42.7719 325.846 39.4949 327.282 34.7104 330.831C34.1576 331.243 33.5991 331.672 33.0235 332.121L33.3198 332.496L33.8128 332.439C32.8183 323.866 32.2798 315.142 32.2798 306.292C32.2798 214.134 87.9033 134.852 167.708 99.5018L167.506 99.0617L167.301 99.4933C174.542 102.755 182.888 106.493 189.405 111.032C195.93 115.571 200.535 120.887 200.524 127.26C200.524 128.205 200.424 129.161 200.211 130.163C199.914 131.562 199.011 132.804 197.731 133.966C195.788 135.729 193.015 137.312 190.397 139.095C187.801 140.881 185.339 142.87 184.108 145.558C183.119 147.719 182.748 149.841 182.748 151.909C182.748 156.409 184.472 160.7 185.524 165.019C189.1 179.726 194.104 195.491 194.104 211.028C194.104 214.272 193.89 217.5 193.397 220.724C192.388 227.281 189.388 231.49 185.988 235.711C182.592 239.94 178.768 244.143 176.351 250.598C173.419 258.416 170.783 263.026 167.543 265.652C164.32 268.279 160.422 269.021 154.723 269.032C151.075 269.032 146.71 268.725 141.393 268.406C138.794 268.251 137.03 267.994 135.785 267.774C134.539 267.56 133.87 267.365 133.297 267.365C132.907 267.348 132.479 267.512 132.257 267.828C131.904 268.285 131.755 268.846 131.342 269.848C130.929 270.835 130.311 272.232 129.157 274.192C127.441 277.143 127.005 279.962 126.259 282.557C125.523 285.178 124.54 287.599 121.756 290.002C116.747 294.322 110.275 295.755 103.775 297.072C97.267 298.396 90.7244 299.589 85.655 303.657C80.3263 307.929 77.2288 312.318 73.6811 315.867C70.1249 319.422 66.1611 322.17 58.9318 323.349L59.0144 323.837Z" fill="#16763B"/>
<path d="M165.649 127.566C159.123 124.948 141.504 135.579 135.38 139.139C123.079 146.296 113.1 157.852 103.853 168.531C89.7246 184.843 75.4198 208.911 70.4729 230.567C66.3525 248.572 59.7985 270.185 60.6049 288.732C60.9269 296.36 64.5316 299.695 72.4221 299.797C81.1218 299.921 87.3395 293.601 94.8396 291.296C102.727 288.881 110.561 292.188 116.431 285.499C127.618 272.775 123.238 259.199 144.485 261.307C153.11 262.17 156.271 262.644 163.007 257.537C171.157 251.365 173.348 244.312 177.879 235.371C180.273 230.668 182.891 225.226 184.023 220.007C185.741 212.04 182.028 203.903 180.589 195.956C179.056 187.481 177.135 179.556 175.482 171.129C174.334 165.317 171.493 158.239 173.357 152.272C175.252 146.223 191.466 133.477 178.13 130.167L165.649 127.566Z" fill="#64BC4D"/>
<path d="M153.842 143.811C129.937 158.149 118.456 177.029 109.246 202.188C106.057 210.912 101.031 220.698 99.9535 229.577C99.0388 237.143 104.245 245.037 102.555 252.271C100.418 261.341 80.0351 273.134 82.9302 282.901C84.7653 289.085 97.691 287.119 102.629 285.364C109.813 282.825 114.028 275.032 117.091 268.656C121.989 258.5 127.19 258.534 138.226 256.92C149.878 255.21 154.873 250.838 159.866 240.427C167.44 224.614 174.239 210.892 168.779 193.163C165.454 182.42 160.775 171.945 162.524 160.203C163.217 155.472 172.102 143.258 161.054 145.758L153.842 143.811Z" fill="#80C34D"/>
<path d="M283.153 80.4375C284.416 86.6583 284.698 92.5434 281.857 101.317C276.859 116.719 280.956 114.208 292.346 124.976C299.476 131.702 304.269 146.076 313.028 151.287C322.788 157.076 336.574 153.448 347.599 158.408C363.528 165.568 362.442 168.528 379.984 163.966C387.077 162.109 404.197 160.543 410.871 166.209C424.423 177.756 400.057 179.477 394.757 184.704C391.425 188.002 390.246 194.615 386.561 198.636C380.378 205.395 375.867 204.896 366.925 209.139C364.198 210.44 360.938 211.072 358.088 212.336C350.169 237.092 380.708 260.923 372.501 289.753C370.19 297.833 360.966 302.211 363.183 312.185C366.486 327.016 380.349 324.711 390.439 322.186C395.629 320.885 402.393 317.551 408.013 318.482C415.031 319.647 419.391 326.076 426.253 326.505C428.407 326.635 430.365 325.591 432.496 324.527C434.522 323.529 436.705 322.53 439.387 322.547C446.072 322.595 451.332 325.935 456.53 330.065C464.608 336.47 465.771 344.871 473.502 351.112C477.149 354.049 480.862 355.42 484.686 355.973C488.299 339.982 490.209 323.362 490.209 306.299C490.209 188.372 399.339 91.4629 283.153 80.4375Z" fill="#45B64B"/>
<path d="M283.151 80.4383L282.669 80.5398C283.219 83.2313 283.57 85.8381 283.57 88.6452C283.57 92.2733 282.974 96.2625 281.381 101.174C279.968 105.55 279.264 108.498 279.256 110.795C279.244 113.715 280.489 115.546 282.652 117.439C284.815 119.363 287.941 121.49 292.007 125.324C295.478 128.602 298.459 133.858 301.653 138.962C304.845 144.057 308.261 149.017 312.772 151.708C317.785 154.676 323.746 155.209 329.798 155.647C335.854 156.07 341.986 156.411 347.389 158.849C352.737 161.258 356.151 163.176 359.049 164.522C361.939 165.871 364.332 166.632 367.498 166.632C370.593 166.627 374.36 165.938 380.116 164.429C383.436 163.554 389.072 162.745 394.746 162.745C400.972 162.731 407.25 163.749 410.544 166.576C413.396 168.994 414.442 170.918 414.422 172.379C414.433 173.708 413.57 174.876 412.068 175.965C409.811 177.599 406.21 178.922 402.804 180.188C399.368 181.475 396.119 182.685 394.412 184.355C392.648 186.11 391.514 188.627 390.335 191.205C389.166 193.764 387.958 196.377 386.194 198.315C383.142 201.644 380.561 203.153 377.594 204.386C374.614 205.622 371.225 206.561 366.706 208.7C364.067 209.961 360.81 210.601 357.884 211.913L357.624 212.204C356.678 215.146 356.277 218.058 356.277 220.978C356.277 230.522 360.611 239.934 364.882 249.577C369.171 259.225 373.422 269.114 373.422 279.546C373.422 282.844 373.006 286.19 372.032 289.627C371.04 293.105 368.669 295.927 366.501 298.914C364.327 301.896 362.349 305.059 362.349 309.2C362.349 310.168 362.463 311.203 362.702 312.29C363.76 317.035 365.897 320.13 368.672 322.014C371.45 323.888 374.827 324.531 378.301 324.531C382.45 324.531 386.775 323.62 390.554 322.672C395.204 321.501 400.969 318.81 405.953 318.81C406.64 318.81 407.292 318.86 407.934 318.965C411.31 319.526 414.091 321.363 416.927 323.185C419.754 324.988 422.64 326.768 426.228 326.994L426.638 327.011C428.818 327 430.73 325.956 432.716 324.965C434.711 323.984 436.805 323.036 439.339 323.047H439.381H439.393C445.893 323.075 451.062 326.339 456.234 330.444C460.197 333.587 462.469 337.224 464.734 340.905C466.988 344.581 469.253 348.311 473.2 351.491C476.913 354.487 480.731 355.9 484.618 356.462C484.878 356.512 485.111 356.346 485.174 356.084C488.796 340.053 490.705 323.405 490.705 306.3C490.705 188.127 399.641 91.0094 283.208 79.953L282.789 80.1138L282.678 80.5455L283.151 80.4383L283.105 80.9263C399.04 91.9348 489.716 188.627 489.716 306.297C489.716 323.335 487.801 339.915 484.199 355.872L484.681 355.971L484.758 355.502C481.005 354.952 477.389 353.607 473.813 350.735C470.014 347.682 467.826 344.082 465.56 340.392C463.303 336.713 460.955 332.938 456.832 329.677C451.626 325.544 446.243 322.105 439.39 322.071L439.381 322.548L439.41 322.071H439.33C436.535 322.071 434.286 323.106 432.263 324.091C430.249 325.09 428.465 326.038 426.63 326.021H426.285C423.011 325.817 420.278 324.167 417.445 322.367C414.636 320.564 411.726 318.615 408.082 318.008C407.386 317.887 406.671 317.831 405.945 317.831C400.636 317.853 394.814 320.601 390.303 321.715C386.553 322.669 382.285 323.555 378.292 323.555C374.927 323.555 371.784 322.923 369.222 321.191C366.677 319.478 364.68 316.64 363.66 312.084C363.426 311.057 363.326 310.1 363.326 309.198C363.326 305.386 365.147 302.441 367.29 299.487C369.436 296.544 371.895 293.624 372.972 289.895C373.975 286.363 374.403 282.929 374.403 279.546C374.403 268.84 370.074 258.839 365.788 249.179C361.503 239.519 357.251 230.229 357.251 220.978C357.251 218.159 357.647 215.33 358.556 212.5L358.086 212.336L358.288 212.793C361.064 211.555 364.321 210.903 367.133 209.58C371.573 207.478 374.896 206.55 377.959 205.283C381.011 204.014 383.778 202.397 386.918 198.969C388.83 196.876 390.055 194.165 391.232 191.598C392.403 189.025 393.529 186.601 395.105 185.049C396.051 184.11 397.786 183.218 399.855 182.372C402.958 181.097 406.771 179.881 409.854 178.386C411.399 177.627 412.764 176.814 413.755 175.841C414.758 174.873 415.417 173.714 415.417 172.385C415.399 170.452 414.106 168.339 411.193 165.854C407.509 162.736 401.066 161.783 394.746 161.774C388.973 161.774 383.288 162.607 379.86 163.492C374.138 164.982 370.419 165.662 367.498 165.662C364.5 165.662 362.312 164.962 359.46 163.642C356.63 162.316 353.173 160.381 347.802 157.96C342.174 155.432 335.908 155.111 329.867 154.679C323.831 154.242 318.021 153.694 313.285 150.87C309.036 148.354 305.665 143.529 302.488 138.448C299.308 133.376 296.327 128.063 292.688 124.627C288.577 120.748 285.402 118.567 283.316 116.714C281.225 114.849 280.27 113.441 280.253 110.795C280.244 108.701 280.911 105.801 282.33 101.462C283.94 96.4741 284.559 92.3862 284.559 88.6452C284.559 85.7563 284.197 83.0761 283.641 80.3452L283.151 80.4383Z" fill="#16763B"/>
<path d="M295.259 81.9187C292.27 83.3124 290.238 85.7217 290.366 89.8746C290.46 92.7522 293.418 95.0374 293.672 98.3383C293.951 101.851 291.854 104.689 291.694 108.071C291.232 118.014 303.195 125.405 310.287 131.008C318.474 137.48 323.626 144.542 334.936 146.322C345.423 147.966 357.539 146.641 367.872 145.083C376.161 143.833 390.699 142.129 399.257 144.423C409.133 147.064 416.551 159.937 419.01 168.674C419.588 170.72 422.372 175.423 422.344 177.437C422.25 182.848 416.739 184.854 411.855 188.062C400.502 195.541 394.828 200.357 394.754 214.406C394.692 227.83 381.638 232.598 389.611 248.447C393.008 255.165 397.615 260.725 400.009 268.021C402.3 274.992 402.784 282.099 410.581 284.867C416.055 286.808 421.253 286.116 426.444 285.422C432.192 284.649 437.914 283.896 443.998 286.689C450.831 289.801 457.282 292.157 461.263 298.527C462.87 301.097 462.945 303.899 465.814 306.173C468.151 308.018 471.596 307.947 473.536 309.524C477.204 312.495 478.398 319.726 484.51 316.594C486.191 315.711 488.269 312.726 490.172 309.535C490.181 308.449 490.209 307.386 490.209 306.302C490.209 192.5 405.594 98.2959 295.259 81.9187Z" fill="#64BC4D"/>
<path d="M344.211 99.7838C338.503 95.7833 329.598 91.8166 322.563 89.9123C318.286 88.7358 307.377 85.8497 302.844 87.0882C295.506 89.0941 301.684 94.5927 302.764 98.6581C303.867 102.814 301.063 106.893 301.476 110.846C301.918 115.016 304.736 116.737 307.83 119.69C314.327 125.872 322.434 134.07 332.246 135.015C342.253 135.997 353.176 130.247 363.5 130.008C377.129 129.7 388.49 138.274 400.333 143.657C404.001 145.313 407.634 146.811 410.908 149.031C412.894 150.377 413.823 152.583 416.516 152.352C421.528 139.385 396.364 129.672 388.188 124.249C382.495 120.492 376.972 116.282 371.199 112.942C364.979 109.345 358.359 107.421 352.577 102.712L344.211 99.7838Z" fill="#80C34D"/>
<path d="M435.784 169.978C429.535 163.65 418.442 158.995 424.494 172.353C427.634 179.274 430.39 186.826 424.335 192.801C422.081 195.002 419.1 196.009 417.111 198.294C413.503 202.461 414.774 207.909 413.66 212.908C412.651 217.479 410.993 220.159 407.608 222.989C404.325 225.731 401.891 226.859 402.279 231.952C402.541 235.224 404.1 235.859 405.291 238.514C406.317 240.785 407.229 243.917 408.499 246.563C410.819 251.41 413.626 255.498 415.016 260.708C415.507 262.565 415.481 264.698 416.279 266.464C421.998 278.959 430.586 272.354 440.323 272.321C445.689 272.315 451.933 272.727 456.529 275.227C460.347 277.306 463.941 282.725 468.073 283.701C476.687 285.73 479.009 272.882 479.63 266.828C480.596 257.396 475.98 248.487 472.732 239.792C469.759 231.813 466.029 224.021 462.983 216.218C457.489 202.148 452.081 189.597 444.162 177.285L435.784 169.978Z" fill="#80C34D"/>
<path d="M376.709 262.592C374.481 266.406 380.4 280.219 380.152 285.994C379.901 291.659 374.963 298.077 377.16 304.118C381.357 315.614 389.205 314.023 397.434 312.435C402.39 311.478 407.488 310.519 412.027 312.423C414.933 313.639 416.66 315.704 420.02 316.235C424.593 316.946 430.15 316.449 434.772 316.235C443.173 315.848 454.143 313.188 442.05 305.909C425.616 296.049 403.672 302.515 394.419 282.682C391.131 275.626 388.264 269.645 383.679 263.594C381.118 260.222 377.376 250.046 372.352 251.076C371.586 253.031 371.46 255.48 372.76 257.232L376.709 262.592Z" fill="#64BC4D"/>
<path d="M399.348 296.064C391.421 291.903 385.385 272.597 384.978 283.676C384.573 294.763 381.71 304.477 390.287 305.222C398.855 305.975 418.543 306.153 399.348 296.064Z" fill="#80C34D"/>
<path d="M231.949 329.053C223.662 329.835 216.772 335.522 208.677 336.871C202.727 337.872 195.93 336.529 190.137 337.333C189.359 353.682 186.399 361.325 179.694 375.795C171.917 392.576 182.033 394.421 187.382 409.351C188.832 413.405 186.35 424.665 188.832 427.57C193.961 433.622 209.42 429.85 216.137 430.437C228.071 431.489 234.038 432.987 240.156 443.115C243.943 449.387 242.29 457.535 249.029 461.755C265.924 472.301 278.457 455.083 289.661 448.309C307.736 437.4 325.429 458.045 327.794 432.967C328.717 423.214 328.27 423.733 333.402 414.827C337.611 407.537 342.327 398.235 339.717 388.897C335.696 374.607 319.194 373.761 311.942 362.465C307.403 355.384 309.984 352.153 308.135 344.64C305.622 334.391 298.908 325.845 294.682 316.338C290.468 306.881 289.114 290.351 279.229 286.083C252.993 274.781 244.769 306.119 237.215 321.244L231.949 329.053Z" fill="#45B64B"/>
<path d="M231.95 329.052L231.902 328.567C223.41 329.388 216.5 335.095 208.595 336.39C206.868 336.683 205.036 336.771 203.192 336.771C200.397 336.782 197.519 336.579 194.732 336.579C193.145 336.579 191.586 336.641 190.073 336.841C189.828 336.884 189.662 337.064 189.648 337.313C188.859 353.605 185.944 361.127 179.25 375.591C177.21 379.995 176.372 383.42 176.372 386.348C176.364 390.521 178.082 393.63 180.216 396.996C182.37 400.356 184.969 404.043 186.921 409.513C187.275 410.47 187.386 412.016 187.386 413.771C187.386 416.169 187.181 418.996 187.181 421.523C187.189 424.206 187.357 426.542 188.463 427.885C191.042 430.884 195.752 431.536 200.679 431.542C205.597 431.542 210.815 430.853 214.422 430.853C215.038 430.853 215.582 430.876 216.087 430.924C222.045 431.443 226.465 432.086 230.115 433.81C233.76 435.531 236.706 438.344 239.741 443.363C241.57 446.387 242.109 449.944 243.015 453.327C243.915 456.704 245.243 459.968 248.771 462.166C252.629 464.581 256.305 465.583 259.79 465.583C265.814 465.566 271.2 462.626 276.147 459.063C281.082 455.511 285.645 451.313 289.922 448.731C294.321 446.074 298.684 445.326 302.842 445.326C308.19 445.32 313.166 446.582 317.363 446.587C320.176 446.587 322.72 445.983 324.632 443.927C326.536 441.873 327.77 438.485 328.283 433.014C328.747 428.134 328.864 425.84 329.497 423.718C330.121 421.602 331.272 419.532 333.831 415.074C337.202 409.223 340.952 402.034 340.952 394.482C340.952 392.583 340.721 390.679 340.185 388.783C338.125 381.437 332.833 377.569 327.297 374.147C321.743 370.719 315.887 367.717 312.359 362.207C310.131 358.729 309.681 356.277 309.515 353.687C309.37 351.1 309.558 348.346 308.621 344.524C306.05 334.15 299.32 325.588 295.131 316.148C293.059 311.49 291.66 304.987 289.554 299.102C287.437 293.222 284.587 287.873 279.427 285.642C275.5 283.949 271.955 283.187 268.732 283.187C264.079 283.187 260.118 284.787 256.758 287.349C246.668 295.051 241.59 311.411 236.772 321.023L237.216 321.243L236.8 320.98L231.554 328.764L231.95 329.052L232.366 329.317L237.609 321.516L237.649 321.457C240.892 314.966 244.226 305.605 248.993 297.886C251.387 294.018 254.117 290.585 257.357 288.116C260.588 285.664 264.301 284.172 268.729 284.161C271.79 284.161 275.201 284.888 279.031 286.536C283.747 288.567 286.534 293.612 288.622 299.432C290.708 305.238 292.093 311.724 294.225 316.537C298.499 326.121 305.175 334.641 307.652 344.758C308.569 348.451 308.387 351.069 308.535 353.749C308.692 356.412 309.213 359.129 311.533 362.718C315.249 368.521 321.273 371.582 326.787 374.982C332.309 378.39 337.279 382.08 339.233 389.043C339.744 390.857 339.977 392.671 339.977 394.485C339.977 401.716 336.341 408.783 332.982 414.597C330.417 419.049 329.22 421.159 328.55 423.447C327.881 425.733 327.77 428.069 327.305 432.93C326.792 438.296 325.578 441.475 323.908 443.267C322.236 445.069 320.064 445.608 317.363 445.62C313.357 445.62 308.33 444.37 302.842 444.364C298.564 444.353 293.988 445.134 289.414 447.908C285 450.574 280.453 454.766 275.563 458.284C270.67 461.805 265.47 464.615 259.79 464.609C256.496 464.609 253.023 463.67 249.293 461.348C246.07 459.331 244.861 456.411 243.972 453.093C243.072 449.772 242.545 446.116 240.584 442.872C237.504 437.754 234.392 434.755 230.545 432.938C226.69 431.118 222.162 430.475 216.183 429.962C215.648 429.911 215.058 429.886 214.425 429.886C210.712 429.897 205.517 430.585 200.682 430.585C195.815 430.602 191.386 429.86 189.215 427.267C188.437 426.396 188.149 424.153 188.158 421.532C188.158 419.052 188.374 416.231 188.374 413.779C188.374 411.976 188.272 410.38 187.844 409.2C185.847 403.609 183.191 399.828 181.057 396.482C178.931 393.125 177.361 390.261 177.361 386.357C177.361 383.62 178.139 380.328 180.145 376.011C186.85 361.536 189.848 353.763 190.637 337.355L190.144 337.341L190.218 337.826C191.654 337.623 193.182 337.558 194.738 337.558C197.479 337.558 200.36 337.75 203.198 337.75C205.081 337.75 206.954 337.671 208.766 337.352C217.027 335.958 223.906 330.274 231.999 329.543L232.372 329.32L231.95 329.052Z" fill="#16763B"/>
<path d="M386.877 433.032C388.544 433.531 384.244 418.147 384.255 411.001C384.255 399.885 394.745 396.869 393.175 387.534C391.525 377.699 379.414 377.383 373.755 374.542C368.338 371.802 362.134 366.253 355.569 366.936C353.731 379.685 363.294 391.799 363.246 405.742C363.18 424.514 371.133 423.919 385.563 433.037H386.877V433.032Z" fill="#45B64B"/>
<path d="M386.732 433.493L386.946 433.533C387.131 433.544 387.333 433.44 387.456 433.318C387.616 433.138 387.658 432.954 387.707 432.757C387.735 432.565 387.755 432.365 387.755 432.128C387.755 430.336 386.983 426.584 386.245 422.457C385.49 418.369 384.74 413.928 384.749 410.999H384.284L384.729 411.112L384.749 410.999H384.284L384.729 411.112L384.749 410.999C384.749 405.978 386.932 402.685 389.197 399.576C391.44 396.479 393.825 393.57 393.825 389.397C393.825 388.782 393.776 388.131 393.657 387.456C392.805 382.333 389.166 379.642 385.156 377.969C381.156 376.281 376.699 375.475 373.977 374.106C368.945 371.595 363.118 366.421 356.695 366.396C356.302 366.396 355.917 366.413 355.518 366.458C355.296 366.481 355.116 366.65 355.082 366.87C354.922 368.007 354.843 369.152 354.843 370.281C354.851 376.155 356.852 381.873 358.821 387.676C360.81 393.497 362.762 399.401 362.762 405.628V405.749L363.252 405.738L362.762 405.732V405.949C362.762 410.624 363.252 414.12 364.255 416.896C365.748 421.068 368.372 423.546 371.923 425.771C375.468 428.014 379.942 430.054 385.31 433.442C385.532 433.583 385.837 433.519 385.986 433.287C386.134 433.059 386.057 432.762 385.835 432.621C378.605 428.062 373.017 425.907 369.338 422.677C367.5 421.068 366.127 419.195 365.184 416.571C364.232 413.948 363.733 410.565 363.742 405.949V405.738V405.732V405.628C363.733 399.201 361.739 393.181 359.764 387.372C357.775 381.554 355.826 375.915 355.834 370.278C355.834 369.18 355.897 368.091 356.057 366.994L355.572 366.932L355.623 367.42C355.985 367.386 356.336 367.364 356.698 367.364C362.568 367.335 368.355 372.335 373.536 374.964C376.479 376.434 380.908 377.215 384.777 378.871C388.667 380.516 391.89 382.914 392.696 387.612C392.799 388.249 392.842 388.836 392.842 389.397C392.842 393.155 390.69 395.864 388.399 399.012C386.122 402.124 383.763 405.67 383.763 410.999H384.259L383.771 410.895L383.754 410.999C383.763 414.08 384.518 418.521 385.265 422.637C386.028 426.736 386.769 430.553 386.769 432.125C386.769 432.39 386.741 432.582 386.712 432.655V432.681L386.889 432.777L386.769 432.61L386.712 432.681L386.889 432.774L386.769 432.607L386.949 432.853V432.548L386.769 432.607L386.949 432.853V432.548V432.779L387.023 432.559L386.949 432.548V432.779L387.023 432.559C386.749 432.483 386.484 432.636 386.407 432.889C386.328 433.152 386.476 433.42 386.732 433.493Z" fill="#16763B"/>
<path d="M257.058 307.433C248.982 309.848 248.686 327.96 243.776 334.034C241.26 337.143 237.669 337.863 233.953 339.364C229.702 341.068 228.123 342.546 225.006 345.429C221.016 349.114 217.631 351.743 212.206 351.266C207.886 350.897 203.284 347.241 199.536 346.888C198.468 346.784 197.53 345.393 196.128 346.016C191.7 348.011 193.287 364.092 192.977 367.528C192.41 373.98 190.725 381.832 192.056 388.346C192.575 390.93 194.755 392.581 195.63 394.699C199.724 404.548 194.245 419.566 208.307 417.489C223.595 415.221 235.954 406.602 250.213 417.627C255.696 421.854 256.747 422.968 258.622 429.113C261.21 437.602 267.265 437.105 275.209 438.059C280.806 438.722 282.524 438.471 287.631 435.254C293.088 431.815 297.282 432.253 303.836 431.341C317.158 429.482 323.8 422.277 326.701 409.683C328.542 401.73 332.754 389.548 326.71 382.935C321.94 377.696 314.505 374.965 309.359 369.841C304.338 364.845 303.309 359.282 301.388 352.765C298.881 344.267 295.695 336.063 292.13 327.915C288.734 320.177 283.49 296.199 272.99 296.058C269.163 296.016 263.783 300.769 261.002 303.046L257.058 307.433Z" fill="#64BC4D"/>
<path d="M257.549 321.09C251.329 327.272 251.822 335.456 247.211 342.441C244.498 346.569 241.657 346.261 237.323 348.166C232.997 350.061 229.293 352.936 226.161 356.635C222.662 360.774 220.425 365.513 215.461 367.412C212.167 368.667 208.944 367.697 206.251 370.278C201.749 374.589 202.131 389.759 203.39 396.039C204.496 401.571 207.038 407.014 212.854 407.843C225.811 409.708 238.491 402.635 251.542 406.362C261.616 409.248 268.096 418.098 278.454 420.019C285.062 421.255 292.907 421.656 299.429 419.571C307.146 417.108 312.036 410.568 315.165 403.244C318.063 396.479 314.774 389.502 311.731 383.445C308.927 377.848 303.692 374.234 300.358 369.344C297.295 364.847 294.725 356.412 292.579 351.102C287.911 339.493 288.208 323.894 281.802 313.179C279.035 308.555 277.114 303.869 271.233 305.593C267.816 306.572 263.043 309.393 260.997 312.311L257.549 321.09Z" fill="#80C34D"/>
<path d="M381.618 383.964C371.528 379.069 364.398 372.755 366.364 383.964C368.333 395.173 367.533 410.297 374.338 418.081C381.134 425.887 382.117 425.887 381.618 416.143C381.134 406.39 383.596 401.997 387.038 396.149C390.495 390.306 388.118 387.11 381.618 383.964Z" fill="#64BC4D"/>
<path d="M163.764 487.897C167.238 471.103 163.596 469.503 147.892 465.883C135.741 463.079 130.153 459.344 117.744 465.855C112.443 468.631 108.85 471.069 105.533 473.029C122.16 488.233 141.062 501.039 161.667 510.868C161.231 504.015 161.861 497.066 163.764 487.897Z" fill="#45B64B"/>
<path d="M163.764 487.898L164.248 487.997C165.026 484.18 165.465 481.127 165.465 478.624C165.482 474.367 164.154 471.628 161.259 469.76C158.381 467.907 154.09 466.809 148.012 465.404C140.853 463.757 135.955 461.756 130.458 461.756C126.654 461.756 122.622 462.733 117.498 465.427C112.19 468.22 108.579 470.643 105.282 472.61L105.043 472.982L105.203 473.385C121.864 488.629 140.799 501.462 161.464 511.311L161.946 511.275L162.163 510.837C162.077 509.475 162.029 508.115 162.029 506.727C162.029 501.172 162.724 495.292 164.248 487.997L163.764 487.898L163.282 487.805C161.758 495.146 161.043 501.098 161.043 506.727C161.043 508.132 161.094 509.52 161.185 510.894L161.667 510.868L161.88 510.428C141.318 500.619 122.454 487.841 105.869 472.666L105.533 473.03L105.787 473.442C109.126 471.47 112.703 469.052 117.963 466.284C122.995 463.644 126.839 462.73 130.458 462.718C135.684 462.718 140.557 464.685 147.781 466.358C153.85 467.743 158.085 468.86 160.721 470.576C163.319 472.299 164.454 474.534 164.471 478.622C164.471 481.008 164.063 484.016 163.282 487.805L163.764 487.898Z" fill="#16763B"/>
<path d="M135.249 467.317C120.892 464.248 112.173 472.198 122.588 479.505C133.003 486.823 154.586 501.615 158.601 486.563C162.604 471.498 149.451 470.358 135.249 467.317Z" fill="#64BC4D"/>
<path d="M143.823 473.168C127.823 469.464 124.762 472.897 136.26 479.851C147.761 486.823 165.844 478.266 143.823 473.168Z" fill="#80C34D"/>
</svg>
