<svg width="904" height="904" viewBox="0 0 904 904" fill="none" xmlns="http://www.w3.org/2000/svg">
<g clip-path="url(#clip0_828_2)">
<path d="M904 452C904 595.23 837.38 722.9 733.43 805.71C656.22 867.24 558.4 904 452 904C345.6 904 247.78 867.24 170.57 805.71C66.62 722.9 0 595.23 0 452C0 202.37 202.37 0 452 0C701.63 0 904 202.37 904 452Z" fill="#CED5D8"/>
<path d="M452 541C556.934 541 642 455.934 642 351C642 246.066 556.934 161 452 161C347.066 161 262 246.066 262 351C262 455.934 347.066 541 452 541Z" fill="#0063A7"/>
<path d="M733.43 805.71C656.22 867.24 558.4 904 452 904C345.6 904 247.78 867.24 170.57 805.71C207.12 684.93 319.29 597 452 597C584.71 597 696.88 684.93 733.43 805.71Z" fill="#0063A7"/>
</g>
<defs>
<clipPath id="clip0_828_2">
<rect width="904" height="904" fill="white"/>
</clipPath>
</defs>
</svg>
