<svg width="29" height="27" viewBox="0 0 29 27" fill="none" xmlns="http://www.w3.org/2000/svg">
<path d="M14.4881 26.0803C22.4896 26.0803 28.9761 20.242 28.9761 13.0401C28.9761 5.83827 22.4896 0 14.4881 0C6.48653 0 0 5.83827 0 13.0401C0 20.242 6.48653 26.0803 14.4881 26.0803Z" fill="#0063A7"/>
<path d="M14.4885 6.30989C16.9247 6.30989 17.2123 6.31762 18.1738 6.35819C19.0624 6.39489 19.5454 6.52819 19.8673 6.64024C20.2923 6.789 20.5971 6.96673 20.9169 7.25458C21.2367 7.54242 21.4342 7.81482 21.5995 8.19926C21.724 8.48904 21.872 8.92371 21.9128 9.72351C21.9558 10.589 21.9665 10.8498 21.9665 13.0405C21.9665 15.2313 21.9579 15.4921 21.9128 16.3576C21.872 17.1574 21.724 17.592 21.5995 17.8818C21.4342 18.2643 21.2367 18.5386 20.9169 18.8265C20.5971 19.1143 20.2945 19.2921 19.8673 19.4408C19.5454 19.5529 19.0624 19.6862 18.1738 19.7229C17.2123 19.7615 16.9247 19.7712 14.4885 19.7712C12.0524 19.7712 11.7648 19.7635 10.8032 19.7229C9.91458 19.6862 9.43164 19.5529 9.10968 19.4408C8.6847 19.2921 8.37992 19.1143 8.06011 18.8265C7.7403 18.5386 7.54283 18.2663 7.37756 17.8818C7.25307 17.592 7.10497 17.1574 7.06419 16.3576C7.02126 15.4921 7.01053 15.2313 7.01053 13.0405C7.01053 10.8498 7.01911 10.589 7.06419 9.72351C7.10497 8.92371 7.25307 8.48904 7.37756 8.19926C7.54283 7.81675 7.7403 7.54242 8.06011 7.25458C8.37992 6.96673 8.68255 6.789 9.10968 6.64024C9.43164 6.52819 9.91458 6.39489 10.8032 6.35819C11.7648 6.31955 12.0545 6.30989 14.4885 6.30989ZM14.4885 4.83008C12.0116 4.83008 11.7004 4.83974 10.7281 4.88031C9.75789 4.92088 9.09466 5.05804 8.51299 5.26282C7.91415 5.47339 7.40546 5.75351 6.89677 6.20943C6.39022 6.66536 6.07685 7.12321 5.84504 7.66413C5.61967 8.18574 5.46513 8.78269 5.42006 9.65783C5.37499 10.533 5.36426 10.8131 5.36426 13.0425C5.36426 15.2718 5.37499 15.552 5.42006 16.4271C5.46513 17.3003 5.61753 17.8973 5.84504 18.4208C6.079 18.9598 6.39022 19.4176 6.89677 19.8755C7.40331 20.3314 7.91201 20.6135 8.51299 20.8221C9.09251 21.025 9.75575 21.1641 10.7281 21.2046C11.7004 21.2452 12.0116 21.2549 14.4885 21.2549C16.9654 21.2549 17.2767 21.2452 18.249 21.2046C19.2191 21.1641 19.8824 21.0269 20.464 20.8221C21.0629 20.6115 21.5716 20.3314 22.0803 19.8755C22.5868 19.4196 22.9002 18.9617 23.132 18.4208C23.3573 17.8992 23.5119 17.3022 23.557 16.4271C23.602 15.552 23.6128 15.2718 23.6128 13.0425C23.6128 10.8131 23.602 10.533 23.557 9.65783C23.5119 8.78462 23.3595 8.18767 23.132 7.66413C22.898 7.12514 22.5868 6.66729 22.0803 6.20943C21.5737 5.75351 21.065 5.47146 20.464 5.26282C19.8845 5.05997 19.2213 4.92088 18.249 4.88031C17.2767 4.83974 16.9654 4.83008 14.4885 4.83008Z" fill="#EEE2DA"/>
<path d="M14.4886 8.8252C11.9022 8.8252 9.80518 10.7126 9.80518 13.0405C9.80518 15.3685 11.9022 17.2559 14.4886 17.2559C17.075 17.2559 19.172 15.3685 19.172 13.0405C19.172 10.7126 17.075 8.8252 14.4886 8.8252ZM14.4886 15.778C12.8101 15.778 11.4472 14.5532 11.4472 13.0405C11.4472 11.5279 12.808 10.3031 14.4886 10.3031C16.1692 10.3031 17.53 11.5279 17.53 13.0405C17.53 14.5532 16.1692 15.778 14.4886 15.778Z" fill="#EEE2DA"/>
<path d="M19.3588 9.64353C19.9634 9.64353 20.4535 9.2026 20.4535 8.65868C20.4535 8.11476 19.9634 7.67383 19.3588 7.67383C18.7543 7.67383 18.2642 8.11476 18.2642 8.65868C18.2642 9.2026 18.7543 9.64353 19.3588 9.64353Z" fill="#EEE2DA"/>
</svg>
