<svg width="31" height="25" viewBox="0 0 31 25" fill="none" xmlns="http://www.w3.org/2000/svg">
<path d="M17.4947 22.615L18.5832 24.3267C26.1147 19.1491 30.2988 12.8583 30.2988 7.68075C30.2988 2.67438 26.6998 0.320459 23.6457 0.320459C19.7963 0.320459 17.0769 3.65895 17.0769 7.16725C17.0769 10.1196 18.9179 12.6447 21.3869 13.5868C22.0979 13.8442 22.7674 14.0579 22.7674 15.2985C22.7674 16.8815 21.6373 19.234 17.4947 22.615ZM0.88394 22.615L1.97249 24.3267C9.42094 19.1491 13.6881 12.8583 13.6881 7.68075C13.6881 2.67439 10.006 0.32046 6.95196 0.32046C3.06103 0.320461 0.298827 3.65895 0.298827 7.16725C0.298828 10.1196 2.18136 12.6447 4.73469 13.5868C5.44566 13.8442 6.07362 14.0579 6.07362 15.2985C6.07362 16.8815 4.90206 19.2354 0.885278 22.6163L0.88394 22.615Z" fill="#0063A7"/>
</svg>
