<svg width="30" height="27" viewBox="0 0 30 27" fill="none" xmlns="http://www.w3.org/2000/svg">
<path d="M15.4221 26.0803C23.4237 26.0803 29.9102 20.242 29.9102 13.0401C29.9102 5.83827 23.4237 0 15.4221 0C7.4206 0 0.934082 5.83827 0.934082 13.0401C0.934082 20.242 7.4206 26.0803 15.4221 26.0803Z" fill="#0063A7"/>
<path d="M25.2481 11.7849C25.2481 7.80913 20.818 4.57324 15.3748 4.57324C9.93159 4.57324 5.50146 7.80913 5.50146 11.7849C5.50146 15.3492 9.01293 18.3359 13.7586 18.9C14.0805 18.9618 14.5184 19.0913 14.6279 19.3385C14.7266 19.5626 14.6923 19.9142 14.6601 20.1422C14.6601 20.1422 14.5442 20.7701 14.5184 20.9034C14.4755 21.1275 14.3209 21.7824 15.3727 21.3825C16.4265 20.9826 21.0584 18.3687 23.1297 16.2224C24.5613 14.8102 25.246 13.3768 25.246 11.7849" fill="#EEE2DA"/>
<path d="M13.3679 9.8623H12.6746C12.5694 9.8623 12.4814 9.93958 12.4814 10.0342V13.9057C12.4814 14.0004 12.5673 14.0777 12.6746 14.0777H13.3679C13.4731 14.0777 13.5611 14.0004 13.5611 13.9057V10.0342C13.5611 9.93958 13.4752 9.8623 13.3679 9.8623Z" fill="#0063A7"/>
<path d="M18.1349 9.8623H17.4417C17.3343 9.8623 17.2485 9.93958 17.2485 10.0342V12.3351L15.2759 9.93957C15.2759 9.93957 15.2652 9.92799 15.2609 9.92219C15.2566 9.91833 15.2523 9.91447 15.2502 9.9106C15.2502 9.9106 15.2481 9.90867 15.2459 9.90673C15.2416 9.9048 15.2395 9.90094 15.2352 9.89901C15.2352 9.89901 15.2309 9.89708 15.2309 9.89514C15.2266 9.89321 15.2244 9.89129 15.2201 9.88935C15.2201 9.88935 15.2159 9.88742 15.2137 9.88549C15.2094 9.88549 15.2073 9.88162 15.203 9.87968C15.203 9.87968 15.1987 9.87969 15.1965 9.87776C15.1922 9.87776 15.1901 9.8739 15.1858 9.8739C15.1837 9.8739 15.1815 9.87389 15.1794 9.87196C15.1751 9.87196 15.1729 9.87003 15.1686 9.86809C15.1665 9.86809 15.1643 9.86809 15.1622 9.86809C15.1579 9.86809 15.1558 9.8681 15.1515 9.86617C15.1493 9.86617 15.145 9.86617 15.1429 9.86617C15.1386 9.86617 15.1364 9.86617 15.1321 9.86617C15.1279 9.86617 15.1257 9.86617 15.1214 9.86617C15.1193 9.86617 15.1171 9.86617 15.115 9.86617H14.4217C14.3165 9.86617 14.2285 9.94344 14.2285 10.0381V13.9096C14.2285 14.0042 14.3144 14.0815 14.4217 14.0815H15.115C15.2223 14.0815 15.3082 14.0042 15.3082 13.9096V11.6106L17.2828 14.01C17.2957 14.0274 17.3129 14.0409 17.3322 14.0525C17.3365 14.0545 17.3408 14.0564 17.3451 14.0583C17.3451 14.0583 17.3494 14.0583 17.3515 14.0603C17.3537 14.0603 17.3579 14.0622 17.3601 14.0641C17.3622 14.0641 17.3665 14.0661 17.3687 14.068C17.3687 14.068 17.373 14.068 17.3751 14.0699C17.3794 14.0699 17.3837 14.0719 17.388 14.0738C17.388 14.0738 17.388 14.0738 17.3901 14.0738C17.4052 14.0776 17.4223 14.0796 17.4395 14.0796H18.1328C18.2401 14.0796 18.326 14.0023 18.326 13.9076V10.0362C18.326 9.9415 18.2401 9.86424 18.1328 9.86424" fill="#0063A7"/>
<path d="M11.6998 13.1117H9.81741V10.0362C9.81741 9.9415 9.73157 9.8623 9.62425 9.8623H8.93096C8.82579 9.8623 8.73779 9.93957 8.73779 10.0362V13.9076C8.73779 13.954 8.75926 13.9965 8.79145 14.0274C8.79145 14.0274 8.79145 14.0274 8.7936 14.0294C8.7936 14.0294 8.79359 14.0294 8.79574 14.0313C8.83008 14.0603 8.8773 14.0796 8.92881 14.0796H11.6955C11.8007 14.0796 11.8865 14.0023 11.8865 13.9057V13.2817C11.8865 13.1871 11.8007 13.1078 11.6955 13.1078" fill="#0063A7"/>
<path d="M21.9601 10.8321C22.0653 10.8321 22.1512 10.7548 22.1512 10.6582V10.0342C22.1512 9.93763 22.0653 9.86035 21.9601 9.86035H19.1935C19.1419 9.86035 19.0947 9.87967 19.0604 9.90865C19.0604 9.90865 19.0604 9.90865 19.0582 9.90865C19.0582 9.90865 19.0561 9.91058 19.0561 9.91252C19.0239 9.94343 19.0024 9.98593 19.0024 10.0323V13.9038C19.0024 13.9501 19.0239 13.9926 19.0561 14.0235C19.0561 14.0235 19.0561 14.0235 19.0582 14.0255C19.0582 14.0255 19.0582 14.0255 19.0604 14.0274C19.0947 14.0564 19.1419 14.0757 19.1935 14.0757H21.9601C22.0653 14.0757 22.1512 13.9984 22.1512 13.9018V13.2778C22.1512 13.1832 22.0653 13.104 21.9601 13.104H20.0778V12.4491H21.9601C22.0653 12.4491 22.1512 12.3718 22.1512 12.2752V11.6512C22.1512 11.5546 22.0653 11.4773 21.9601 11.4773H20.0778V10.8224H21.9601V10.8321Z" fill="#0063A7"/>
</svg>
