<svg width="454" height="539" viewBox="0 0 454 539" fill="none" xmlns="http://www.w3.org/2000/svg">
<g filter="url(#filter0_d_75_541)">
<path d="M415.116 146.768C442.484 170.027 451.453 209.833 440.462 256.999C440.462 256.999 425.316 282.946 414.673 293.279C404.498 302.395 395.925 317.78 394.873 319.885C393.821 321.99 386.376 363.111 385.15 356.897C375.988 380.913 373.777 350.731 346.472 347.665C342.31 347.197 264.926 181.295 260.871 180.531C318.138 174.276 378.993 297.049 402.874 246.079C410.229 230.385 415.153 213.234 417.126 195.058C418.914 178.528 418.141 162.303 415.116 146.768Z" fill="url(#paint0_radial_75_541)"/>
<path d="M415.116 146.768C442.484 170.027 451.453 209.833 440.462 256.999C440.462 256.999 425.316 282.946 414.673 293.279C404.498 302.395 395.925 317.78 394.873 319.885C393.821 321.99 386.376 363.111 385.15 356.897C375.988 380.913 373.777 350.731 346.472 347.665C342.31 347.197 264.926 181.295 260.871 180.531C318.138 174.276 378.993 297.049 402.874 246.079C410.229 230.385 415.153 213.234 417.126 195.058C418.914 178.528 418.141 162.303 415.116 146.768Z" fill="url(#paint1_radial_75_541)"/>
<g filter="url(#filter1_d_75_541)">
<path d="M292.362 116.896L292.356 116.896C292.036 117.128 291.709 117.358 291.394 117.59C291.388 117.596 291.383 117.607 291.383 117.607C291.168 117.817 290.978 118.034 290.799 118.254L290.793 118.26C285.911 124.357 294.87 134.116 301.395 128.982C301.406 128.965 301.421 128.956 301.437 128.945C306.682 124.594 313.201 123.784 316.183 127.183C317.819 128.903 318.019 131.582 317.183 134.354C316.578 136.353 318.645 138.073 320.477 137.068C354.453 118.475 386.624 123.81 409.631 143.36C436.999 166.619 451.393 210.001 440.402 257.167C440.413 257.152 440.423 257.136 440.428 257.121C441.091 255.958 441.744 254.785 442.375 253.601C442.38 253.59 442.386 253.585 442.386 253.575C442.392 253.57 442.392 253.56 442.397 253.554C442.575 253.171 442.755 252.787 442.929 252.403C442.929 252.403 442.929 252.397 442.934 252.392C447.616 236.814 449.705 221.783 449.589 207.62C450.336 120.463 366.301 63.9641 292.362 116.896ZM407.137 116.449C407.206 116.501 407.274 116.559 407.343 116.612C407.137 116.449 406.933 116.291 406.722 116.132C406.864 116.239 407.001 116.344 407.137 116.449ZM399.839 111.309L399.839 111.303C399.933 111.367 400.034 111.429 400.128 111.492C400.034 111.43 399.94 111.366 399.839 111.309Z" fill="url(#paint2_linear_75_541)"/>
</g>
</g>
<path d="M168.837 191.719C159.813 178.76 165.473 165.168 182.551 181.723C199.63 198.277 233.76 237.794 233.76 237.794C233.76 237.794 206.574 249.105 205.728 247.2C204.881 245.294 168.837 191.719 168.837 191.719Z" fill="url(#paint3_linear_75_541)"/>
<g filter="url(#filter2_d_75_541)">
<path d="M128.633 178.181C117.847 162.594 123.725 146.861 143.815 167C163.904 187.139 204.312 234.946 204.312 234.946C204.312 234.946 173.87 247.123 172.831 244.849C171.792 242.578 128.633 178.181 128.633 178.181Z" fill="#33ACCF"/>
</g>
<g filter="url(#filter3_d_75_541)">
<path d="M110.443 191.181C99.3004 175.18 106.288 158.396 127.378 178.837C148.467 199.278 190.61 248.073 190.61 248.073C190.61 248.073 130.698 233.888 129.654 231.534C128.607 229.182 110.443 191.181 110.443 191.181Z" fill="#52D0FF"/>
</g>
<g filter="url(#filter4_d_75_541)">
<path d="M118.052 41.7891C92.1832 57.2671 77.5619 84.479 78.4074 110.613C84.052 89.4663 98.4128 69.6825 119.593 57.0113C153.701 36.6035 194.296 41.3474 217.392 66.2968L214.909 61.8019C196.986 29.4698 153.621 20.5104 118.052 41.7891Z" fill="url(#paint4_linear_75_541)"/>
<path d="M253.305 53.4254C234.365 35.2567 208.156 29.2284 186.404 35.9407C205.459 35.8239 225.37 43.3395 240.876 58.2156C265.847 82.1701 282.1 109.085 266.454 134.211C289.488 111.734 279.343 78.4067 253.305 53.4254Z" fill="url(#paint5_linear_75_541)"/>
<path d="M158.919 50.5767C159.733 50.6349 160.545 50.7077 161.35 50.7955C160.544 50.7052 159.732 50.6324 158.919 50.5767Z" fill="url(#paint6_linear_75_541)"/>
<path d="M210.584 84.4058C210.447 84.1545 210.306 83.9001 210.163 83.6497C209.958 83.2873 209.748 82.9257 209.535 82.5676C209.748 82.9284 209.955 83.2907 210.163 83.6549C210.307 83.906 210.447 84.1545 210.584 84.4058Z" fill="url(#paint7_linear_75_541)"/>
<path d="M190.61 61.9829C180.312 54.2965 168.414 50.8801 155.883 50.5886C168.545 51.0546 180.746 54.8548 190.61 61.9829Z" fill="url(#paint8_linear_75_541)"/>
<path d="M204.425 148.274C207.25 144.915 209.725 141.296 211.725 137.489L211.725 137.486C211.979 137.006 212.226 136.523 212.463 136.035C212.56 135.844 212.653 135.65 212.744 135.458C212.815 135.308 212.887 135.155 212.956 135.005C212.994 134.926 213.033 134.849 213.068 134.769C213.108 134.678 213.151 134.59 213.189 134.501C215.65 129.07 217.177 123.319 217.724 117.563C217.727 117.56 217.724 117.558 217.724 117.558C217.853 116.262 217.928 114.965 217.956 113.672C217.959 113.668 217.955 113.666 217.955 113.666C217.986 112.372 217.973 111.082 217.906 109.794C217.908 109.791 217.908 109.791 217.905 109.789C217.856 108.831 217.782 107.877 217.684 106.93C217.636 106.43 217.576 105.932 217.511 105.435C217.456 105.02 217.397 104.603 217.336 104.189C216.382 97.9772 214.433 91.9998 211.649 86.4351C211.479 86.0941 211.304 85.7539 211.127 85.4144C210.949 85.0777 210.769 84.7415 210.586 84.4056C210.448 84.1543 210.307 83.8999 210.164 83.6494C209.959 83.2871 209.749 82.9255 209.536 82.5674C209.323 82.2066 209.107 81.8485 208.885 81.4921C208.737 81.2531 208.589 81.0121 208.435 80.7746C207.91 79.9503 207.364 79.1359 206.8 78.3354C202.853 72.7366 198.003 67.7383 192.477 63.5766C192.477 63.5766 192.477 63.5766 192.477 63.5739C191.89 63.1104 191.292 62.6577 190.685 62.2205C190.669 62.2071 190.652 62.1958 190.637 62.185C180.338 54.4986 168.44 51.0822 155.909 50.7907C155.87 50.7894 155.828 50.7887 155.789 50.7875C152.682 50.6774 149.545 50.7686 146.411 51.0612C146.679 51.029 146.95 50.9993 147.221 50.9692C146.269 51.0534 145.317 51.1569 144.367 51.2802C144.302 51.2864 144.237 51.2952 144.172 51.3047C140.399 51.7718 136.653 52.4723 132.958 53.4876C132.706 53.559 132.455 53.6297 132.204 53.7031C130.45 54.2159 128.713 54.7872 127 55.4213C126.949 55.4388 126.894 55.4574 126.843 55.4782C126.84 55.4757 126.837 55.4791 126.834 55.4798C126.831 55.4806 126.829 55.4834 126.826 55.484C126.757 55.5075 126.692 55.5335 126.623 55.5604C102.479 64.5784 82.5656 85.0061 78.4091 110.609C120.096 56.1795 210.459 82.1024 204.425 148.274Z" fill="url(#paint9_linear_75_541)"/>
<path d="M196.25 154.257C197.123 150.48 197.674 146.617 197.785 142.726C197.869 138.837 197.53 134.935 196.773 131.113C195.267 123.466 192.049 116.152 187.417 109.86C182.719 103.614 176.661 98.429 169.829 94.6938C166.413 92.824 162.809 91.3042 159.092 90.1638C155.365 89.0533 151.537 88.3131 147.68 87.9251L147.598 88.6494C148.506 89.1371 149.41 89.5278 150.295 89.9656C151.18 90.3945 152.047 90.8513 152.913 91.2547C154.627 92.1375 156.299 92.9953 157.912 93.9189C161.142 95.7443 164.176 97.68 167.002 99.7882C172.668 103.972 177.534 108.787 181.569 114.207C185.584 119.642 188.771 125.661 191.048 132.279C192.201 135.587 193.111 139.046 193.833 142.668C194.018 143.574 194.208 144.49 194.339 145.417C194.495 146.344 194.662 147.284 194.778 148.232C195.051 150.133 195.979 152.235 196.25 154.257Z" fill="url(#paint10_linear_75_541)"/>
<path d="M179.566 122.258C175.077 114.533 170.163 107.88 164.792 102.802C159.397 97.8249 153.582 94.3775 147.484 92.5521C135.29 88.8761 110.253 90.2747 97.0012 99.6464C83.752 109.316 75.0287 119.448 63.2877 139.933C57.4148 150.17 59.218 168.883 54.0857 181.098C48.986 193.385 65.2492 176.114 61.0434 189.744C62.5912 187.012 59.8789 197.117 61.335 194.408C59.9456 197.088 62.7789 191.687 61.335 194.408C64.2042 189.204 55.4215 194.705 58.2524 189.918C63.8862 180.307 69.4904 171.542 75.1398 163.744C86.406 148.061 97.8011 136.06 109.259 127.819C120.719 119.671 132.216 115.253 143.693 114.88C149.443 114.637 155.177 115.464 160.959 117.176C162.41 117.586 163.881 117.992 165.309 118.627C166.762 119.172 168.243 119.688 169.689 120.405C172.624 121.689 178.381 124.413 181.484 125.847L179.566 122.258Z" fill="url(#paint11_linear_75_541)"/>
</g>
<g filter="url(#filter5_d_75_541)">
<path d="M262.78 321.009C261.852 320.081 246.541 317.101 238.204 316.809C175.542 312.822 86.5002 289.34 54.7492 220.865C54.5192 220.582 149.066 254.46 149.377 254.648C201.656 286.327 217.195 279.627 262.78 321.009Z" fill="url(#paint12_linear_75_541)"/>
</g>
<g filter="url(#filter6_d_75_541)">
<path d="M270.905 78.2382C235.688 30.6237 161.227 21.316 115.274 58.7546L115.271 58.7596C115.268 58.7647 115.264 58.7617 115.261 58.7668C105.416 65.469 97.3607 74.3757 91.0819 84.5964C91.0249 84.6829 90.972 84.7653 90.9201 84.8549C80.9548 101.188 75.4953 120.834 74.4602 140.147C74.163 148.354 74.6852 156.614 76.0145 164.76C76.1193 165.417 76.2333 166.081 76.3493 166.74C77.8159 174.965 80.1029 183.055 83.1848 190.803C92.3765 213.944 108.647 234.12 131.387 246.26C136.232 249.058 141.199 251.46 146.247 253.481C147.05 253.8 146.735 255.002 145.879 254.873C111.731 249.777 63.118 242.212 48.1706 210.483C48.1655 210.48 48.1686 210.476 48.1635 210.473C47.3065 208.777 46.4057 207.099 45.4602 205.446C45.4511 205.429 45.4429 205.411 45.4338 205.393C44.7243 203.996 44.0373 202.592 43.3829 201.177C43.219 200.817 43.047 200.461 42.8832 200.102C42.874 200.085 42.8638 200.059 42.8547 200.042C42.8526 200.035 42.8465 200.025 42.8445 200.016C42.589 199.347 42.3183 198.694 42.0028 198.064L41.7707 197.572L41.7656 197.569C41.503 196.945 41.2425 196.329 40.989 195.711C40.7458 195.119 40.5066 194.52 40.2715 193.926C39.9112 193.013 39.559 192.099 39.2262 191.171C38.8364 190.135 38.4629 189.082 38.1087 188.028L38.1118 188.024C35.0767 178.811 33.0095 169.816 31.833 161.079C26.8305 124.089 37.6415 91.6996 57.3715 66.787C86.7257 29.7036 135.823 9.18894 181.89 14.7237C187.837 15.4392 193.728 16.5883 199.521 18.1913C228.094 26.0884 254.248 45.0316 272.126 77.4586C272.564 78.2525 271.442 78.9639 270.905 78.2382Z" fill="url(#paint13_radial_75_541)"/>
</g>
<g filter="url(#filter7_d_75_541)">
<path fill-rule="evenodd" clip-rule="evenodd" d="M201.533 397.382C218.528 414.376 257.408 448.132 257.408 474.98L243.246 530.235C308.434 494.502 389.42 421.219 394.059 341.532C394.345 336.62 394.347 331.473 394.084 326.118C381.789 414.291 313.839 447.454 313.839 447.454C316.402 386.496 302.214 318.579 233.558 318.579C164.902 318.579 36.713 280.954 22.0042 139.878C13.6007 230.632 77.1524 298.021 122.796 332.34C143.036 347.559 169.461 365.31 201.533 397.382Z" fill="url(#paint14_radial_75_541)"/>
<path fill-rule="evenodd" clip-rule="evenodd" d="M201.533 397.382C218.528 414.376 257.408 448.132 257.408 474.98L243.246 530.235C308.434 494.502 389.42 421.219 394.059 341.532C394.345 336.62 394.347 331.473 394.084 326.118C381.789 414.291 313.839 447.454 313.839 447.454C316.402 386.496 302.214 318.579 233.558 318.579C164.902 318.579 36.713 280.954 22.0042 139.878C13.6007 230.632 77.1524 298.021 122.796 332.34C143.036 347.559 169.461 365.31 201.533 397.382Z" fill="url(#paint15_diamond_75_541)"/>
</g>
<path fill-rule="evenodd" clip-rule="evenodd" d="M226.625 415.771C222.158 403.483 216.581 395.594 213.3 391.645C228.102 402.615 239.139 418.797 243.346 438.218C244.448 443.301 245.03 448.376 245.131 453.387C240.118 441.519 210.492 404.828 195.126 391.645C197.427 391.652 199.6 391.941 201.645 392.452C200.853 391.969 210.353 405.939 211.399 406.493C212.086 406.857 202.38 392.646 202.38 392.646C218.687 397.203 226.625 415.771 226.625 415.771Z" fill="#008A80"/>
<g filter="url(#filter8_d_75_541)">
<path fill-rule="evenodd" clip-rule="evenodd" d="M270.365 420.759C282.243 387.776 298.078 384.176 298.092 370.409C309.77 418.408 290.957 448.464 266.304 495.698C259.851 508.061 251.621 519.741 243.23 530.239C249.229 502.841 252.266 426.15 200.441 360.977C244.038 397.496 270.365 420.759 270.365 420.759Z" fill="#008A80"/>
</g>
<g filter="url(#filter9_d_75_541)">
<mask id="mask0_75_541" style="mask-type:alpha" maskUnits="userSpaceOnUse" x="86" y="163" width="305" height="283">
<path d="M315.957 445.364C320.021 378.591 302.121 349.912 278.206 325.997L264.485 316.409C264.485 316.409 221.88 284.282 214.137 281.067C64.0699 218.758 88.3664 174.796 88.3664 174.796C88.3664 174.796 89.104 169.334 110.562 187.271C132.02 205.209 167.802 228.584 206.531 230.168C245.262 231.751 302.386 211.448 247.86 208.24C193.333 205.032 191.097 175.747 193.4 165.555C195.701 155.363 234.567 182.461 264.272 180.274C293.976 178.085 335.554 278.427 370.49 310.809C386.12 325.298 389.507 330.668 389.507 330.668C389.507 330.668 396.214 338.358 376.24 378.792C356.266 419.227 325.09 437.501 315.957 445.364Z" fill="url(#paint16_linear_75_541)"/>
</mask>
<g mask="url(#mask0_75_541)">
<path d="M464.003 4.82104H17.5417V611.699H464.003V4.82104Z" fill="url(#paint17_diamond_75_541)"/>
<path d="M464.003 4.82104H17.5417V611.699H464.003V4.82104Z" fill="url(#paint18_diamond_75_541)" fill-opacity="0.2"/>
</g>
</g>
<defs>
<filter id="filter0_d_75_541" x="256.871" y="96.4017" width="196.722" height="277.706" filterUnits="userSpaceOnUse" color-interpolation-filters="sRGB">
<feFlood flood-opacity="0" result="BackgroundImageFix"/>
<feColorMatrix in="SourceAlpha" type="matrix" values="0 0 0 0 0 0 0 0 0 0 0 0 0 0 0 0 0 0 127 0" result="hardAlpha"/>
<feOffset dy="4"/>
<feGaussianBlur stdDeviation="2"/>
<feComposite in2="hardAlpha" operator="out"/>
<feColorMatrix type="matrix" values="0 0 0 0 0 0 0 0 0 0 0 0 0 0 0 0 0 0 0.25 0"/>
<feBlend mode="normal" in2="BackgroundImageFix" result="effect1_dropShadow_75_541"/>
<feBlend mode="normal" in="SourceGraphic" in2="effect1_dropShadow_75_541" result="shape"/>
</filter>
<filter id="filter1_d_75_541" x="285.395" y="96.4017" width="168.199" height="168.766" filterUnits="userSpaceOnUse" color-interpolation-filters="sRGB">
<feFlood flood-opacity="0" result="BackgroundImageFix"/>
<feColorMatrix in="SourceAlpha" type="matrix" values="0 0 0 0 0 0 0 0 0 0 0 0 0 0 0 0 0 0 127 0" result="hardAlpha"/>
<feOffset dy="4"/>
<feGaussianBlur stdDeviation="2"/>
<feComposite in2="hardAlpha" operator="out"/>
<feColorMatrix type="matrix" values="0 0 0 0 0 0 0 0 0 0 0 0 0 0 0 0 0 0 0.25 0"/>
<feBlend mode="normal" in2="BackgroundImageFix" result="effect1_dropShadow_75_541"/>
<feBlend mode="normal" in="SourceGraphic" in2="effect1_dropShadow_75_541" result="shape"/>
</filter>
<filter id="filter2_d_75_541" x="122.311" y="157.482" width="89.0013" height="95.6494" filterUnits="userSpaceOnUse" color-interpolation-filters="sRGB">
<feFlood flood-opacity="0" result="BackgroundImageFix"/>
<feColorMatrix in="SourceAlpha" type="matrix" values="0 0 0 0 0 0 0 0 0 0 0 0 0 0 0 0 0 0 127 0" result="hardAlpha"/>
<feOffset dx="3" dy="4"/>
<feGaussianBlur stdDeviation="2"/>
<feComposite in2="hardAlpha" operator="out"/>
<feColorMatrix type="matrix" values="0 0 0 0 0 0 0 0 0 0 0 0 0 0 0 0 0 0 0.25 0"/>
<feBlend mode="normal" in2="BackgroundImageFix" result="effect1_dropShadow_75_541"/>
<feBlend mode="normal" in="SourceGraphic" in2="effect1_dropShadow_75_541" result="shape"/>
</filter>
<filter id="filter3_d_75_541" x="104.184" y="169.396" width="93.4262" height="86.6772" filterUnits="userSpaceOnUse" color-interpolation-filters="sRGB">
<feFlood flood-opacity="0" result="BackgroundImageFix"/>
<feColorMatrix in="SourceAlpha" type="matrix" values="0 0 0 0 0 0 0 0 0 0 0 0 0 0 0 0 0 0 127 0" result="hardAlpha"/>
<feOffset dx="3" dy="4"/>
<feGaussianBlur stdDeviation="2"/>
<feComposite in2="hardAlpha" operator="out"/>
<feColorMatrix type="matrix" values="0 0 0 0 0 0 0 0 0 0 0 0 0 0 0 0 0 0 0.25 0"/>
<feBlend mode="normal" in2="BackgroundImageFix" result="effect1_dropShadow_75_541"/>
<feBlend mode="normal" in="SourceGraphic" in2="effect1_dropShadow_75_541" result="shape"/>
</filter>
<filter id="filter4_d_75_541" x="49.085" y="30.2401" width="234.206" height="172.937" filterUnits="userSpaceOnUse" color-interpolation-filters="sRGB">
<feFlood flood-opacity="0" result="BackgroundImageFix"/>
<feColorMatrix in="SourceAlpha" type="matrix" values="0 0 0 0 0 0 0 0 0 0 0 0 0 0 0 0 0 0 127 0" result="hardAlpha"/>
<feOffset dy="4"/>
<feGaussianBlur stdDeviation="2"/>
<feComposite in2="hardAlpha" operator="out"/>
<feColorMatrix type="matrix" values="0 0 0 0 0 0 0 0 0 0 0 0 0 0 0 0 0 0 0.25 0"/>
<feBlend mode="normal" in2="BackgroundImageFix" result="effect1_dropShadow_75_541"/>
<feBlend mode="normal" in="SourceGraphic" in2="effect1_dropShadow_75_541" result="shape"/>
</filter>
<filter id="filter5_d_75_541" x="50.7488" y="220.863" width="216.031" height="108.146" filterUnits="userSpaceOnUse" color-interpolation-filters="sRGB">
<feFlood flood-opacity="0" result="BackgroundImageFix"/>
<feColorMatrix in="SourceAlpha" type="matrix" values="0 0 0 0 0 0 0 0 0 0 0 0 0 0 0 0 0 0 127 0" result="hardAlpha"/>
<feOffset dy="4"/>
<feGaussianBlur stdDeviation="2"/>
<feComposite in2="hardAlpha" operator="out"/>
<feColorMatrix type="matrix" values="0 0 0 0 0 0 0 0 0 0 0 0 0 0 0 0 0 0 0.25 0"/>
<feBlend mode="normal" in2="BackgroundImageFix" result="effect1_dropShadow_75_541"/>
<feBlend mode="normal" in="SourceGraphic" in2="effect1_dropShadow_75_541" result="shape"/>
</filter>
<filter id="filter6_d_75_541" x="26.6173" y="13.83" width="249.608" height="249.052" filterUnits="userSpaceOnUse" color-interpolation-filters="sRGB">
<feFlood flood-opacity="0" result="BackgroundImageFix"/>
<feColorMatrix in="SourceAlpha" type="matrix" values="0 0 0 0 0 0 0 0 0 0 0 0 0 0 0 0 0 0 127 0" result="hardAlpha"/>
<feOffset dy="4"/>
<feGaussianBlur stdDeviation="2"/>
<feComposite in2="hardAlpha" operator="out"/>
<feColorMatrix type="matrix" values="0 0 0 0 0 0 0 0 0 0 0 0 0 0 0 0 0 0 0.25 0"/>
<feBlend mode="normal" in2="BackgroundImageFix" result="effect1_dropShadow_75_541"/>
<feBlend mode="normal" in="SourceGraphic" in2="effect1_dropShadow_75_541" result="shape"/>
</filter>
<filter id="filter7_d_75_541" x="17.2492" y="139.878" width="381.028" height="398.357" filterUnits="userSpaceOnUse" color-interpolation-filters="sRGB">
<feFlood flood-opacity="0" result="BackgroundImageFix"/>
<feColorMatrix in="SourceAlpha" type="matrix" values="0 0 0 0 0 0 0 0 0 0 0 0 0 0 0 0 0 0 127 0" result="hardAlpha"/>
<feOffset dy="4"/>
<feGaussianBlur stdDeviation="2"/>
<feComposite in2="hardAlpha" operator="out"/>
<feColorMatrix type="matrix" values="0 0 0 0 0 0 0 0 0 0 0 0 0 0 0 0 0 0 0.25 0"/>
<feBlend mode="normal" in2="BackgroundImageFix" result="effect1_dropShadow_75_541"/>
<feBlend mode="normal" in="SourceGraphic" in2="effect1_dropShadow_75_541" result="shape"/>
</filter>
<filter id="filter8_d_75_541" x="196.441" y="360.977" width="109.202" height="177.263" filterUnits="userSpaceOnUse" color-interpolation-filters="sRGB">
<feFlood flood-opacity="0" result="BackgroundImageFix"/>
<feColorMatrix in="SourceAlpha" type="matrix" values="0 0 0 0 0 0 0 0 0 0 0 0 0 0 0 0 0 0 127 0" result="hardAlpha"/>
<feOffset dy="4"/>
<feGaussianBlur stdDeviation="2"/>
<feComposite in2="hardAlpha" operator="out"/>
<feColorMatrix type="matrix" values="0 0 0 0 0 0 0 0 0 0 0 0 0 0 0 0 0 0 0.25 0"/>
<feBlend mode="normal" in2="BackgroundImageFix" result="effect1_dropShadow_75_541"/>
<feBlend mode="normal" in="SourceGraphic" in2="effect1_dropShadow_75_541" result="shape"/>
</filter>
<filter id="filter9_d_75_541" x="82.9127" y="157.254" width="311.677" height="290.11" filterUnits="userSpaceOnUse" color-interpolation-filters="sRGB">
<feFlood flood-opacity="0" result="BackgroundImageFix"/>
<feColorMatrix in="SourceAlpha" type="matrix" values="0 0 0 0 0 0 0 0 0 0 0 0 0 0 0 0 0 0 127 0" result="hardAlpha"/>
<feOffset dy="-2"/>
<feGaussianBlur stdDeviation="2"/>
<feComposite in2="hardAlpha" operator="out"/>
<feColorMatrix type="matrix" values="0 0 0 0 0 0 0 0 0 0 0 0 0 0 0 0 0 0 0.25 0"/>
<feBlend mode="normal" in2="BackgroundImageFix" result="effect1_dropShadow_75_541"/>
<feBlend mode="normal" in="SourceGraphic" in2="effect1_dropShadow_75_541" result="shape"/>
</filter>
<radialGradient id="paint0_radial_75_541" cx="0" cy="0" r="1" gradientUnits="userSpaceOnUse" gradientTransform="translate(245.22 257.008) rotate(-90) scale(286.766 286.766)">
<stop offset="0.0234" stop-color="#CBE6F5"/>
<stop offset="0.1203" stop-color="#C6E3F4"/>
<stop offset="0.2299" stop-color="#B9D9F1"/>
<stop offset="0.3452" stop-color="#A2C9EC"/>
<stop offset="0.436" stop-color="#8BB9E7"/>
<stop offset="0.5717" stop-color="#89B7E5"/>
<stop offset="0.6209" stop-color="#83B0E0"/>
<stop offset="0.6561" stop-color="#78A4D5"/>
<stop offset="0.6845" stop-color="#6894C7"/>
<stop offset="0.7089" stop-color="#537EB4"/>
<stop offset="0.7301" stop-color="#3A639D"/>
<stop offset="0.7347" stop-color="#345C97"/>
</radialGradient>
<radialGradient id="paint1_radial_75_541" cx="0" cy="0" r="1" gradientUnits="userSpaceOnUse" gradientTransform="translate(319.405 206.18) rotate(-90) scale(188.623 162.668)">
<stop stop-color="#CBE6F5"/>
<stop offset="0.6736" stop-color="#8BE7E7"/>
<stop offset="0.7701" stop-color="#88D5E6"/>
<stop offset="0.8335" stop-color="white"/>
<stop offset="0.8873" stop-color="#97EADB"/>
<stop offset="0.9358" stop-color="#AAEEC5"/>
<stop offset="0.9803" stop-color="#A6EDC9"/>
<stop offset="0.9918" stop-color="#A7EEC8"/>
</radialGradient>
<linearGradient id="paint2_linear_75_541" x1="369.494" y1="96.4017" x2="435.354" y2="148.966" gradientUnits="userSpaceOnUse">
<stop stop-color="#B1E7F0"/>
<stop offset="1" stop-color="#8ADDE7"/>
</linearGradient>
<linearGradient id="paint3_linear_75_541" x1="173.176" y1="170.759" x2="221.15" y2="245.851" gradientUnits="userSpaceOnUse">
<stop stop-color="#40A1C5"/>
<stop offset="1" stop-color="#24CCCD"/>
</linearGradient>
<linearGradient id="paint4_linear_75_541" x1="77.4018" y1="97.2528" x2="221.11" y2="28.1899" gradientUnits="userSpaceOnUse">
<stop offset="0.0082" stop-color="#A9E7EE"/>
<stop offset="0.0278" stop-color="#B0EBF8"/>
<stop offset="0.1039" stop-color="#B0EBF8"/>
<stop offset="0.1868" stop-color="#B0EBF8"/>
<stop offset="0.2788" stop-color="#B0EBF8"/>
<stop offset="0.3871" stop-color="#B0EBF8"/>
<stop offset="0.552" stop-color="#7DC8D8"/>
<stop offset="0.6418" stop-color="#7DC8D8"/>
<stop offset="0.811" stop-color="#C1F4FF"/>
<stop offset="0.8655" stop-color="#CBE6F5"/>
</linearGradient>
<linearGradient id="paint5_linear_75_541" x1="197.393" y1="32.0278" x2="288.394" y2="136.845" gradientUnits="userSpaceOnUse">
<stop offset="0.316757" stop-color="#3AC1DC"/>
<stop offset="0.63692" stop-color="#41CBCF"/>
<stop offset="0.8655" stop-color="#E5FDFD"/>
</linearGradient>
<linearGradient id="paint6_linear_75_541" x1="160.09" y1="50.3982" x2="160.178" y2="50.9737" gradientUnits="userSpaceOnUse">
<stop stop-color="#79B2EB"/>
<stop offset="0.98" stop-color="#CBE6F5"/>
</linearGradient>
<linearGradient id="paint7_linear_75_541" x1="209.911" y1="82.5103" x2="210.208" y2="84.4627" gradientUnits="userSpaceOnUse">
<stop offset="0.0082" stop-color="#3866BD"/>
<stop offset="0.0197" stop-color="#406EC1"/>
<stop offset="0.0642" stop-color="#5B89CF"/>
<stop offset="0.1127" stop-color="#719FDA"/>
<stop offset="0.1665" stop-color="#80AEE1"/>
<stop offset="0.2299" stop-color="#88B6E6"/>
<stop offset="0.3264" stop-color="#8BB9E7"/>
<stop offset="1" stop-color="#CBE6F5"/>
</linearGradient>
<linearGradient id="paint8_linear_75_541" x1="172.009" y1="48.1387" x2="174.484" y2="64.4318" gradientUnits="userSpaceOnUse">
<stop offset="0.0082" stop-color="#3866BD"/>
<stop offset="0.0197" stop-color="#406EC1"/>
<stop offset="0.0642" stop-color="#5B89CF"/>
<stop offset="0.1127" stop-color="#719FDA"/>
<stop offset="0.1665" stop-color="#80AEE1"/>
<stop offset="0.2299" stop-color="#88B6E6"/>
<stop offset="0.3264" stop-color="#8BB9E7"/>
<stop offset="1" stop-color="#CBE6F5"/>
</linearGradient>
<linearGradient id="paint9_linear_75_541" x1="139.455" y1="51.9861" x2="155.214" y2="155.748" gradientUnits="userSpaceOnUse">
<stop offset="0.0082" stop-color="#8CE8E8"/>
<stop offset="0.0197" stop-color="#97E7EA"/>
<stop offset="0.0642" stop-color="#AAE7EE"/>
<stop offset="0.1127" stop-color="white"/>
<stop offset="0.1665" stop-color="#80F4F4"/>
<stop offset="0.2299" stop-color="#8CE8E8"/>
<stop offset="0.3264" stop-color="#90F0FB"/>
<stop offset="1" stop-color="#CBE6F5"/>
</linearGradient>
<linearGradient id="paint10_linear_75_541" x1="166.98" y1="152.47" x2="177.168" y2="89.2897" gradientUnits="userSpaceOnUse">
<stop offset="0.0191" stop-color="#21B9D8"/>
<stop offset="1" stop-color="#7DEDBD"/>
</linearGradient>
<linearGradient id="paint11_linear_75_541" x1="149.275" y1="227.091" x2="43.7597" y2="191.243" gradientUnits="userSpaceOnUse">
<stop offset="0.0191" stop-color="#21B9D8"/>
<stop offset="1" stop-color="#AAE7EE"/>
</linearGradient>
<linearGradient id="paint12_linear_75_541" x1="122.093" y1="295.211" x2="274.801" y2="295.211" gradientUnits="userSpaceOnUse">
<stop offset="0.0191" stop-color="#21B9D8"/>
<stop offset="1" stop-color="#9CFEB4"/>
</linearGradient>
<radialGradient id="paint13_radial_75_541" cx="0" cy="0" r="1" gradientUnits="userSpaceOnUse" gradientTransform="translate(206.781 88.5947) scale(207.773 207.773)">
<stop stop-color="#CBE6F5"/>
<stop offset="0.6736" stop-color="#8BE7E7"/>
<stop offset="0.7701" stop-color="#88D5E6"/>
<stop offset="0.8335" stop-color="white"/>
<stop offset="0.8873" stop-color="#97EADB"/>
<stop offset="0.9358" stop-color="#AAEEC5"/>
<stop offset="0.9803" stop-color="#A6EDC9"/>
<stop offset="0.9918" stop-color="#A7EEC8"/>
</radialGradient>
<radialGradient id="paint14_radial_75_541" cx="0" cy="0" r="1" gradientUnits="userSpaceOnUse" gradientTransform="translate(294.202 270.37) rotate(3.33164) scale(329.622 318.067)">
<stop stop-color="#CBE6F5"/>
<stop offset="0.6736" stop-color="#8BE7E7"/>
<stop offset="0.7701" stop-color="#88D5E6"/>
<stop offset="0.8335" stop-color="#80B8E1"/>
<stop offset="0.8873" stop-color="#719FDA"/>
<stop offset="0.9358" stop-color="#5B89CF"/>
<stop offset="0.9803" stop-color="#406EC1"/>
<stop offset="0.9918" stop-color="#3866BD"/>
</radialGradient>
<radialGradient id="paint15_diamond_75_541" cx="0" cy="0" r="1" gradientUnits="userSpaceOnUse" gradientTransform="translate(336.429 452.278) rotate(-154.704) scale(243.351 252.774)">
<stop stop-color="#85FF92"/>
<stop offset="0.904" stop-color="#AEF4F4"/>
<stop offset="1" stop-color="#ACF2F2"/>
</radialGradient>
<linearGradient id="paint16_linear_75_541" x1="105.32" y1="157.703" x2="410.669" y2="265.309" gradientUnits="userSpaceOnUse">
<stop stop-color="#FFBAE2"/>
<stop offset="0.5168" stop-color="#EA87C0"/>
<stop offset="1" stop-color="#D657A1"/>
</linearGradient>
<radialGradient id="paint17_diamond_75_541" cx="0" cy="0" r="1" gradientUnits="userSpaceOnUse" gradientTransform="translate(291.489 223.842) rotate(79.6337) scale(183.795 183.795)">
<stop stop-color="#08CEC0"/>
<stop offset="0.677076" stop-color="#23CDFA"/>
<stop offset="1" stop-color="#29BAFF"/>
</radialGradient>
<radialGradient id="paint18_diamond_75_541" cx="0" cy="0" r="1" gradientUnits="userSpaceOnUse" gradientTransform="translate(429.936 371.984) rotate(-152.343) scale(110.455 184.551)">
<stop stop-opacity="0"/>
<stop offset="1" stop-color="#3CCB42"/>
</radialGradient>
</defs>
</svg>
