<svg width="30" height="27" viewBox="0 0 30 27" fill="none" xmlns="http://www.w3.org/2000/svg">
<path d="M15.4549 26.0803C23.4564 26.0803 29.9429 20.242 29.9429 13.0401C29.9429 5.83827 23.4564 0 15.4549 0C7.45332 0 0.966797 5.83827 0.966797 13.0401C0.966797 20.242 7.45332 26.0803 15.4549 26.0803Z" fill="#0063A7"/>
<path d="M23.5751 8.7322C23.5751 8.65686 23.573 8.65299 23.485 8.65493C23.2725 8.65493 23.0621 8.63367 22.8539 8.6047C22.0963 8.50231 19.6365 7.34125 19.2201 5.44222C19.2115 5.40551 19.1192 4.93413 19.1192 4.73322C19.1192 4.64435 19.1192 4.64242 19.0205 4.64242C18.9969 4.64242 18.9754 4.64242 18.9518 4.64242C17.9903 4.64242 17.0265 4.64242 16.0649 4.64242C15.8718 4.64242 15.8975 4.62117 15.8975 4.79504C15.8975 8.5506 15.8975 12.3062 15.8975 16.0617C15.8975 16.2028 15.8932 16.3418 15.8653 16.479C15.7194 17.2054 15.3073 17.7753 14.6076 18.1636C14.0023 18.4998 13.3433 18.5963 12.6436 18.4708C12.4225 18.4321 12.2165 18.3568 12.0104 18.2834C11.9933 18.2699 11.9761 18.2563 11.9611 18.2428C11.8924 18.1906 11.8151 18.1462 11.74 18.0998C10.8492 17.5454 10.4264 16.7746 10.5552 15.8106C10.6861 14.8331 11.3107 14.1685 12.341 13.8265C12.6479 13.7242 12.972 13.6817 13.3004 13.699C13.5129 13.7087 13.7232 13.7338 13.9272 13.786C13.998 13.8034 14.0366 13.7821 14.0409 13.7145C14.0409 13.6913 14.0409 13.6662 14.0409 13.643C14.0409 12.9688 14.013 11.4967 14.0087 11.4928C14.0087 11.2997 14.0087 11.1045 14.0152 10.9114C14.0152 10.8553 13.9851 10.8457 13.9336 10.8399C13.5451 10.7993 13.1566 10.7896 12.766 10.8167C12.2272 10.8515 11.7035 10.9519 11.1948 11.1161C10.3835 11.3789 9.67303 11.7846 9.05916 12.3255C8.53115 12.7911 8.1169 13.3281 7.81427 13.9347C7.52236 14.5143 7.35709 15.1228 7.30987 15.7565C7.29055 16.0308 7.2927 16.3071 7.32275 16.5833C7.36138 16.9639 7.44294 17.3368 7.57172 17.7019C7.9409 18.749 8.61486 19.6067 9.57 20.2887C9.66659 20.3582 9.76103 20.4336 9.87694 20.478C9.92631 20.5166 9.97352 20.5553 10.0229 20.5939C10.1774 20.6982 10.3427 20.789 10.5166 20.8644C11.5855 21.3396 12.7123 21.5328 13.8993 21.4034C15.4404 21.2333 16.7239 20.619 17.7327 19.5603C18.6835 18.5635 19.145 17.3947 19.1536 16.0868C19.1665 14.2168 19.1557 12.3467 19.1579 10.4747C19.1579 10.4303 19.13 10.3666 19.1836 10.3434C19.2266 10.326 19.2695 10.3762 19.3103 10.4013C20.083 10.8592 20.9179 11.1895 21.8215 11.375C22.3474 11.4832 22.8776 11.5489 23.4184 11.5489C23.588 11.5489 23.6116 11.5411 23.6116 11.3885C23.6116 10.724 23.573 8.908 23.5751 8.7322Z" fill="#EEE2DA"/>
</svg>
