<svg width="414" height="244" viewBox="0 0 414 244" fill="none" xmlns="http://www.w3.org/2000/svg">
<rect width="414" height="243.026" rx="20" fill="#0063A7" fill-opacity="0.2"/>
<path d="M317.98 60.43L311.575 85H304.33L300.41 68.83L296.35 85H289.105L282.875 60.43H289.28L292.815 78.315L297.19 60.43H303.77L307.97 78.315L311.54 60.43H317.98ZM329.872 85.28C327.958 85.28 326.232 84.8717 324.692 84.055C323.175 83.2383 321.973 82.0717 321.087 80.555C320.223 79.0383 319.792 77.265 319.792 75.235C319.792 73.2283 320.235 71.4667 321.122 69.95C322.008 68.41 323.222 67.2317 324.762 66.415C326.302 65.5983 328.028 65.19 329.942 65.19C331.855 65.19 333.582 65.5983 335.122 66.415C336.662 67.2317 337.875 68.41 338.762 69.95C339.648 71.4667 340.092 73.2283 340.092 75.235C340.092 77.2417 339.637 79.015 338.727 80.555C337.84 82.0717 336.615 83.2383 335.052 84.055C333.512 84.8717 331.785 85.28 329.872 85.28ZM329.872 80.1C331.015 80.1 331.983 79.68 332.777 78.84C333.593 78 334.002 76.7983 334.002 75.235C334.002 73.6717 333.605 72.47 332.812 71.63C332.042 70.79 331.085 70.37 329.942 70.37C328.775 70.37 327.807 70.79 327.037 71.63C326.267 72.4467 325.882 73.6483 325.882 75.235C325.882 76.7983 326.255 78 327.002 78.84C327.772 79.68 328.728 80.1 329.872 80.1ZM349.252 68.725C349.952 67.6517 350.827 66.8117 351.877 66.205C352.927 65.575 354.093 65.26 355.377 65.26V71.595H353.732C352.238 71.595 351.118 71.9217 350.372 72.575C349.625 73.205 349.252 74.325 349.252 75.935V85H343.267V65.47H349.252V68.725ZM364.222 59.1V85H358.237V59.1H364.222ZM367.37 75.2C367.37 73.1933 367.743 71.4317 368.49 69.915C369.26 68.3983 370.298 67.2317 371.605 66.415C372.911 65.5983 374.37 65.19 375.98 65.19C377.263 65.19 378.43 65.4583 379.48 65.995C380.553 66.5317 381.393 67.255 382 68.165V59.1H387.985V85H382V82.2C381.44 83.1333 380.635 83.88 379.585 84.44C378.558 85 377.356 85.28 375.98 85.28C374.37 85.28 372.911 84.8717 371.605 84.055C370.298 83.215 369.26 82.0367 368.49 80.52C367.743 78.98 367.37 77.2067 367.37 75.2ZM382 75.235C382 73.7417 381.58 72.5633 380.74 71.7C379.923 70.8367 378.92 70.405 377.73 70.405C376.54 70.405 375.525 70.8367 374.685 71.7C373.868 72.54 373.46 73.7067 373.46 75.2C373.46 76.6933 373.868 77.8833 374.685 78.77C375.525 79.6333 376.54 80.065 377.73 80.065C378.92 80.065 379.923 79.6333 380.74 78.77C381.58 77.9067 382 76.7283 382 75.235ZM293.06 138.245C291.263 138.245 289.653 137.953 288.23 137.37C286.807 136.787 285.663 135.923 284.8 134.78C283.96 133.637 283.517 132.26 283.47 130.65H289.84C289.933 131.56 290.248 132.26 290.785 132.75C291.322 133.217 292.022 133.45 292.885 133.45C293.772 133.45 294.472 133.252 294.985 132.855C295.498 132.435 295.755 131.863 295.755 131.14C295.755 130.533 295.545 130.032 295.125 129.635C294.728 129.238 294.227 128.912 293.62 128.655C293.037 128.398 292.197 128.107 291.1 127.78C289.513 127.29 288.218 126.8 287.215 126.31C286.212 125.82 285.348 125.097 284.625 124.14C283.902 123.183 283.54 121.935 283.54 120.395C283.54 118.108 284.368 116.323 286.025 115.04C287.682 113.733 289.84 113.08 292.5 113.08C295.207 113.08 297.388 113.733 299.045 115.04C300.702 116.323 301.588 118.12 301.705 120.43H295.23C295.183 119.637 294.892 119.018 294.355 118.575C293.818 118.108 293.13 117.875 292.29 117.875C291.567 117.875 290.983 118.073 290.54 118.47C290.097 118.843 289.875 119.392 289.875 120.115C289.875 120.908 290.248 121.527 290.995 121.97C291.742 122.413 292.908 122.892 294.495 123.405C296.082 123.942 297.365 124.455 298.345 124.945C299.348 125.435 300.212 126.147 300.935 127.08C301.658 128.013 302.02 129.215 302.02 130.685C302.02 132.085 301.658 133.357 300.935 134.5C300.235 135.643 299.208 136.553 297.855 137.23C296.502 137.907 294.903 138.245 293.06 138.245ZM304.513 128.2C304.513 126.193 304.887 124.432 305.633 122.915C306.403 121.398 307.442 120.232 308.748 119.415C310.055 118.598 311.513 118.19 313.123 118.19C314.5 118.19 315.702 118.47 316.728 119.03C317.778 119.59 318.583 120.325 319.143 121.235V118.47H325.128V138H319.143V135.235C318.56 136.145 317.743 136.88 316.693 137.44C315.667 138 314.465 138.28 313.088 138.28C311.502 138.28 310.055 137.872 308.748 137.055C307.442 136.215 306.403 135.037 305.633 133.52C304.887 131.98 304.513 130.207 304.513 128.2ZM319.143 128.235C319.143 126.742 318.723 125.563 317.883 124.7C317.067 123.837 316.063 123.405 314.873 123.405C313.683 123.405 312.668 123.837 311.828 124.7C311.012 125.54 310.603 126.707 310.603 128.2C310.603 129.693 311.012 130.883 311.828 131.77C312.668 132.633 313.683 133.065 314.873 133.065C316.063 133.065 317.067 132.633 317.883 131.77C318.723 130.907 319.143 129.728 319.143 128.235ZM338.243 132.4L342.478 118.47H348.848L341.918 138H334.533L327.603 118.47H334.008L338.243 132.4ZM369.777 127.92C369.777 128.48 369.742 129.063 369.672 129.67H356.127C356.221 130.883 356.606 131.817 357.282 132.47C357.982 133.1 358.834 133.415 359.837 133.415C361.331 133.415 362.369 132.785 362.952 131.525H369.322C368.996 132.808 368.401 133.963 367.537 134.99C366.697 136.017 365.636 136.822 364.352 137.405C363.069 137.988 361.634 138.28 360.047 138.28C358.134 138.28 356.431 137.872 354.937 137.055C353.444 136.238 352.277 135.072 351.437 133.555C350.597 132.038 350.177 130.265 350.177 128.235C350.177 126.205 350.586 124.432 351.402 122.915C352.242 121.398 353.409 120.232 354.902 119.415C356.396 118.598 358.111 118.19 360.047 118.19C361.937 118.19 363.617 118.587 365.087 119.38C366.557 120.173 367.701 121.305 368.517 122.775C369.357 124.245 369.777 125.96 369.777 127.92ZM363.652 126.345C363.652 125.318 363.302 124.502 362.602 123.895C361.902 123.288 361.027 122.985 359.977 122.985C358.974 122.985 358.122 123.277 357.422 123.86C356.746 124.443 356.326 125.272 356.162 126.345H363.652ZM380.88 138.28C379.176 138.28 377.66 137.988 376.33 137.405C375 136.822 373.95 136.028 373.18 135.025C372.41 133.998 371.978 132.855 371.885 131.595H377.8C377.87 132.272 378.185 132.82 378.745 133.24C379.305 133.66 379.993 133.87 380.81 133.87C381.556 133.87 382.128 133.73 382.525 133.45C382.945 133.147 383.155 132.762 383.155 132.295C383.155 131.735 382.863 131.327 382.28 131.07C381.696 130.79 380.751 130.487 379.445 130.16C378.045 129.833 376.878 129.495 375.945 129.145C375.011 128.772 374.206 128.2 373.53 127.43C372.853 126.637 372.515 125.575 372.515 124.245C372.515 123.125 372.818 122.11 373.425 121.2C374.055 120.267 374.965 119.532 376.155 118.995C377.368 118.458 378.803 118.19 380.46 118.19C382.91 118.19 384.835 118.797 386.235 120.01C387.658 121.223 388.475 122.833 388.685 124.84H383.155C383.061 124.163 382.758 123.627 382.245 123.23C381.755 122.833 381.101 122.635 380.285 122.635C379.585 122.635 379.048 122.775 378.675 123.055C378.301 123.312 378.115 123.673 378.115 124.14C378.115 124.7 378.406 125.12 378.99 125.4C379.596 125.68 380.53 125.96 381.79 126.24C383.236 126.613 384.415 126.987 385.325 127.36C386.235 127.71 387.028 128.293 387.705 129.11C388.405 129.903 388.766 130.977 388.79 132.33C388.79 133.473 388.463 134.5 387.81 135.41C387.18 136.297 386.258 136.997 385.045 137.51C383.855 138.023 382.466 138.28 380.88 138.28ZM317.98 166.43L311.575 191H304.33L300.41 174.83L296.35 191H289.105L282.875 166.43H289.28L292.815 184.315L297.19 166.43H303.77L307.97 184.315L311.54 166.43H317.98ZM319.792 181.2C319.792 179.193 320.165 177.432 320.912 175.915C321.682 174.398 322.72 173.232 324.027 172.415C325.333 171.598 326.792 171.19 328.402 171.19C329.778 171.19 330.98 171.47 332.007 172.03C333.057 172.59 333.862 173.325 334.422 174.235V171.47H340.407V191H334.422V188.235C333.838 189.145 333.022 189.88 331.972 190.44C330.945 191 329.743 191.28 328.367 191.28C326.78 191.28 325.333 190.872 324.027 190.055C322.72 189.215 321.682 188.037 320.912 186.52C320.165 184.98 319.792 183.207 319.792 181.2ZM334.422 181.235C334.422 179.742 334.002 178.563 333.162 177.7C332.345 176.837 331.342 176.405 330.152 176.405C328.962 176.405 327.947 176.837 327.107 177.7C326.29 178.54 325.882 179.707 325.882 181.2C325.882 182.693 326.29 183.883 327.107 184.77C327.947 185.633 328.962 186.065 330.152 186.065C331.342 186.065 332.345 185.633 333.162 184.77C334.002 183.907 334.422 182.728 334.422 181.235ZM355.621 185.925V191H352.576C350.406 191 348.715 190.475 347.501 189.425C346.288 188.352 345.681 186.613 345.681 184.21V176.44H343.301V171.47H345.681V166.71H351.666V171.47H355.586V176.44H351.666V184.28C351.666 184.863 351.806 185.283 352.086 185.54C352.366 185.797 352.833 185.925 353.486 185.925H355.621ZM377.365 180.92C377.365 181.48 377.33 182.063 377.26 182.67H363.715C363.808 183.883 364.193 184.817 364.87 185.47C365.57 186.1 366.422 186.415 367.425 186.415C368.918 186.415 369.957 185.785 370.54 184.525H376.91C376.583 185.808 375.988 186.963 375.125 187.99C374.285 189.017 373.223 189.822 371.94 190.405C370.657 190.988 369.222 191.28 367.635 191.28C365.722 191.28 364.018 190.872 362.525 190.055C361.032 189.238 359.865 188.072 359.025 186.555C358.185 185.038 357.765 183.265 357.765 181.235C357.765 179.205 358.173 177.432 358.99 175.915C359.83 174.398 360.997 173.232 362.49 172.415C363.983 171.598 365.698 171.19 367.635 171.19C369.525 171.19 371.205 171.587 372.675 172.38C374.145 173.173 375.288 174.305 376.105 175.775C376.945 177.245 377.365 178.96 377.365 180.92ZM371.24 179.345C371.24 178.318 370.89 177.502 370.19 176.895C369.49 176.288 368.615 175.985 367.565 175.985C366.562 175.985 365.71 176.277 365.01 176.86C364.333 177.443 363.913 178.272 363.75 179.345H371.24ZM386.508 174.725C387.208 173.652 388.083 172.812 389.133 172.205C390.183 171.575 391.349 171.26 392.633 171.26V177.595H390.988C389.494 177.595 388.374 177.922 387.628 178.575C386.881 179.205 386.508 180.325 386.508 181.935V191H380.523V171.47H386.508V174.725Z" fill="#0063A7"/>
<path d="M237.818 136.595C234.232 136.595 230.894 136.087 230.112 135.902C228.472 135.512 228.647 132.98 228.854 130.051C228.977 128.281 229.106 126.452 228.851 125.045C228.297 121.986 226.225 121.085 225.834 120.942C222.891 120.853 220.17 121.927 217.029 123.174C214.585 124.147 211.807 125.248 208.6 125.855C203.172 126.886 197.243 124.71 193.318 123.273C191.988 122.785 190.937 122.4 190.318 122.298C188.041 121.922 186.673 122.807 186.617 122.845C186.385 122.997 186.071 122.947 185.908 122.727C185.797 122.58 185.786 122.393 185.862 122.241C185.834 122.184 185.817 122.121 185.814 122.053C185.811 122.01 185.618 117.837 185.524 113.614C185.326 104.895 185.709 104.481 185.938 104.229C186.508 103.613 187.518 103.914 188.915 104.332C190.337 104.754 192.107 105.281 193.854 105.013C196.016 104.682 196.433 98.0192 196.188 93.8975C196.178 93.7651 196.228 93.6348 196.325 93.5386C196.421 93.4411 196.553 93.3867 196.694 93.3867H214.68C214.958 93.3867 215.182 93.5979 215.188 93.8626C215.188 93.9275 215.308 100.34 216.166 103.701C216.479 104.934 218.729 105.064 221.84 105.249C225.953 105.491 231.584 105.824 237.322 108.836C247.846 114.361 247.217 133.085 247.186 133.88C247.18 133.991 247.135 134.096 247.058 134.18C245.31 136.078 241.437 136.595 237.818 136.595Z" fill="#454545"/>
<path d="M225.494 119.97C225.646 119.97 225.799 119.973 225.951 119.979C225.998 119.98 226.043 119.988 226.087 120C226.211 120.038 229.148 120.972 229.852 124.879C230.128 126.401 229.995 128.288 229.867 130.113C229.722 132.188 229.544 134.771 230.358 134.962C233.209 135.641 243.252 136.502 246.17 133.666C246.212 131.74 246.286 114.647 236.827 109.681C231.291 106.776 225.792 106.45 221.777 106.212C218.228 106.002 215.666 105.848 215.176 103.929C214.421 100.968 214.222 95.9278 214.18 94.353H197.227C197.328 96.7689 197.45 105.442 194.014 105.967C192.028 106.272 190.053 105.681 188.612 105.252C187.951 105.056 186.963 104.759 186.723 104.86C186.329 105.879 186.472 114.157 186.817 121.67C187.572 121.379 188.837 121.075 190.489 121.347C191.21 121.464 192.302 121.865 193.685 122.374C197.5 123.769 203.265 125.882 208.398 124.909C211.508 124.318 214.114 123.284 216.639 122.285C219.631 121.095 222.466 119.97 225.494 119.97Z" fill="#909697"/>
<g opacity="0.5">
<path d="M237.452 133.304C230.861 130.71 235.335 123.532 233.406 118.677C232.351 116.02 230.205 113.667 227.183 112.965C225.176 112.498 223.144 112.278 221.201 111.591C219.413 110.963 218.567 109.353 219.227 107.696C219.481 107.049 219.959 106.543 220.554 106.136C217.65 105.942 215.61 105.622 215.176 103.929C214.421 100.967 214.222 95.9274 214.18 94.3525H197.227C197.328 96.7684 197.45 105.442 194.014 105.966C192.028 106.272 190.053 105.681 188.612 105.252C187.951 105.056 186.963 104.759 186.723 104.859C186.329 105.879 186.472 114.157 186.817 121.669C187.572 121.378 188.837 121.074 190.489 121.346C191.21 121.464 192.302 121.864 193.685 122.373C197.5 123.769 203.265 125.882 208.398 124.908C211.508 124.318 214.114 123.284 216.639 122.285C219.632 121.095 222.467 119.971 225.494 119.971C225.647 119.971 225.8 119.974 225.952 119.98C225.998 119.981 226.044 119.989 226.088 120C226.211 120.039 229.149 120.973 229.852 124.88C230.129 126.402 229.996 128.289 229.868 130.114C229.723 132.189 229.545 134.772 230.359 134.963C233.21 135.642 243.253 136.503 246.171 133.667C246.171 133.596 246.174 133.499 246.174 133.388C243.546 134.596 240.028 134.318 237.452 133.304Z" fill="#909697"/>
</g>
<g opacity="0.5">
<path d="M215.087 120.714C211.717 121.79 208.391 123.814 204.69 123.1C199.074 122.015 193.307 116.342 196.048 110.564C197.466 107.578 201.147 105.856 202.101 102.693C202.923 99.9647 203.134 97.1593 203.049 94.3525H197.227C197.327 96.7684 197.449 105.442 194.014 105.966C192.027 106.272 190.053 105.681 188.612 105.252C187.951 105.056 186.963 104.759 186.722 104.859C186.328 105.879 186.472 114.157 186.816 121.669C187.571 121.378 188.836 121.074 190.489 121.346C191.21 121.464 192.302 121.864 193.685 122.373C197.499 123.769 203.264 125.882 208.397 124.908C211.508 124.318 214.114 123.284 216.638 122.285C219.097 121.308 221.451 120.384 223.89 120.083C220.895 119.572 217.408 119.973 215.087 120.714Z" fill="#909697"/>
</g>
<path d="M205.88 93.5783H205.202C203.095 93.5783 201.445 92.6132 201.445 91.3833V78.0998C201.445 76.8692 203.095 75.9048 205.202 75.9048H205.88C207.986 75.9048 209.634 76.8699 209.634 78.0998V91.384C209.635 92.6139 207.986 93.5783 205.88 93.5783Z" fill="#454545"/>
<path d="M205.202 76.8711C203.635 76.8711 202.464 77.5198 202.464 78.1003V91.3845C202.464 91.9636 203.635 92.6151 205.202 92.6151H205.88C207.447 92.6151 208.619 91.9636 208.619 91.3845V78.1003C208.619 77.5198 207.447 76.8711 205.88 76.8711H205.202Z" fill="#909697"/>
<g opacity="0.5">
<path d="M205.201 76.8701C203.634 76.8701 202.463 77.5189 202.463 78.0993V91.3835C202.463 91.9626 203.634 92.6141 205.201 92.6141H205.879C207.446 92.6141 208.618 91.9626 208.618 91.3835V78.0993C208.618 77.5189 207.446 76.8701 205.879 76.8701H205.201Z" fill="#909697"/>
</g>
<g opacity="0.7">
<path d="M207.325 88.7092C207.698 88.7356 208.075 88.7586 208.451 88.7802C208.504 88.7851 208.562 88.7858 208.619 88.79V81.8392C208.23 81.8245 207.845 81.8141 207.458 81.8071C207.474 84.0997 207.522 86.418 207.325 88.7092Z" fill="#909697"/>
</g>
<g opacity="0.7">
<path d="M203.558 88.5112C203.773 86.2765 203.678 83.9846 203.651 81.7569C203.258 81.7506 202.862 81.7381 202.465 81.7241V88.5328C202.829 88.5167 203.194 88.5084 203.558 88.5112Z" fill="#909697"/>
</g>
<path d="M190.866 122.227C190.866 123.86 189.473 125.178 187.756 125.178H179.976C178.258 125.178 176.864 123.859 176.864 122.227V104.882C176.864 103.252 178.258 101.93 179.976 101.93H187.756C189.473 101.93 190.866 103.252 190.866 104.882V122.227Z" fill="#454545"/>
<path d="M190.343 121.331C190.343 122.84 189.054 124.064 187.466 124.064H180.266C178.675 124.064 177.386 122.84 177.386 121.331V105.277C177.386 103.77 178.675 102.547 180.266 102.547H187.466C189.054 102.547 190.343 103.77 190.343 105.277V121.331Z" fill="#B4B8BA"/>
<path opacity="0.5" d="M190.017 119.248C188.984 120.163 186.912 119.877 185.903 118.703C184.238 116.767 184.231 114.757 184.173 112.377C184.089 109.101 184.129 105.824 184.151 102.547H180.266C178.676 102.547 177.386 103.77 177.386 105.277V121.331C177.386 122.84 178.676 124.064 180.266 124.064H187.466C189.054 124.064 190.344 122.84 190.344 121.331V118.917C190.234 119.03 190.135 119.143 190.017 119.248Z" fill="#B4B8BA"/>
<path d="M182.167 125.232C182.167 127.367 180.346 129.096 178.095 129.096H167.916C165.667 129.096 163.845 127.368 163.845 125.232V102.536C163.845 100.403 165.667 98.6724 167.916 98.6724H178.095C180.346 98.6724 182.167 100.403 182.167 102.536V125.232Z" fill="#454545"/>
<path d="M181.679 123.849C181.679 125.812 180.457 127.402 178.947 127.402H172.113C170.602 127.402 169.378 125.812 169.378 123.849V102.96C169.378 100.997 170.602 99.4014 172.113 99.4014H178.947C180.457 99.4014 181.68 100.997 181.68 102.96L181.679 123.849Z" fill="#B4B8BA"/>
<path d="M215.889 97.5995H195.369C193.627 97.5995 192.211 96.2547 192.211 94.6018V94.0799C192.211 92.4256 193.627 91.085 195.369 91.085H215.889C217.631 91.085 219.047 92.4256 219.047 94.0799V94.6018C219.047 96.2547 217.631 97.5995 215.889 97.5995Z" fill="#454545"/>
<path d="M195.369 92.0493C194.19 92.0493 193.229 92.9594 193.229 94.0806V94.6025C193.229 95.723 194.19 96.6337 195.369 96.6337H215.89C217.07 96.6337 218.03 95.723 218.03 94.6025V94.0806C218.03 92.9594 217.07 92.0493 215.89 92.0493H195.369Z" fill="#B4B8BA"/>
<path opacity="0.5" d="M200.23 94.9899C202.568 95.022 209.498 94.8589 211.836 94.9188C213.694 94.9655 216.754 94.8331 217.711 93.0332C217.336 92.4458 216.664 92.0493 215.89 92.0493H195.368C194.251 92.0493 193.342 92.8681 193.247 93.905C194.148 95.0394 197.054 94.9495 200.23 94.9899Z" fill="#B4B8BA"/>
<path opacity="0.5" d="M198.895 93.9203C201.277 93.953 203.656 93.9217 206.04 93.8269C208.301 93.7398 211.09 93.9008 213.352 93.7962C214.608 93.7419 216.413 93.5628 216.968 92.3343C216.648 92.1594 216.284 92.0493 215.889 92.0493H195.368C194.801 92.0493 194.286 92.2639 193.904 92.6096C194.601 94.1029 197.244 93.8952 198.895 93.9203Z" fill="#B4B8BA"/>
<path d="M212.823 93.2006H197.332C195.951 93.2006 194.827 92.1324 194.827 90.8217V90.4266C194.827 89.1152 195.951 88.0483 197.332 88.0483H212.823C214.205 88.0483 215.33 89.1152 215.33 90.4266V90.8217C215.33 92.1324 214.204 93.2006 212.823 93.2006Z" fill="#454545"/>
<path d="M197.332 89.0132C196.513 89.0132 195.845 89.648 195.845 90.4263V90.8214C195.845 91.6012 196.513 92.2346 197.332 92.2346H212.823C213.644 92.2346 214.309 91.6012 214.309 90.8214V90.4263C214.309 89.648 213.644 89.0132 212.823 89.0132H197.332Z" fill="#B4B8BA"/>
<path opacity="0.5" d="M195.974 89.8833C195.896 90.0519 195.845 90.2317 195.845 90.4261V90.8212C195.845 91.601 196.513 92.2344 197.332 92.2344H212.823C213.644 92.2344 214.309 91.601 214.309 90.8212V90.4261C214.309 90.2812 214.283 90.146 214.241 90.0157C212.092 91.1515 197.208 91.4693 195.974 89.8833Z" fill="#B4B8BA"/>
<path opacity="0.5" d="M212.493 91.5334C211.553 91.6769 210.579 91.6916 209.977 91.718C209.051 91.7612 208.119 91.7961 207.187 91.8177C206.001 91.8637 204.814 91.8929 203.622 91.8846C203.327 91.8846 202.972 91.8846 202.58 91.8846C201.584 91.9856 200.521 91.8846 199.62 91.7605C198.31 91.5836 196.708 91.6428 195.843 90.6289V90.8219C195.843 91.6017 196.512 92.2351 197.33 92.2351H212.822C213.498 92.2351 214.061 91.8031 214.242 91.2156C213.687 91.417 213.095 91.4951 212.493 91.5334Z" fill="#B4B8BA"/>
<path d="M223.078 80.9346H188.156C186.826 80.9346 185.744 79.9075 185.744 78.6442V76.484C185.744 75.2221 186.827 74.1929 188.156 74.1929H223.078C224.407 74.1929 225.49 75.2221 225.49 76.484V78.6442C225.49 79.9075 224.407 80.9346 223.078 80.9346Z" fill="#454545"/>
<path d="M188.156 74.9321C187.254 74.9321 186.521 75.629 186.521 76.4846V78.6448C186.521 79.5005 187.254 80.1952 188.156 80.1952H223.078C223.98 80.1952 224.714 79.5005 224.714 78.6448V76.4846C224.714 75.629 223.98 74.9321 223.078 74.9321H188.156Z" fill="#B4B8BA"/>
<path d="M223.078 74.9321H218.895C218.319 76.6066 216.827 77.9584 214.416 77.9584C212.004 77.9584 210.514 76.6073 209.937 74.9321H200.909C200.312 76.5655 198.831 77.8734 196.458 77.8734C194.086 77.8734 192.604 76.5655 192.007 74.9321H188.156C187.254 74.9321 186.521 75.629 186.521 76.4846V78.6448C186.521 79.5005 187.254 80.1952 188.156 80.1952H223.078C223.98 80.1952 224.714 79.5005 224.714 78.6448V76.4846C224.715 75.629 223.98 74.9321 223.078 74.9321Z" fill="#B4B8BA"/>
<path d="M187.905 83.9364C184.202 83.9364 181.19 81.0773 181.19 77.5646C181.19 74.0533 184.202 71.1929 187.905 71.1929C191.606 71.1929 194.62 74.0526 194.62 77.5646C194.62 81.0773 191.606 83.9364 187.905 83.9364Z" fill="#454545"/>
<path d="M187.905 71.9312C184.63 71.9312 181.968 74.4578 181.968 77.5636C181.968 80.67 184.63 83.1974 187.905 83.1974C191.177 83.1974 193.843 80.67 193.843 77.5636C193.843 74.4578 191.177 71.9312 187.905 71.9312Z" fill="#909697"/>
<path opacity="0.5" d="M192.145 73.6289C193.32 76.3814 191.872 80.2452 187.793 80.2452C183.906 80.2452 182.407 76.7395 183.289 74.0289C182.465 74.9954 181.967 76.2253 181.967 77.5639C181.967 80.6703 184.629 83.1977 187.904 83.1977C191.176 83.1977 193.842 80.6703 193.842 77.5639C193.843 76.0329 193.192 74.6442 192.145 73.6289Z" fill="#909697"/>
<path d="M223.246 83.9364C219.545 83.9364 216.532 81.0773 216.532 77.5646C216.532 74.0533 219.546 71.1929 223.246 71.1929C226.949 71.1929 229.962 74.0526 229.962 77.5646C229.961 81.0773 226.949 83.9364 223.246 83.9364Z" fill="#454545"/>
<path d="M223.246 71.9312C219.973 71.9312 217.311 74.4578 217.311 77.5636C217.311 80.67 219.973 83.1974 223.246 83.1974C226.52 83.1974 229.185 80.67 229.185 77.5636C229.185 74.4578 226.52 71.9312 223.246 71.9312Z" fill="#909697"/>
<path d="M205.551 83.9364C201.847 83.9364 198.834 81.0773 198.834 77.5646C198.834 74.0533 201.848 71.1929 205.551 71.1929C209.251 71.1929 212.266 74.0526 212.266 77.5646C212.266 81.0773 209.251 83.9364 205.551 83.9364Z" fill="#454545"/>
<path d="M205.551 71.9312C202.275 71.9312 199.615 74.4578 199.615 77.5636C199.615 80.67 202.275 83.1974 205.551 83.1974C208.825 83.1974 211.487 80.67 211.487 77.5636C211.487 74.4578 208.825 71.9312 205.551 71.9312Z" fill="#909697"/>
<path opacity="0.5" d="M209.787 73.6211C210.963 76.3708 209.515 80.2367 205.434 80.2367C201.55 80.2367 200.05 76.731 200.932 74.019C200.108 74.9869 199.61 76.2175 199.61 77.5574C199.61 80.6618 202.273 83.1878 205.546 83.1878C208.821 83.1878 211.484 80.6618 211.484 77.5574C211.484 76.0258 210.835 74.6357 209.787 73.6211Z" fill="#909697"/>
<path opacity="0.5" d="M227.485 73.6094C228.663 76.3632 227.215 80.2271 223.133 80.2271C219.247 80.2271 217.751 76.7228 218.63 74.0094C217.805 74.9772 217.309 76.2078 217.309 77.5457C217.309 80.6522 219.972 83.1795 223.245 83.1795C226.519 83.1795 229.184 80.6522 229.184 77.5457C229.184 76.0141 228.537 74.626 227.485 73.6094Z" fill="#909697"/>
<g opacity="0.5">
<path d="M179.361 122.622C177.924 123.693 176.147 124.059 174.784 123.222C172.822 122.142 171.6 117.668 171.378 116.271C170.879 113.124 170.739 109.612 170.969 106.441C171.128 104.267 171.1 101.792 172.051 99.7568C172.058 99.7422 172.058 99.7303 172.062 99.7171C172.062 99.6356 172.059 99.5561 172.059 99.4746H168.297C166.215 99.4746 164.528 101.079 164.528 103.053V124.058C164.528 126.033 166.215 127.632 168.297 127.632H177.719C179.8 127.632 181.485 126.033 181.485 124.058V118.816C181.261 120.296 180.651 121.657 179.361 122.622Z" fill="#B4B8BA"/>
</g>
<path d="M178.823 100.638C177.458 100.054 175.822 100.374 174.434 100.679C174.287 100.711 174.307 100.917 174.444 100.947C175.446 101.169 176.462 101.291 177.473 101.471C178.24 101.606 178.737 101.982 179.17 102.575C179.514 103.044 179.519 103.616 179.853 104.085C180.155 104.508 180.788 104.36 180.929 103.891C181.313 102.619 179.979 101.136 178.823 100.638Z" fill="#B4B8BA"/>
<path d="M180.869 113.163C180.877 111.019 181.036 108.873 180.72 106.74C180.689 106.527 180.337 106.469 180.3 106.71C180.027 108.571 179.728 110.5 179.596 112.373C179.433 114.674 178.927 117.485 179.709 119.701C179.859 120.121 180.418 120.03 180.55 119.656C181.236 117.67 180.863 115.237 180.869 113.163Z" fill="#B4B8BA"/>
<path d="M189.049 106.732C188.97 105.514 189.053 103.333 187.373 103.271C187.221 103.264 187.168 103.492 187.308 103.551C188.825 104.191 188.408 108.022 188.402 109.304C188.386 111.675 188.582 114.254 189.03 116.585C189.064 116.76 189.378 116.74 189.395 116.567C189.722 113.351 189.258 109.955 189.049 106.732Z" fill="#B4B8BA"/>
<path d="M198.472 75.3821C198.06 75.0678 197.587 75.1431 197.091 75.1786C196.799 75.2002 196.421 75.1598 196.124 75.1431C195.787 75.1263 195.488 75.2594 195.156 75.249C195.093 75.2476 195.096 75.3256 195.144 75.3417C195.721 75.5312 196.438 75.5681 197.048 75.6329C197.472 75.6768 198.093 75.7653 198.458 75.5089C198.499 75.481 198.517 75.4183 198.472 75.3821Z" fill="#B4B8BA"/>
<path d="M216.466 75.3213C215.877 75.1345 215.346 75.1484 214.742 75.1484C214 75.145 213.203 75.1401 212.468 75.2321C212.372 75.2467 212.34 75.3909 212.45 75.4063C213.193 75.5136 213.95 75.5275 214.696 75.6097C215.296 75.6738 215.893 75.6927 216.472 75.5094C216.574 75.4773 216.559 75.3498 216.466 75.3213Z" fill="#B4B8BA"/>
<path d="M226.329 73.3085C224.487 71.3546 220.348 72.3434 219.222 74.567C219.195 74.6199 219.262 74.6959 219.318 74.6506C220.323 73.8527 221.089 73.4681 222.369 73.2848C223.672 73.0953 224.912 73.1064 226.163 73.5322C226.316 73.5824 226.439 73.4263 226.329 73.3085Z" fill="#B4B8BA"/>
<path d="M208.457 73.3085C206.616 71.3546 202.476 72.3434 201.35 74.567C201.325 74.6199 201.392 74.6959 201.446 74.6506C202.449 73.8527 203.216 73.4681 204.501 73.2848C205.802 73.0953 207.042 73.1064 208.292 73.5322C208.444 73.5824 208.569 73.4263 208.457 73.3085Z" fill="#B4B8BA"/>
<path d="M190.776 73.3085C188.935 71.3546 184.794 72.3434 183.67 74.567C183.644 74.6199 183.709 74.6959 183.765 74.6506C184.769 73.8527 185.534 73.4681 186.817 73.2848C188.119 73.0953 189.361 73.1064 190.611 73.5322C190.763 73.5824 190.889 73.4263 190.776 73.3085Z" fill="#B4B8BA"/>
<path d="M240.661 113.703C238.86 111.469 236.795 109.619 233.905 108.872C232.382 108.479 230.883 108.258 229.315 108.122C227.75 107.984 226.24 107.617 224.666 107.508C224.585 107.502 224.557 107.6 224.638 107.625C225.845 108.007 227.064 108.406 228.295 108.707C229.583 109.022 230.917 109.122 232.196 109.471C233.896 109.939 235.36 110.329 236.764 111.39C237.837 112.203 238.818 113.293 239.677 114.3C241.694 116.658 242.902 119.753 243.447 122.716C243.753 124.37 244.153 126.004 244.295 127.68C244.428 129.256 244.388 130.834 244.574 132.408C244.593 132.561 244.848 132.596 244.868 132.429C245.606 126.154 244.826 118.866 240.661 113.703Z" fill="#B4B8BA"/>
<path d="M212.422 89.3123C210.199 89.3249 207.977 89.1318 205.747 89.1318C204.47 89.1339 203.187 89.1674 201.911 89.2092C200.524 89.2517 199.117 89.5297 197.731 89.412C197.652 89.4064 197.621 89.5116 197.705 89.5297C202.503 90.699 207.622 89.9764 212.425 89.3736C212.469 89.3681 212.469 89.3123 212.422 89.3123Z" fill="#B4B8BA"/>
<path d="M214.584 95.2961C212.933 95.4125 211.255 95.3623 209.593 95.4654C207.876 95.5713 206.143 95.5943 204.42 95.5943C202.803 95.5943 201.17 95.563 199.555 95.4529C197.853 95.3393 196.109 95.51 194.425 95.3289C194.356 95.3198 194.304 95.4166 194.381 95.4508C195.613 95.9929 197.201 95.6954 198.537 95.8835C200.32 96.1358 202.137 96.1197 203.935 96.1197C207.396 96.1197 211.243 96.3323 214.602 95.4229C214.68 95.4027 214.66 95.2905 214.584 95.2961Z" fill="#B4B8BA"/>
<path d="M237.282 136.203C237.282 136.203 235.959 151.384 228.819 163.398C221.678 175.411 214.141 182.936 214.009 193.364C213.876 203.793 224.323 208.018 239.001 206.962C253.679 205.906 262.36 200.602 259.101 187.424C256.456 176.731 246.776 168.208 243.365 158.777C239.926 149.272 237.282 136.203 237.282 136.203Z" fill="#0271B0"/>
<path d="M260.001 194.025C260.001 206.714 249.697 217 236.987 217C224.277 217 213.973 206.714 213.973 194.025C213.973 181.336 224.277 171.05 236.987 171.05C249.697 171.05 260.001 181.336 260.001 194.025Z" fill="#0271B0"/>
<path d="M224.348 175.555C224.531 175.457 224.69 175.335 224.828 175.179C224.924 175.072 225.018 174.957 225.147 174.888C225.436 174.735 225.84 174.703 226.161 174.754C226.402 174.792 226.599 174.938 226.454 175.194C226.399 175.292 226.447 175.407 226.422 175.515C226.407 175.587 226.384 175.657 226.343 175.72C226.254 175.859 226.131 175.956 225.985 176.024C226.382 176.252 226.41 176.673 226.375 177.1C226.604 177.102 226.723 177.007 226.734 176.768C226.74 176.638 226.726 176.48 226.806 176.369C226.901 176.235 227.105 176.177 227.262 176.215C227.48 176.268 227.638 176.374 227.869 176.29C227.884 176.285 227.907 176.29 227.912 176.308C227.976 176.533 227.969 176.756 227.797 176.929C227.644 177.082 227.41 177.14 227.198 177.162C227.056 177.316 227.104 177.528 227.044 177.715C226.999 177.854 226.907 177.963 226.775 178.026C226.668 178.079 226.57 178.076 226.455 178.055C226.292 178.026 226.034 178.016 225.932 178.178C225.854 178.3 225.862 178.487 225.748 178.587C225.657 178.665 225.526 178.68 225.411 178.696C225.345 178.705 225.278 178.711 225.213 178.725C225.137 178.74 225.103 178.822 225.078 178.889C225.035 179.004 225.018 179.124 224.98 179.24C224.944 179.351 224.887 179.462 224.788 179.529C224.731 179.567 224.671 179.601 224.605 179.62C224.497 179.651 224.521 179.734 224.527 179.839C224.545 180.149 224.659 180.582 224.427 180.843C224.305 180.981 224.119 181.077 224.037 181.249C223.953 181.426 223.959 181.643 223.986 181.833C224.029 182.14 224.082 182.428 224.047 182.731C224.153 182.56 224.271 182.396 224.341 182.206C224.348 182.188 224.377 182.18 224.391 182.194C224.545 182.346 224.698 182.452 224.898 182.533C224.908 182.536 224.916 182.547 224.916 182.559C224.927 182.767 225.025 182.956 225.04 183.162C225.098 183.14 225.158 183.123 225.216 183.097C225.237 183.088 225.257 183.107 225.247 183.129C225.133 183.395 225.061 183.69 225.043 183.979C225.034 184.122 225.054 184.119 225.161 184.187C225.202 184.213 225.241 184.251 225.269 184.292C225.454 184.553 225.413 184.91 225.38 185.211C225.379 185.228 225.368 185.238 225.35 185.236C225.292 185.226 225.16 185.177 225.228 185.291C225.26 185.344 225.293 185.396 225.331 185.446C225.413 185.551 225.505 185.645 225.591 185.747C225.67 185.841 225.741 185.938 225.796 186.048C225.813 186.08 225.822 186.186 225.882 186.126C225.916 186.093 225.946 186.071 225.986 186.046C225.997 186.04 226.011 186.045 226.018 186.055C226.193 186.349 226.297 186.659 226.162 186.99C226.119 187.095 226.14 187.091 226.227 187.15C226.285 187.189 226.344 187.23 226.397 187.277C226.509 187.373 226.611 187.479 226.709 187.591C226.564 187.208 226.441 186.816 226.323 186.424C226.203 186.031 226.056 185.663 225.897 185.285C225.829 185.123 225.759 184.956 225.727 184.782C225.701 184.646 225.651 184.504 225.652 184.366C225.655 184.128 225.81 183.887 225.884 183.669C225.888 183.658 225.897 183.645 225.91 183.646C225.997 183.649 226.08 183.666 226.161 183.688C226.169 183.624 226.166 183.561 226.185 183.498C226.192 183.477 226.214 183.468 226.231 183.483C226.635 183.83 226.412 184.372 226.538 184.816C226.573 184.938 226.643 185.045 226.774 185.077C226.81 185.086 226.889 185.081 226.917 185.104C226.972 185.149 227.023 185.233 227.057 185.295C227.116 185.404 227.171 185.539 227.118 185.664C227.08 185.754 226.986 185.803 227.108 185.864C227.183 185.9 227.259 185.928 227.339 185.954C227.351 185.959 227.358 185.975 227.356 185.988C227.345 186.043 227.233 186.191 227.336 186.167C227.382 186.156 227.423 186.145 227.467 186.168C227.478 186.174 227.486 186.187 227.484 186.201C227.433 186.457 227.752 186.759 227.898 186.936C228.024 187.089 228.184 187.253 228.289 187.435C228.345 187.475 228.401 187.517 228.436 187.573C228.488 187.651 228.482 187.771 228.604 187.744C228.627 187.738 228.645 187.762 228.642 187.782C228.614 188.051 228.644 188.304 228.715 188.563C228.775 188.781 228.839 189.001 228.854 189.228C228.874 189.546 228.777 189.769 228.614 190.035C228.549 190.143 228.441 190.293 228.471 190.428C228.507 190.6 228.713 190.711 228.864 190.767C229.231 190.9 229.638 190.78 230.018 190.795C230.383 190.809 230.673 190.93 230.938 191.181C231.06 191.297 231.207 191.493 231.379 191.538C231.571 191.59 231.767 191.465 231.916 191.36C232.028 191.28 232.149 191.187 232.289 191.166C232.41 191.146 232.538 191.152 232.659 191.166C233.149 191.218 233.896 191.409 234.041 191.96C234.044 191.971 234.038 191.988 234.028 191.995C233.951 192.052 233.91 192.127 233.857 192.199C234.116 192.261 234.353 192.375 234.572 192.528C234.809 192.694 235.033 192.886 235.301 192.999C235.702 193.167 236.139 193.298 236.568 193.373C236.667 193.39 236.769 193.407 236.87 193.408C236.916 193.408 237.018 193.37 237.056 193.384C237.15 193.422 237.247 193.53 237.318 193.598C237.416 193.692 237.509 193.789 237.596 193.894C237.949 194.31 238.27 194.787 238.475 195.295C238.777 195.181 239.015 195.29 239.215 195.538C239.311 195.658 239.401 195.801 239.531 195.885C239.708 195.999 239.896 195.93 240.06 195.827C240.08 195.815 240.104 195.818 240.115 195.841C240.192 195.994 240.349 196.385 240.571 196.385C240.715 196.385 240.823 196.218 240.898 196.117C241.042 195.925 241.193 195.689 241.413 195.58C241.398 195.578 241.382 195.577 241.367 195.578C241.337 195.578 241.338 195.533 241.366 195.532C241.414 195.529 241.461 195.533 241.508 195.542C241.543 195.531 241.58 195.523 241.618 195.52C241.655 195.517 241.669 195.564 241.647 195.582C241.967 195.708 242.249 196.046 242.412 196.3C242.593 196.583 242.822 197.065 242.531 197.348C242.728 197.513 242.852 197.777 242.912 198.02C242.956 198.194 243.021 198.577 242.838 198.707C242.779 198.749 242.675 198.756 242.606 198.77C242.469 198.798 242.331 198.822 242.198 198.858C241.855 198.95 241.72 199.285 241.552 199.565C241.372 199.865 241.135 200.13 241.011 200.463C240.906 200.745 240.842 201.054 240.795 201.351C240.75 201.636 240.73 201.927 240.645 202.202C240.589 202.384 240.501 202.573 240.325 202.657C240.694 202.928 241.033 203.231 241.281 203.618C241.511 203.974 241.685 204.362 241.917 204.716C242.149 205.069 242.384 205.431 242.539 205.826C242.648 206.105 242.756 206.467 242.577 206.737C242.897 206.883 243.171 207.102 243.462 207.299C243.624 207.408 243.801 207.532 243.992 207.586C244.15 207.632 244.311 207.649 244.473 207.672C244.723 207.707 244.978 207.771 245.142 207.98C245.273 208.146 245.316 208.31 245.327 208.52C245.351 209.048 245.271 209.59 245.166 210.107C245.122 210.324 245.075 210.542 245.001 210.751C244.912 211.003 244.748 211.214 244.572 211.413C244.27 211.753 243.992 212.066 243.848 212.506C243.704 212.946 243.61 213.401 243.463 213.841C243.372 214.112 243.266 214.38 243.191 214.656C243.155 214.791 243.059 215.093 243.222 215.188C243.457 215.321 243.869 215.119 244.082 215.031C244.434 214.887 244.742 214.646 245.04 214.414C245.345 214.175 245.643 213.923 245.971 213.714C246.128 213.615 246.295 213.518 246.472 213.456C246.472 213.417 246.472 213.378 246.471 213.338C246.471 213.322 246.481 213.302 246.5 213.302C246.552 213.302 246.61 213.301 246.669 213.302C246.705 213.283 246.741 213.267 246.779 213.261C246.848 213.247 246.91 213.25 246.979 213.259C247.007 213.262 247.039 213.293 247.065 213.3C247.08 213.305 247.09 213.318 247.092 213.333C247.117 213.324 247.142 213.316 247.167 213.307C247.419 213.205 247.648 213.058 247.858 212.886C248.287 212.533 248.649 212.104 249.091 211.765C249.652 211.337 250.269 210.981 250.834 210.559C251.387 210.147 251.911 209.699 252.374 209.187C252.288 209.2 252.203 209.226 252.124 209.262C252.105 209.27 252.081 209.256 252.08 209.235C252.072 209.123 252.152 209.021 252.223 208.942C252.347 208.801 252.49 208.681 252.636 208.565C253.011 208.269 253.41 208.004 253.799 207.725C254.186 207.447 254.562 207.131 254.901 206.796C255.331 206.369 255.65 205.839 255.422 205.224C255.419 205.215 255.42 205.202 255.427 205.195C255.688 204.949 255.952 204.684 256.091 204.347C256.23 204.012 256.296 203.65 256.405 203.305C256.506 202.984 256.728 202.784 256.98 202.577C257.148 202.439 257.326 202.281 257.432 202.088C257.537 201.896 257.581 201.684 257.6 201.467C257.635 201.094 257.666 200.747 257.811 200.397C257.862 200.271 257.929 200.145 257.941 200.008C257.948 199.922 257.945 199.837 257.933 199.752C257.92 199.649 257.928 199.56 257.823 199.518C257.536 199.402 257.21 199.333 256.974 199.121C256.928 199.079 256.885 199.026 256.857 198.969C256.818 198.886 256.658 198.937 256.583 198.947C256.386 198.975 256.174 199.023 255.975 198.989C255.842 198.967 255.787 198.929 255.732 198.805C255.684 198.7 255.621 198.449 255.479 198.449C255.254 198.449 254.918 198.629 254.732 198.446C254.568 198.287 254.555 198.073 254.532 197.86C254.519 197.746 254.504 197.615 254.426 197.525C254.361 197.449 254.276 197.407 254.184 197.382C254.173 197.391 254.158 197.393 254.144 197.381C254.139 197.377 254.135 197.373 254.131 197.368C254.085 197.359 254.038 197.352 253.991 197.347C253.975 197.346 253.958 197.332 253.956 197.315C253.947 197.2 253.885 197.122 253.831 197.026C253.828 197.02 253.826 197.015 253.826 197.009C253.732 196.881 253.643 196.749 253.548 196.624C253.34 196.353 253.105 196.037 252.79 195.886C252.591 195.791 252.403 195.807 252.196 195.863C252.064 195.899 251.934 195.927 251.798 195.888C251.624 195.839 251.466 195.746 251.339 195.616C251.274 195.547 251.213 195.474 251.163 195.394C251.135 195.349 251.089 195.21 251.036 195.205C250.67 195.162 250.443 194.85 250.19 194.619C250.071 194.51 249.933 194.371 249.785 194.302C249.716 194.27 249.645 194.275 249.571 194.269C249.39 194.254 249.214 194.207 249.033 194.181C248.821 194.15 248.606 194.128 248.392 194.115C247.92 194.089 247.446 194.101 246.978 194.18C246.957 194.184 246.936 194.163 246.94 194.141C246.949 194.086 246.973 194.013 246.91 193.986C246.87 193.967 246.829 193.948 246.789 193.927C246.705 193.886 246.621 193.842 246.537 193.798C246.406 193.728 246.275 193.649 246.137 193.594C246.079 193.729 245.951 193.81 245.894 193.945C245.885 193.964 245.866 193.971 245.848 193.965C245.665 193.909 245.474 193.891 245.291 193.836C245.265 193.828 245.265 193.792 245.283 193.777C245.349 193.723 245.419 193.668 245.478 193.604C245.484 193.598 245.544 193.518 245.546 193.518C245.47 193.511 245.386 193.547 245.317 193.573C245.113 193.649 244.91 193.746 244.72 193.85C244.454 193.994 244.191 194.185 243.888 194.242C243.807 194.257 243.727 194.265 243.645 194.264C243.575 194.264 243.523 194.361 243.482 194.406C243.422 194.476 243.333 194.559 243.267 194.65C243.295 194.639 243.323 194.629 243.351 194.626C243.383 194.622 243.405 194.668 243.376 194.685C243.373 194.686 243.37 194.688 243.367 194.69C243.388 194.698 243.401 194.723 243.387 194.743C243.387 194.752 243.382 194.757 243.375 194.763C243.375 194.769 243.376 194.775 243.376 194.781C243.384 194.778 243.392 194.775 243.402 194.773C243.423 194.772 243.442 194.796 243.43 194.815C243.417 194.84 243.399 194.855 243.38 194.863C243.382 194.961 243.366 195.06 243.3 195.122C243.205 195.211 243.08 195.18 242.972 195.134C242.876 195.505 242.522 195.754 242.152 195.527C242.057 195.469 241.972 195.392 241.913 195.297C241.887 195.253 241.861 195.209 241.843 195.162C241.806 195.062 241.773 195.061 241.661 195.067C241.394 195.082 241.08 195.148 240.876 195.335C240.756 195.821 239.781 195.567 239.775 195.054C239.764 195.048 239.754 195.042 239.745 195.036C239.634 195.086 239.44 194.981 239.339 194.947C239.324 194.942 239.316 194.926 239.318 194.91C239.339 194.603 239.135 194.417 239.048 194.146C238.986 193.953 238.997 193.737 239.056 193.544C239.126 193.312 239.168 193.072 239.192 192.829C239.209 192.662 239.224 192.471 239.153 192.313C239.028 192.033 238.697 191.957 238.418 191.926C238.043 191.885 237.742 192.088 237.386 192.158C237.083 192.218 236.778 192.113 236.607 191.84C236.47 191.621 236.545 191.41 236.693 191.217C236.894 190.952 237.102 190.749 237.13 190.399C237.15 190.161 237.093 189.911 237.153 189.678C237.184 189.562 237.251 189.454 237.331 189.367C237.382 189.312 237.435 189.257 237.493 189.208C237.569 189.144 237.67 189.099 237.574 189.003C237.324 188.756 236.901 188.886 236.613 188.99C236.456 189.045 236.303 189.109 236.148 189.168C236.036 189.209 235.901 189.249 235.807 189.326C235.716 189.402 235.798 189.56 235.786 189.665C235.756 189.924 235.588 190.226 235.372 190.376C235.123 190.546 234.83 190.543 234.545 190.477C234.23 190.403 233.927 190.298 233.608 190.236C233.38 190.191 233.148 190.191 232.919 190.148C232.771 190.12 232.559 190.075 232.493 189.918C232.41 189.72 232.547 189.501 232.662 189.338C232.39 189.28 232.236 188.996 232.152 188.751C232.035 188.412 231.98 188.039 232.005 187.681C232.028 187.335 232.19 187.103 232.426 186.861C232.54 186.744 232.692 186.608 232.725 186.442C232.769 186.218 232.62 186.028 232.477 185.873C232.468 185.863 232.469 185.843 232.479 185.834C232.634 185.666 232.841 185.563 233.045 185.464C233.127 185.425 233.213 185.385 233.298 185.343C233.296 185.336 233.298 185.328 233.308 185.325C233.362 185.302 233.414 185.275 233.466 185.247C233.537 185.199 233.601 185.146 233.653 185.08C233.66 185.073 233.67 185.082 233.665 185.09C233.646 185.115 233.625 185.14 233.604 185.162C233.794 185.037 233.971 184.887 234.16 184.767C234.385 184.626 234.704 184.423 234.985 184.507C235.12 184.547 235.226 184.641 235.293 184.765C235.317 184.81 235.372 185.012 235.415 185.019C235.522 185.036 235.629 185.055 235.736 185.073C236.185 185.144 236.743 185.216 237.075 184.841C236.963 184.794 236.863 184.738 236.736 184.731C236.714 184.73 236.702 184.696 236.718 184.681C237.112 184.316 237.723 184.577 238.194 184.542C238.207 184.541 238.22 184.55 238.225 184.562C238.234 184.583 238.275 184.756 238.282 184.756C238.347 184.758 238.413 184.761 238.478 184.758C238.644 184.75 238.75 184.678 238.859 184.554C238.869 184.542 238.889 184.539 238.9 184.551C239.197 184.856 239.382 185.242 239.633 185.581C239.646 185.599 239.632 185.625 239.611 185.626C239.519 185.633 239.434 185.66 239.353 185.695C239.589 186.06 239.917 186.445 240.307 186.646C240.316 186.651 240.322 186.668 240.315 186.678C240.199 186.837 240.101 187.006 239.994 187.17C240.08 187.167 240.167 187.163 240.247 187.125C240.339 187.083 240.409 187.019 240.478 186.947C240.548 186.874 240.617 186.799 240.698 186.737C240.725 186.717 240.746 186.696 240.758 186.676C240.759 186.642 240.757 186.608 240.752 186.577C240.745 186.566 240.738 186.552 240.725 186.539C240.687 186.492 240.64 186.456 240.595 186.416C240.566 186.392 240.592 186.338 240.63 186.356C240.657 186.37 240.681 186.387 240.704 186.405C240.63 186.227 240.504 186.071 240.449 185.877C240.279 185.704 240.245 185.481 240.445 185.275C240.494 185.224 240.508 185.225 240.455 185.18C240.42 185.15 240.387 185.12 240.355 185.086C240.301 185.03 240.259 184.964 240.222 184.896C240.163 184.794 240.123 184.675 240.106 184.555C240.086 184.556 240.067 184.531 240.083 184.511C240.089 184.505 240.093 184.501 240.098 184.497C240.098 184.493 240.098 184.49 240.098 184.487C240.097 184.474 240.106 184.465 240.115 184.462C240.111 184.457 240.104 184.452 240.094 184.446C240.056 184.423 240.018 184.398 239.994 184.359C239.947 184.283 239.925 184.197 239.932 184.107C239.945 183.901 240.029 183.689 240.151 183.524C240.276 183.354 240.46 183.29 240.66 183.251C240.941 183.196 241.105 183.092 241.193 182.818C240.831 182.662 241.419 182.311 241.567 182.225C241.742 182.125 241.918 182.033 242.104 181.955C242.379 181.84 242.685 181.702 242.737 181.385C242.54 181.413 242.319 181.485 242.18 181.296C242.105 181.193 242.063 181.085 242.063 180.956C242.064 180.764 242.064 180.629 241.9 180.498C241.881 180.484 241.877 180.455 241.897 180.44C242.212 180.189 242.534 179.944 242.886 179.748C243.041 179.663 243.218 179.61 243.369 179.521C243.484 179.453 243.46 179.351 243.406 179.245C243.337 179.106 243.216 179.041 243.062 179.052C243.024 179.054 243.004 179.013 243.032 178.987C243.044 178.975 243.057 178.965 243.069 178.953C242.818 179.042 242.553 179.115 242.307 179.062C241.908 178.978 241.56 178.74 241.135 178.83C240.793 178.902 240.47 179.061 240.113 178.976C239.803 178.903 239.559 178.626 239.455 178.333C239.262 178.378 239.265 178.517 239.208 178.685C239.174 178.786 239.1 178.82 238.996 178.802C238.549 178.727 238.522 178.24 238.317 177.929C238.304 177.908 238.306 177.882 238.329 177.87C238.697 177.688 239.099 178.343 239.388 177.926C239.399 177.91 239.422 177.908 239.437 177.919C239.691 178.102 239.876 178.374 240.146 178.535C240.292 178.623 240.456 178.663 240.626 178.671C240.706 178.674 240.786 178.674 240.865 178.676C240.951 178.678 241.007 178.689 241.008 178.583C241.009 178.564 241.031 178.551 241.047 178.553C241.287 178.583 241.513 178.662 241.746 178.716C242.006 178.776 242.253 178.779 242.509 178.698C242.694 178.641 242.896 178.541 243.092 178.531C243.282 178.522 243.467 178.558 243.652 178.599C243.864 178.647 244.078 178.701 244.297 178.701C244.525 178.702 244.723 178.626 244.94 178.564C245.217 178.486 245.683 178.376 245.679 178.013C245.678 177.998 245.689 177.981 245.707 177.981C245.847 177.978 245.983 177.963 246.117 177.924C246.391 177.427 244.813 177.45 245.183 176.759C245.193 176.741 245.21 176.731 245.23 176.739C245.442 176.822 245.629 176.965 245.845 177.037C246.102 177.125 246.366 177.085 246.627 177.136C246.905 177.19 247.161 177.325 247.437 177.393C247.579 177.427 247.72 177.457 247.862 177.485C247.889 177.491 248.073 177.551 248.062 177.481C248.055 177.436 248.043 177.393 248.023 177.352C247.896 177.098 247.712 176.982 247.44 176.918C247.28 176.881 247.14 176.841 247.096 176.669C247.067 176.562 246.908 176.472 246.823 176.41C246.735 176.346 246.645 176.282 246.549 176.23C246.428 176.163 246.289 176.095 246.147 176.083C246.011 176.072 246.023 176.114 245.982 176.23C245.972 176.258 245.933 176.267 245.914 176.242C245.807 176.109 245.702 175.96 245.555 175.868C245.415 175.78 245.296 175.76 245.138 175.746C244.926 175.727 244.73 175.669 244.675 175.437C244.654 175.354 244.658 175.273 244.679 175.192C244.694 175.128 244.737 175.033 244.701 174.97C244.625 174.841 244.402 174.805 244.27 174.777C244.118 174.744 243.962 174.728 243.812 174.688C243.604 174.629 243.326 174.502 243.244 174.283C243.207 174.184 243.159 174.174 243.048 174.156C242.888 174.13 242.732 174.1 242.579 174.047C242.416 173.989 242.258 173.918 242.095 173.862C241.912 173.798 241.732 173.765 241.542 173.735C241.162 173.674 240.791 173.568 240.43 173.432C240.409 173.424 240.403 173.405 240.407 173.388C240.235 173.311 239.98 173.334 239.805 173.328C239.557 173.319 239.313 173.278 239.068 173.238C238.793 173.192 238.561 173.081 238.305 172.978C238.069 172.882 237.821 172.794 237.618 172.637C237.598 172.621 237.597 172.595 237.615 172.578C238.155 172.067 238.896 172.589 239.431 172.835C239.831 173.019 240.281 173.089 240.712 173.165C241.118 173.237 241.527 173.284 241.939 173.306C241.818 173.243 241.715 173.155 241.635 173.036C241.619 173.012 241.629 172.983 241.658 172.975C242.729 172.706 243.668 173.634 244.73 173.364C244.681 173.332 244.634 173.301 244.583 173.279C244.561 173.27 244.552 173.234 244.575 173.22C244.943 172.989 245.233 173.153 245.573 173.342C246.064 173.611 246.57 173.548 247.105 173.574C247.259 173.581 247.412 173.598 247.564 173.619C244.397 171.98 240.8 171.053 236.985 171.053C232.197 171.053 227.749 172.514 224.065 175.013C224.242 175.126 224.326 175.33 224.348 175.555Z" fill="#0271B0"/>
<path d="M223.713 210.644C224.208 209.763 224.72 208.894 225.254 208.038C225.321 207.93 225.389 207.822 225.456 207.715C223.263 205.972 221.619 203.625 220.489 201.143C219.075 198.036 218.378 194.717 218.405 191.329C218.438 187.18 220.096 183.401 221.638 179.593C221.753 179.307 221.34 179.125 221.187 179.394C219.029 183.183 216.61 186.916 215.749 191.212C215.018 194.859 215.969 199.088 217.425 202.469C218.782 205.617 220.868 208.563 223.713 210.644Z" fill="white"/>
<path d="M227.342 208.975C227.239 209.141 227.135 209.307 227.032 209.474C226.549 210.259 226.082 211.055 225.629 211.86C228.637 213.527 232.151 214.475 235.595 214.158C235.805 213.396 236.02 212.633 236.241 211.874C233.211 211.128 230.047 210.483 227.342 208.975Z" fill="white"/>
<path d="M256.067 182.475C253.971 178.431 251.025 174.843 248.367 171.165C245.633 167.383 243.402 163.42 241.797 159.03C240.994 156.833 240.296 154.591 239.675 152.337C238.991 149.857 238.244 147.361 237.715 144.847C237.705 144.8 237.631 144.806 237.641 144.853C238.124 147.15 238.382 149.491 238.825 151.8C239.251 154.021 239.729 156.248 240.391 158.411C241.764 162.9 243.923 166.947 246.527 170.836C249.005 174.539 251.769 178.051 254.048 181.885C255.178 183.787 256.278 185.767 257.158 187.798C258.157 190.107 258.534 192.662 258.542 195.159C258.542 195.367 258.865 195.34 258.863 195.132C258.812 190.807 258.071 186.34 256.067 182.475Z" fill="white"/>
<path d="M172.28 112.6C172.28 158.675 136.215 196.026 91.7263 196.026C47.2374 196.026 11.1748 158.675 11.1748 112.6C11.1748 66.5287 47.2374 29.1772 91.7263 29.1772C136.215 29.1772 172.28 66.5287 172.28 112.6Z" fill="#0266AE"/>
<path d="M172.28 112.6H172.108C172.108 135.594 163.11 156.398 148.566 171.466C134.018 186.529 113.925 195.849 91.7268 195.849C69.5294 195.849 49.4381 186.53 34.8908 171.466C20.3436 156.397 11.3455 135.594 11.3455 112.6C11.3455 89.6154 20.3436 68.8053 34.8918 53.7399C49.4381 38.6744 69.5294 29.3578 91.7268 29.3578C113.925 29.3578 134.017 38.6744 148.566 53.7399C163.109 68.8053 172.108 89.6154 172.108 112.6H172.28H172.454C172.454 66.4313 136.313 29 91.7278 29C47.1447 29 11.001 66.4323 11.001 112.6C11.001 158.774 47.1447 196.204 91.7278 196.204C136.314 196.204 172.454 158.773 172.454 112.6H172.28Z" fill="#06496E"/>
<path d="M69.5577 41.54C72.3568 42.3842 73.7558 45.5101 72.5651 47.852C70.9277 51.0744 65.8904 51.846 66.0927 56.0153C66.288 60.0446 68.1116 61.2746 68.6013 65.2966C69.0259 68.7825 69.9693 73.6808 69.5577 77.2424C68.9028 82.9259 70.2467 86.9904 66.0927 90.5198C63.3266 92.8689 64.8308 98.3253 62.3802 100.951C59.6232 103.909 55.8888 102.377 52.7071 104.057C48.0914 106.496 51.1749 112.313 48.7654 116.198C44.9228 122.4 35.8926 118.572 33.9307 126.993C32.7861 131.909 33.3729 138.56 35.0564 143.272C35.8205 145.41 39.2916 153.154 41.8483 153.43C43.9824 150.155 43.4026 145.498 44.422 141.775C45.792 136.783 50.2586 129.72 56.0851 130.281C59.9026 130.651 59.0013 136.127 58.5156 139.358C57.7946 144.15 56.7671 144.132 59.6583 147.961C62.6096 151.874 61.8525 156.387 64.1628 160.653C65.1773 162.531 66.9169 162.013 68.8126 161.496C70.0494 161.159 71.3543 160.822 72.5641 161.15C75.265 161.888 82.2382 161.447 82.4135 164.69C82.6909 169.795 90.4592 175.501 95.12 172.937C95.3584 171.203 100.249 171.211 102.001 170.415C103.864 169.566 105.736 168.574 107.755 168.198C109.175 167.943 110.536 168.192 111.885 168.441C113.064 168.662 114.236 168.882 115.419 168.76C117.888 168.503 117.78 167.056 119.353 165.384C121.246 163.384 124.391 162.759 127.053 162.766C133.341 162.776 131.252 168.708 130.911 173.029C137.871 173.894 140.931 163.006 141.256 157.565C141.46 154.241 142.443 151.006 142.654 147.725C142.838 144.897 142.504 142.816 143.913 140.248C145.183 137.925 147.186 135.904 149.757 135.281C151.919 134.762 153.391 135.061 154.91 132.974C156.394 130.928 158.154 126.973 157.277 124.326C155.742 119.708 152.014 123.188 149.061 123.536C147.495 123.725 147.068 122.996 145.89 122.378C143.692 121.225 142.213 121.475 139.65 121.978C135.255 122.844 131.353 123.208 127.659 119.376C125.901 117.544 124.638 115.196 124.877 112.599C125.288 108.2 127.78 107.19 128.642 102.813C129.399 98.9559 125.885 92.1419 124.877 88.7079C122.123 79.326 122.551 77.8263 129.279 72.9268C141.362 64.1257 142.247 62.793 133.024 62.4248C132.178 62.3916 131.421 62.3989 130.711 62.4041C128.504 62.4227 126.773 62.4424 124.337 61.2311C121.941 60.0404 119.815 58.6548 117.123 58.0533C113.917 57.3366 112.282 57.5057 109.206 56.313C106.465 55.2561 103.452 51.0827 102.045 48.5697C100.542 45.8669 96.7514 46.6116 95.4685 43.8611C93.5367 39.7364 100.215 33.7978 95.4195 31.9019C92.0075 30.5505 85.9657 32.0823 82.2623 32.0823C78.3596 32.0823 75.1939 34.392 71.1821 33.9865C68.6013 33.7272 59.6983 35.5485 63.1794 37.8395L69.5577 41.54Z" fill="#0C72B6"/>
<path d="M89.5942 34.4718C85.9599 34.256 78.0614 31.6279 76.2658 36.6819C74.8297 40.6987 79.866 43.5674 79.6717 47.3841C79.5215 50.2839 70.8108 52.6953 71.1863 56.0141C71.7592 61.1127 73.027 64.7095 73.5578 69.8049C74.0565 74.6162 76.1416 78.9908 74.1557 83.212C72.3891 86.9643 73.1011 91.1917 71.0882 94.6941C69.588 97.3077 68.9771 98.4921 67.3147 101.025C65.8966 103.196 65.6813 107.545 63.1756 107.677C62.2032 107.73 61.5252 107.522 60.9284 107.312C59.6004 106.842 58.7121 106.368 55.9912 108.838C53.9101 110.726 54.1094 117.825 52.7414 120.193C51.046 123.118 44.0387 123.215 41.472 124.799C40.1621 125.605 37.4381 130.189 38.1401 132.021C39.1416 134.622 47.6991 130.086 49.4086 129.373C51.6068 128.447 54.3378 127.211 56.7813 127.414C58.621 127.565 60.0902 129.677 61.8637 129.288C62.8362 126.962 64.0119 125.014 64.7159 122.431C66.6988 121.741 68.8489 121.775 70.963 121.811C74.6534 121.872 78.2316 121.937 80.5961 118.094C82.3026 115.331 84.2013 112.503 85.6765 109.508C87.1376 106.524 88.7029 104.263 92.0147 103.342C100.516 100.973 102.324 108.165 105.055 114.505C106.609 118.114 108.351 121.864 109.141 125.695C109.518 127.512 109.603 131.378 111.926 131.749C112.582 132.889 114.585 133.067 115.716 133.806C116.907 134.579 118.205 136.054 119.582 136.424C122.661 137.261 121.457 134.856 122.981 132.664C124.074 131.086 126.768 130.066 128.488 131.411C128.263 133.768 135.456 134.322 137.051 134.127C139.088 133.87 141.041 132.331 143.051 131.88C146.098 131.209 148.86 130.782 151.595 128.915C153.475 127.63 156.62 124.15 152.575 123.592C151.508 123.444 150.409 123.774 149.279 124.098C148.036 124.468 146.765 124.827 145.476 124.549C144.552 124.353 143.766 123.539 142.702 123.343C140.827 122.986 138.735 123.864 136.934 124.257C132.98 125.107 128.072 126.095 124.705 123.126C122.971 121.592 121.715 119.018 120.844 116.857C119.637 113.868 119.786 112.264 121.442 109.984C123.546 107.081 124.136 104.881 124.478 101.202C124.967 95.9283 122.199 91.675 120.497 86.8471C118.856 82.1873 118.749 78.2037 122.11 74.6598C124.785 71.8377 132.878 69.8184 132.859 65.2954C135.017 63.5002 124.003 64.4149 121.192 63.8569C119.716 63.5645 119.321 62.854 117.985 62.182C116.005 61.1822 113.215 60.9021 111.056 60.5734C107.591 60.0465 105.106 59.753 102.038 58.0531C99.4686 56.6271 96.7857 52.1964 95.4197 49.6451C93.6932 46.404 91.7824 43.7873 91.7824 40.0412C91.7874 37.4151 91.7734 34.6035 89.5942 34.4718Z" fill="#157EBE"/>
<path d="M117.048 116.423C116.525 121.666 124.369 126.448 128.812 126.94C133.869 127.494 138.335 124.663 143.327 126.986C144.043 131.355 138.243 130.892 135.796 130.453C131.803 129.736 126.437 128.004 122.348 129.341C119.458 130.28 120.016 132.863 116.388 130.28C112.597 127.59 110.485 124.616 109.211 120.004C107.958 115.475 110.395 114.085 112.724 110.389C115.001 106.778 113.197 103.937 109.674 102.515C107.13 101.485 103.146 100.603 106.68 98.5264C109.492 96.869 112.378 96.4842 115.484 97.5421C118.199 98.4683 120.684 99.3924 120.969 102.441C121.34 106.415 118.662 109.483 117.276 112.844L117.048 116.423Z" fill="#1D89C6"/>
<path d="M87.2887 36.1456C84.9233 36.6984 80.7802 35.5865 79.4092 38.3007C78.3196 40.4601 82.0821 45.5161 82.5118 48.0384C82.9594 50.6665 82.662 51.2795 81.9089 53.4751C81.1908 55.5442 76.7083 57.8259 77.6016 59.9105C78.547 62.1124 78.9846 72.9027 80.4237 74.7073C82.0901 76.7951 87.6202 76.1292 88.9101 78.4784C89.4769 79.5186 90.3051 78.9959 91.2735 78.4711C92.0967 78.0251 93.0191 77.5833 93.9745 78.0925C96.7155 79.5559 100.066 80.0704 102.767 81.7049C106.316 83.857 109.611 86.9341 113.586 88.3052C117.836 89.7738 116.862 86.2455 116.117 83.438C115.225 80.0652 115.262 76.8667 118.226 74.7996C119.91 73.6194 127.375 70.2674 126.767 68.0551C126.173 65.8958 121.568 66.0649 120.031 66.0151C115.638 65.8855 112.015 63.8993 108.09 62.1227C103.017 59.8224 98.8566 58.6587 95.1292 54.0631C92.8619 51.2681 88.141 46.769 88.4364 43.0726C88.6717 40.2091 89.9146 35.5326 87.2887 36.1456Z" fill="#1D89C6"/>
<path d="M115.924 99.7008C111.325 98.1129 107.822 100.829 112.206 102.296C116.585 103.766 122.621 102.012 115.924 99.7008Z" fill="#2195CE"/>
<path d="M115.924 116.393C116.406 118.534 117.04 121.949 120.505 124.801C123.97 127.655 116.676 130.552 114.555 124.801C112.434 119.053 112.059 116.111 114.555 112.205C117.048 108.299 115.028 112.44 115.924 116.393Z" fill="#2195CE"/>
<path d="M102.821 64.0443C96.2169 57.3371 84.4818 55.0803 92.4915 62.0105C100.498 68.9417 99.8222 69.5951 104.889 70.3418C109.957 71.0937 109.728 76.7689 112.495 73.9293C115.265 71.0937 118.537 73.4211 113.9 70.3418C109.264 67.2688 105.033 66.2949 102.821 64.0443Z" fill="#2195CE"/>
<path d="M20.7402 119.049C25.8897 118.175 26.5086 114.877 30.215 111.768C33.6801 108.856 39.2973 109.999 42.9046 106.743C44.9285 104.924 44.3737 102.993 45.5384 100.893C47.4432 97.4795 45.3892 98.5872 49.6825 98.8506C57.3717 99.3235 59.4086 99.8089 62.1406 92.1839C63.8151 87.5116 67.4193 86.0731 68.1364 81.1664C69.1469 74.2653 66.8846 67.1526 65.3663 60.6249C64.8215 58.2799 63.7981 56.02 64.8576 53.5837C65.9512 51.0894 70.0782 50.1519 70.5309 47.8826C71.6365 42.3764 64.3288 38.984 58.8689 36.416C30.7618 49.4404 11.1763 78.6524 11.1763 112.601C11.1763 115.861 11.3625 119.075 11.711 122.233C11.9133 122.071 12.1086 121.912 12.3049 121.763C15.6458 119.174 16.7905 119.719 20.7402 119.049Z" fill="#45B64B"/>
<path d="M20.7402 119.049L20.7673 119.228C23.3761 118.79 24.8682 117.713 26.1431 116.374C27.4149 115.037 28.4885 113.445 30.3182 111.91C32.0087 110.491 34.2469 110.045 36.5373 109.561C38.8266 109.077 41.169 108.546 43.0167 106.881C44.0602 105.947 44.4458 104.956 44.7092 103.972C44.9706 102.984 45.1238 102.001 45.6916 100.978C46.2404 99.9997 46.4637 99.3775 46.6049 99.0124C46.67 98.834 46.7161 98.723 46.7522 98.6815C46.7872 98.6525 46.7682 98.6566 46.8463 98.6494C46.9605 98.6463 47.2188 98.7095 47.6615 98.7946C48.1051 98.8755 48.7411 98.973 49.6704 99.0321C51.5361 99.142 53.0734 99.2603 54.3753 99.2603C56.3982 99.2644 57.8754 98.9781 59.1032 97.9369C60.32 96.8997 61.2623 95.147 62.3029 92.2513C63.1281 89.9478 64.431 88.4408 65.6347 86.8789C66.8385 85.318 67.9451 83.6928 68.3056 81.1964C68.4819 79.9975 68.56 78.7903 68.56 77.58C68.56 71.7865 66.7884 65.9765 65.5356 60.5823C65.157 58.9644 64.5662 57.4097 64.5662 55.8468C64.5662 55.1259 64.6893 54.4031 65.0158 53.6646C65.5256 52.4854 66.7974 51.6329 68.0272 50.799C68.6411 50.3873 69.238 49.9776 69.7237 49.514C70.2034 49.0587 70.5749 48.5453 70.6991 47.923C70.7782 47.5351 70.8173 47.1545 70.8173 46.7853C70.8103 44.2568 69.0847 42.224 66.7624 40.5283C64.435 38.8284 61.4837 37.4531 58.9379 36.2573H58.7977C30.6336 49.3045 11 78.5777 11 112.601C11 115.868 11.1883 119.087 11.5408 122.255L11.6449 122.4L11.8182 122.378C12.0165 122.214 12.2128 122.059 12.4091 121.91C14.0655 120.627 15.1551 120.134 16.3298 119.864C17.5045 119.598 18.7824 119.565 20.7683 119.23L20.7402 119.049L20.7122 118.871C18.7443 119.207 17.4785 119.236 16.2557 119.511C15.0319 119.787 13.8802 120.315 12.1987 121.62C12.0045 121.771 11.8082 121.929 11.6059 122.094L11.71 122.232L11.8833 122.211C11.5338 119.059 11.3445 115.852 11.3445 112.599C11.3445 78.7198 30.893 49.5742 58.9399 36.5788L58.8688 36.417L58.7967 36.5757C61.3414 37.7747 64.2747 39.1489 66.5651 40.8176C68.8584 42.4864 70.4768 44.4403 70.4728 46.7832C70.4728 47.1307 70.4377 47.4823 70.3626 47.8504C70.2585 48.3649 69.941 48.8212 69.4913 49.2485C68.8083 49.8967 67.8339 50.4785 66.9136 51.134C66.0012 51.7905 65.136 52.5217 64.7034 53.5101C64.3558 54.3045 64.2257 55.0845 64.2257 55.8447C64.2257 57.4989 64.8315 59.0764 65.2011 60.6643C66.4579 66.0708 68.2165 71.8664 68.2165 77.5779C68.2165 78.7706 68.1414 79.9571 67.9681 81.1425C67.6136 83.5528 66.5591 85.1002 65.3643 86.6518C64.1706 88.2064 62.8266 89.7518 61.9774 92.1248C60.9469 94.9987 60.0205 96.6933 58.8819 97.6589C57.7492 98.6245 56.3792 98.8973 54.3763 98.9014C53.0944 98.9014 51.5602 98.7884 49.6914 98.6712C48.7781 98.6141 48.1582 98.5197 47.7206 98.4388C47.2829 98.36 47.0476 98.2885 46.8463 98.2885C46.7091 98.2822 46.5589 98.3424 46.4808 98.4585C46.3566 98.6266 46.3045 98.833 46.1593 99.2011C46.0141 99.5641 45.7968 100.078 45.3912 100.798C44.7883 101.883 44.6351 102.919 44.3727 103.873C44.1143 104.837 43.7688 105.727 42.7904 106.61C41.0298 108.198 38.7555 108.725 36.4712 109.21C34.1838 109.696 31.8845 110.135 30.1029 111.63C28.2301 113.2 27.1416 114.814 25.8947 116.119C24.6449 117.426 23.2519 118.436 20.7112 118.869L20.7402 119.049Z" fill="#16763B"/>
<path d="M58.2161 46.8959C55.9228 45.9335 49.7308 49.8414 47.5786 51.1503C43.2553 53.7815 39.7482 58.0296 36.4985 61.9552C31.5332 67.9519 26.5059 76.7997 24.7673 84.7608C23.3192 91.3798 21.0159 99.3253 21.2993 106.143C21.4124 108.948 22.6793 110.174 25.4523 110.211C28.5098 110.257 30.695 107.933 33.3308 107.086C36.1029 106.198 38.8559 107.414 40.9189 104.955C44.8506 100.277 43.3114 95.2867 50.7783 96.0614C53.8097 96.3788 54.9203 96.553 57.2878 94.6758C60.152 92.4065 60.9221 89.8137 62.5144 86.527C63.3556 84.7981 64.276 82.7975 64.6736 80.8788C65.2774 77.9499 63.9725 74.9588 63.4668 72.0372C62.928 68.9216 62.253 66.0083 61.6722 62.9104C61.2686 60.7739 60.2701 58.1717 60.9251 55.9781C61.5911 53.7545 67.2894 49.0687 62.6025 47.8522L58.2161 46.8959Z" fill="#64BC4D"/>
<path d="M54.0665 52.8677C45.6652 58.1384 41.6304 65.0789 38.3936 74.3281C37.273 77.5349 35.5064 81.1328 35.1279 84.3966C34.8064 87.1782 36.6361 90.0801 36.0422 92.7393C35.2911 96.0737 28.1277 100.409 29.1451 104C29.7901 106.273 34.3327 105.55 36.0682 104.905C38.5929 103.972 40.0741 101.107 41.1507 98.763C42.8722 95.0294 44.6998 95.0418 48.5785 94.4485C52.6735 93.82 54.429 92.2125 56.1836 88.3854C58.8455 82.5723 61.235 77.5277 59.3162 71.0103C58.1475 67.0609 56.5031 63.21 57.118 58.8934C57.3613 57.1542 60.4839 52.6644 56.6012 53.5833L54.0665 52.8677Z" fill="#80C34D"/>
<path d="M99.5122 29.5703C99.9558 31.8572 100.055 34.0207 99.0565 37.2462C97.2999 42.9079 98.74 41.9848 102.743 45.9436C105.249 48.4161 106.933 53.7003 110.011 55.6159C113.441 57.7441 118.287 56.4104 122.161 58.2337C127.759 60.8659 127.378 61.9539 133.543 60.2768C136.035 59.5944 142.052 59.0188 144.398 61.1013C149.161 65.3463 140.597 65.979 138.734 67.9008C137.564 69.1132 137.149 71.5443 135.854 73.0222C133.681 75.5072 132.096 75.3236 128.953 76.8834C127.995 77.3616 126.849 77.5939 125.848 78.0585C123.065 87.1594 133.797 95.9201 130.913 106.519C130.101 109.489 126.859 111.099 127.638 114.765C128.799 120.217 133.671 119.37 137.217 118.442C139.041 117.963 141.418 116.737 143.393 117.08C145.86 117.508 147.392 119.872 149.804 120.029C150.561 120.077 151.249 119.693 151.998 119.302C152.71 118.935 153.477 118.568 154.419 118.574C156.769 118.592 158.617 119.82 160.444 121.338C163.283 123.693 163.692 126.781 166.409 129.075C167.691 130.155 168.996 130.659 170.339 130.862C171.609 124.984 172.28 118.874 172.28 112.601C172.28 69.2491 140.345 33.6234 99.5122 29.5703Z" fill="#45B64B"/>
<path d="M99.5116 29.5705L99.3424 29.6078C99.5356 30.5972 99.6588 31.5556 99.6588 32.5875C99.6588 33.9213 99.4495 35.3878 98.8897 37.1934C98.393 38.802 98.1456 39.8858 98.1426 40.7301C98.1386 41.8035 98.5762 42.4766 99.3363 43.1725C100.096 43.8798 101.195 44.6618 102.624 46.0713C103.844 47.2765 104.891 49.2087 106.014 51.0848C107.136 52.9579 108.336 54.7812 109.922 55.7706C111.683 56.8617 113.778 57.0577 115.906 57.2185C118.034 57.374 120.189 57.4995 122.088 58.3956C123.967 59.2813 125.167 59.9866 126.186 60.4813C127.201 60.977 128.042 61.2571 129.155 61.2571C130.242 61.255 131.566 61.0019 133.589 60.4471C134.756 60.1256 136.737 59.8279 138.731 59.8279C140.919 59.8227 143.125 60.1971 144.283 61.2363C145.285 62.1252 145.653 62.8325 145.646 63.3697C145.65 63.8582 145.346 64.2876 144.819 64.6879C144.026 65.2884 142.76 65.7748 141.563 66.2405C140.355 66.7134 139.214 67.1584 138.614 67.7724C137.994 68.4175 137.595 69.3426 137.181 70.2905C136.77 71.2312 136.345 72.1916 135.725 72.9041C134.653 74.1279 133.746 74.6828 132.703 75.136C131.655 75.5903 130.465 75.9357 128.876 76.7218C127.949 77.1854 126.804 77.4208 125.776 77.9031L125.685 78.0099C125.352 79.0917 125.211 80.162 125.211 81.2354C125.211 84.7441 126.734 88.204 128.236 91.7489C129.743 95.2959 131.237 98.931 131.237 102.766C131.237 103.979 131.091 105.209 130.748 106.472C130.4 107.751 129.566 108.788 128.804 109.886C128.04 110.983 127.345 112.145 127.345 113.668C127.345 114.023 127.385 114.404 127.469 114.803C127.841 116.548 128.592 117.686 129.567 118.378C130.544 119.067 131.731 119.304 132.951 119.304C134.41 119.304 135.93 118.969 137.258 118.62C138.892 118.19 140.918 117.2 142.67 117.2C142.911 117.2 143.14 117.219 143.366 117.257C144.552 117.464 145.53 118.139 146.526 118.809C147.52 119.472 148.534 120.126 149.795 120.209L149.939 120.215C150.705 120.211 151.377 119.827 152.075 119.463C152.776 119.102 153.512 118.754 154.403 118.758H154.418H154.422C156.706 118.768 158.523 119.968 160.34 121.477C161.733 122.633 162.532 123.97 163.328 125.323C164.12 126.674 164.916 128.046 166.303 129.214C167.608 130.316 168.95 130.835 170.316 131.042C170.407 131.06 170.489 130.999 170.511 130.903C171.784 125.01 172.455 118.89 172.455 112.602C172.455 69.159 140.451 33.4566 99.5316 29.3921L99.3844 29.4512L99.3454 29.6099L99.5116 29.5705L99.4956 29.7499C140.24 33.7968 172.108 69.3426 172.108 112.601C172.108 118.864 171.435 124.959 170.169 130.825L170.338 130.861L170.365 130.689C169.046 130.487 167.775 129.992 166.518 128.936C165.183 127.814 164.414 126.491 163.618 125.134C162.825 123.782 162 122.394 160.551 121.195C158.721 119.676 156.829 118.412 154.421 118.399L154.418 118.574L154.428 118.399H154.4C153.417 118.399 152.627 118.78 151.916 119.142C151.208 119.509 150.581 119.857 149.936 119.851H149.815C148.664 119.776 147.704 119.17 146.708 118.508C145.721 117.845 144.699 117.129 143.418 116.906C143.173 116.861 142.922 116.84 142.667 116.84C140.801 116.849 138.755 117.859 137.17 118.268C135.852 118.619 134.351 118.945 132.948 118.945C131.766 118.945 130.661 118.712 129.761 118.076C128.866 117.446 128.164 116.403 127.806 114.728C127.724 114.35 127.689 113.999 127.689 113.667C127.689 112.266 128.329 111.183 129.082 110.097C129.836 109.015 130.7 107.942 131.079 106.571C131.431 105.272 131.581 104.01 131.581 102.766C131.581 98.8304 130.06 95.1538 128.554 91.6026C127.048 88.0515 125.554 84.6362 125.554 81.2354C125.554 80.1993 125.693 79.1591 126.012 78.1188L125.847 78.0587L125.918 78.2267C126.894 77.7714 128.038 77.5318 129.027 77.0454C130.587 76.2727 131.755 75.9315 132.831 75.4658C133.904 74.9991 134.876 74.4049 135.98 73.1447C136.652 72.3752 137.082 71.3785 137.496 70.4347C137.908 69.4888 138.303 68.5979 138.857 68.0275C139.189 67.6821 139.799 67.3544 140.526 67.0433C141.617 66.5745 142.957 66.1275 144.041 65.5778C144.583 65.2988 145.063 65.0001 145.412 64.6423C145.764 64.2865 145.995 63.8603 145.995 63.3718C145.989 62.6614 145.535 61.8845 144.511 60.9708C143.216 59.8248 140.952 59.4742 138.731 59.4711C136.702 59.4711 134.704 59.7771 133.499 60.1027C131.488 60.6503 130.181 60.9003 129.155 60.9003C128.101 60.9003 127.332 60.6431 126.33 60.1577C125.335 59.6702 124.121 58.9588 122.233 58.0689C120.255 57.1396 118.053 57.0214 115.93 56.8627C113.808 56.702 111.766 56.5008 110.102 55.4626C108.609 54.5375 107.424 52.764 106.308 50.8961C105.19 49.0313 104.142 47.0784 102.863 45.8151C101.418 44.3891 100.303 43.5874 99.5697 42.906C98.8346 42.2204 98.4991 41.7029 98.4931 40.7301C98.4901 39.9605 98.7245 38.8943 99.2232 37.2992C99.789 35.4656 100.006 33.9627 100.006 32.5875C100.006 31.5255 99.8791 30.5402 99.6839 29.5363L99.5116 29.5705Z" fill="#16763B"/>
<path d="M103.767 30.1147C102.716 30.6271 102.002 31.5128 102.047 33.0395C102.08 34.0974 103.12 34.9374 103.209 36.1509C103.307 37.4421 102.57 38.4855 102.514 39.729C102.352 43.3839 106.556 46.1012 109.049 48.1609C111.926 50.5401 113.736 53.1361 117.711 53.7905C121.397 54.3951 125.655 53.9077 129.286 53.3352C132.199 52.8757 137.309 52.2493 140.316 53.0925C143.787 54.0633 146.394 58.7957 147.258 62.0077C147.462 62.7597 148.44 64.4886 148.43 65.2291C148.397 67.2183 146.46 67.9557 144.744 69.1349C140.754 71.8844 138.76 73.6548 138.734 78.8197C138.712 83.7544 134.124 85.5072 136.926 91.3338C138.12 93.8032 139.739 95.8474 140.581 98.5295C141.386 101.092 141.556 103.705 144.296 104.722C146.22 105.436 148.047 105.182 149.871 104.927C151.891 104.642 153.902 104.365 156.04 105.392C158.442 106.536 160.709 107.402 162.108 109.744C162.673 110.689 162.699 111.719 163.707 112.555C164.529 113.233 165.739 113.207 166.421 113.787C167.71 114.879 168.13 117.537 170.278 116.386C170.869 116.061 171.599 114.964 172.268 113.791C172.271 113.392 172.281 113.001 172.281 112.602C172.281 70.7663 142.544 36.1353 103.767 30.1147Z" fill="#64BC4D"/>
<path d="M120.971 36.6822C118.965 35.2115 115.835 33.7533 113.363 33.0533C111.859 32.6208 108.026 31.5598 106.432 32.0151C103.854 32.7525 106.025 34.7739 106.404 36.2684C106.792 37.7961 105.807 39.2958 105.952 40.7488C106.107 42.2817 107.097 42.9144 108.185 44.0002C110.468 46.2726 113.318 49.2865 116.766 49.634C120.283 49.9949 124.121 47.8812 127.75 47.793C132.54 47.68 136.532 50.8319 140.694 52.8107C141.983 53.4195 143.26 53.9702 144.411 54.7865C145.109 55.2812 145.435 56.0922 146.382 56.0072C148.143 51.2405 139.299 47.6696 136.426 45.6763C134.425 44.2948 132.484 42.7474 130.456 41.5194C128.269 40.1971 125.943 39.4897 123.911 37.7588L120.971 36.6822Z" fill="#80C34D"/>
<path d="M153.153 62.4869C150.957 60.1606 147.058 58.4494 149.185 63.3602C150.289 65.9043 151.257 68.6807 149.129 70.8774C148.337 71.6863 147.29 72.0566 146.591 72.8967C145.323 74.4285 145.769 76.4312 145.378 78.269C145.023 79.9492 144.441 80.9345 143.251 81.9747C142.097 82.9828 141.242 83.3977 141.378 85.2697C141.47 86.4728 142.018 86.7061 142.437 87.6821C142.797 88.517 143.118 89.6682 143.564 90.641C144.379 92.4228 145.366 93.9257 145.855 95.8412C146.027 96.5237 146.018 97.3078 146.298 97.957C148.308 102.55 151.327 100.123 154.749 100.11C156.634 100.108 158.829 100.259 160.444 101.178C161.786 101.943 163.049 103.935 164.501 104.294C167.528 105.04 168.344 100.316 168.563 98.0908C168.902 94.6236 167.28 91.3484 166.138 88.1519C165.094 85.2189 163.783 82.3543 162.712 79.4856C160.781 74.3134 158.881 69.6992 156.098 65.1731L153.153 62.4869Z" fill="#80C34D"/>
<path d="M132.392 96.5338C131.609 97.936 133.689 103.014 133.602 105.137C133.514 107.219 131.778 109.579 132.55 111.799C134.025 116.026 136.783 115.441 139.676 114.857C141.417 114.505 143.209 114.153 144.804 114.853C145.825 115.3 146.432 116.059 147.613 116.254C149.22 116.515 151.173 116.333 152.798 116.254C155.75 116.112 159.606 115.134 155.355 112.458C149.58 108.833 141.868 111.21 138.616 103.919C137.46 101.325 136.453 99.1266 134.841 96.902C133.941 95.6626 132.626 91.9217 130.861 92.3002C130.591 93.0189 130.547 93.9192 131.004 94.5632L132.392 96.5338Z" fill="#64BC4D"/>
<path d="M140.348 108.839C137.562 107.309 135.441 100.212 135.298 104.285C135.156 108.36 134.149 111.931 137.164 112.205C140.175 112.482 147.094 112.547 140.348 108.839Z" fill="#80C34D"/>
<path d="M81.517 120.966C78.6048 121.253 76.1832 123.344 73.3381 123.84C71.247 124.208 68.8585 123.715 66.8226 124.01C66.5492 130.02 65.5087 132.83 63.1522 138.149C60.4192 144.318 63.9744 144.997 65.8542 150.485C66.3639 151.975 65.4916 156.115 66.3639 157.183C68.1665 159.408 73.5995 158.021 75.9599 158.237C80.154 158.623 82.2511 159.174 84.4012 162.898C85.7322 165.203 85.1513 168.198 87.5198 169.75C93.4574 173.627 97.8619 167.297 101.8 164.807C108.152 160.796 114.37 168.386 115.201 159.167C115.526 155.582 115.368 155.772 117.172 152.498C118.651 149.818 120.309 146.399 119.391 142.966C117.978 137.713 112.179 137.402 109.63 133.249C108.035 130.646 108.942 129.458 108.292 126.696C107.409 122.928 105.049 119.787 103.564 116.292C102.083 112.815 101.607 106.739 98.1333 105.169C88.9128 101.015 86.0226 112.535 83.3677 118.095L81.517 120.966Z" fill="#45B64B"/>
<path d="M81.5174 120.966L81.5004 120.787C78.516 121.089 76.0875 123.187 73.3094 123.663C72.7025 123.771 72.0586 123.803 71.4106 123.803C70.4282 123.807 69.4167 123.733 68.4373 123.733C67.8795 123.733 67.3317 123.756 66.7999 123.829C66.7138 123.845 66.6557 123.911 66.6507 124.002C66.3733 129.992 65.3488 132.757 62.9964 138.074C62.2793 139.693 61.9849 140.952 61.9849 142.029C61.9819 143.563 62.5858 144.706 63.3358 145.943C64.0929 147.178 65.0063 148.534 65.6923 150.545C65.8165 150.896 65.8555 151.465 65.8555 152.11C65.8555 152.991 65.7834 154.031 65.7834 154.96C65.7864 155.946 65.8455 156.805 66.2341 157.299C67.1404 158.401 68.7958 158.641 70.5273 158.643C72.2559 158.643 74.0895 158.39 75.3574 158.39C75.5737 158.39 75.765 158.398 75.9422 158.416C78.0363 158.607 79.5896 158.843 80.8724 159.477C82.1533 160.109 83.1888 161.143 84.2554 162.988C84.8983 164.1 85.0876 165.408 85.406 166.652C85.7225 167.893 86.1892 169.093 87.429 169.901C88.785 170.789 90.0769 171.157 91.3016 171.157C93.4187 171.151 95.3115 170.07 97.05 168.76C98.7846 167.454 100.388 165.911 101.891 164.962C103.437 163.985 104.971 163.71 106.432 163.71C108.311 163.708 110.06 164.172 111.535 164.174C112.524 164.174 113.418 163.952 114.09 163.196C114.759 162.441 115.193 161.195 115.373 159.184C115.536 157.39 115.577 156.547 115.799 155.767C116.019 154.989 116.423 154.228 117.323 152.589C118.507 150.438 119.825 147.795 119.825 145.019C119.825 144.321 119.744 143.621 119.556 142.924C118.832 140.223 116.972 138.801 115.026 137.543C113.074 136.283 111.016 135.18 109.777 133.154C108.993 131.875 108.835 130.974 108.777 130.022C108.726 129.071 108.792 128.059 108.463 126.653C107.559 122.84 105.194 119.692 103.722 116.222C102.994 114.51 102.502 112.119 101.762 109.955C101.018 107.794 100.016 105.828 98.2027 105.007C96.8227 104.385 95.5769 104.105 94.4442 104.105C92.8088 104.105 91.4168 104.693 90.2361 105.635C86.6899 108.466 84.9053 114.48 83.2118 118.014L83.3681 118.095L83.2219 117.998L81.3782 120.86L81.5174 120.966L81.6636 121.063L83.5063 118.196L83.5203 118.174C84.66 115.787 85.8317 112.346 87.5071 109.508C88.3483 108.087 89.3077 106.824 90.4464 105.917C91.5821 105.016 92.887 104.467 94.4432 104.463C95.5188 104.463 96.7175 104.73 98.0635 105.336C99.7209 106.083 100.7 107.937 101.434 110.077C102.168 112.211 102.654 114.596 103.403 116.365C104.905 119.888 107.252 123.02 108.122 126.739C108.445 128.097 108.381 129.06 108.433 130.045C108.488 131.024 108.671 132.023 109.486 133.342C110.792 135.475 112.909 136.601 114.847 137.85C116.788 139.103 118.534 140.46 119.221 143.019C119.401 143.686 119.483 144.353 119.483 145.02C119.483 147.678 118.205 150.276 117.024 152.414C116.123 154.05 115.702 154.826 115.467 155.667C115.232 156.507 115.193 157.366 115.029 159.153C114.849 161.126 114.422 162.295 113.836 162.953C113.248 163.616 112.485 163.814 111.535 163.818C110.127 163.818 108.361 163.359 106.432 163.357C104.929 163.352 103.32 163.64 101.713 164.659C100.162 165.639 98.5632 167.181 96.8447 168.474C95.1252 169.768 93.2976 170.801 91.3016 170.799C90.144 170.799 88.9232 170.454 87.6123 169.6C86.4796 168.859 86.055 167.785 85.7425 166.565C85.4261 165.345 85.2408 164.001 84.5518 162.808C83.4692 160.927 82.3756 159.824 81.0237 159.156C79.6687 158.487 78.0774 158.251 75.9763 158.062C75.788 158.043 75.5807 158.034 75.3584 158.034C74.0535 158.038 72.2278 158.291 70.5283 158.291C68.8178 158.297 67.2616 158.025 66.4985 157.072C66.2251 156.751 66.1239 155.927 66.1269 154.963C66.1269 154.051 66.203 153.014 66.203 152.113C66.203 151.45 66.167 150.863 66.0168 150.43C65.3147 148.374 64.3814 146.984 63.6313 145.754C62.8842 144.52 62.3324 143.467 62.3324 142.032C62.3324 141.026 62.6058 139.816 63.3108 138.229C65.6672 132.907 66.7208 130.05 66.9982 124.018L66.8249 124.013L66.851 124.191C67.3557 124.117 67.8925 124.093 68.4393 124.093C69.4027 124.093 70.4152 124.163 71.4126 124.163C72.0746 124.163 72.7326 124.134 73.3695 124.017C76.2727 123.505 78.6902 121.415 81.5344 121.146L81.6656 121.064L81.5174 120.966Z" fill="#16763B"/>
<path d="M135.965 159.19C136.551 159.374 135.04 153.718 135.044 151.091C135.044 147.005 138.73 145.896 138.179 142.464C137.599 138.849 133.343 138.733 131.354 137.688C129.45 136.681 127.27 134.641 124.962 134.892C124.316 139.579 127.677 144.033 127.66 149.158C127.637 156.059 130.432 155.84 135.504 159.192H135.965V159.19Z" fill="#45B64B"/>
<path d="M135.914 159.36L135.989 159.375C136.055 159.379 136.126 159.34 136.169 159.296C136.225 159.229 136.24 159.162 136.257 159.089C136.267 159.019 136.274 158.945 136.274 158.858C136.274 158.2 136.003 156.82 135.743 155.303C135.478 153.8 135.214 152.168 135.217 151.091H135.054L135.21 151.132L135.217 151.091H135.054L135.21 151.132L135.217 151.091C135.217 149.245 135.984 148.035 136.781 146.892C137.569 145.753 138.407 144.684 138.407 143.15C138.407 142.924 138.39 142.684 138.348 142.436C138.048 140.553 136.77 139.563 135.361 138.948C133.955 138.328 132.388 138.031 131.432 137.528C129.663 136.605 127.615 134.703 125.358 134.694C125.22 134.694 125.085 134.7 124.944 134.717C124.866 134.725 124.803 134.787 124.791 134.868C124.735 135.286 124.707 135.707 124.707 136.122C124.71 138.281 125.413 140.384 126.105 142.517C126.804 144.657 127.49 146.827 127.49 149.116V149.161L127.662 149.157L127.49 149.155V149.234C127.49 150.953 127.662 152.238 128.015 153.259C128.54 154.793 129.462 155.703 130.71 156.521C131.956 157.346 133.528 158.096 135.415 159.341C135.493 159.393 135.6 159.369 135.652 159.284C135.704 159.2 135.677 159.091 135.599 159.04C133.058 157.364 131.094 156.571 129.801 155.384C129.156 154.793 128.673 154.104 128.341 153.139C128.007 152.175 127.832 150.931 127.835 149.234V149.157V149.155V149.116C127.832 146.754 127.131 144.54 126.437 142.405C125.738 140.266 125.053 138.193 125.056 136.121C125.056 135.718 125.078 135.317 125.134 134.914L124.963 134.891L124.981 135.07C125.109 135.058 125.232 135.05 125.359 135.05C127.422 135.039 129.456 136.877 131.277 137.844C132.311 138.384 133.867 138.671 135.227 139.28C136.594 139.885 137.727 140.766 138.01 142.493C138.046 142.728 138.062 142.943 138.062 143.15C138.062 144.531 137.305 145.527 136.5 146.684C135.7 147.828 134.871 149.132 134.871 151.091H135.045L134.874 151.053L134.868 151.091C134.871 152.224 135.136 153.856 135.399 155.369C135.667 156.876 135.927 158.279 135.927 158.857C135.927 158.955 135.917 159.025 135.907 159.052V159.061L135.969 159.097L135.927 159.035L135.907 159.061L135.969 159.096L135.927 159.034L135.99 159.125V159.013L135.927 159.034L135.99 159.125V159.013V159.098L136.017 159.017L135.99 159.013V159.098L136.017 159.017C135.92 158.989 135.827 159.045 135.8 159.138C135.772 159.235 135.824 159.333 135.914 159.36Z" fill="#16763B"/>
<path d="M90.3413 113.018C87.5032 113.906 87.399 120.564 85.6735 122.797C84.7892 123.94 83.5274 124.205 82.2215 124.757C80.7273 125.383 80.1725 125.926 79.0769 126.986C77.6748 128.341 76.4851 129.308 74.5783 129.132C73.0601 128.996 71.4427 127.652 70.1258 127.523C69.7503 127.484 69.4208 126.973 68.9281 127.202C67.3718 127.935 67.9296 133.847 67.8204 135.11C67.6212 137.482 67.0293 140.369 67.497 142.763C67.6792 143.713 68.4454 144.32 68.7528 145.099C70.1919 148.72 68.2661 154.24 73.2083 153.477C78.5811 152.643 82.9245 149.475 87.9358 153.528C89.8626 155.081 90.2321 155.491 90.8911 157.75C91.8004 160.871 93.9285 160.688 96.7206 161.039C98.6875 161.282 99.2914 161.19 101.086 160.008C103.004 158.744 104.478 158.904 106.781 158.569C111.463 157.886 113.798 155.237 114.817 150.607C115.464 147.684 116.944 143.205 114.82 140.774C113.144 138.848 110.531 137.844 108.722 135.961C106.958 134.124 106.596 132.079 105.921 129.683C105.04 126.559 103.92 123.543 102.667 120.548C101.474 117.703 99.6309 108.888 95.9405 108.837C94.5955 108.821 92.7048 110.569 91.7273 111.406L90.3413 113.018Z" fill="#64BC4D"/>
<path d="M90.514 118.039C88.3279 120.311 88.5011 123.32 86.8807 125.888C85.9274 127.405 84.9289 127.292 83.4057 127.992C81.8855 128.689 80.5836 129.746 79.483 131.106C78.2532 132.627 77.467 134.37 75.7225 135.068C74.5648 135.529 73.4321 135.172 72.4857 136.121C70.9034 137.706 71.0376 143.283 71.4803 145.591C71.8688 147.625 72.7621 149.626 74.8061 149.931C79.3598 150.616 83.8163 148.016 88.403 149.386C91.9431 150.447 94.2205 153.701 97.8608 154.407C100.183 154.861 102.94 155.009 105.233 154.242C107.944 153.337 109.663 150.933 110.763 148.24C111.781 145.753 110.625 143.188 109.556 140.962C108.57 138.904 106.731 137.575 105.559 135.778C104.482 134.125 103.579 131.024 102.825 129.072C101.185 124.804 101.289 119.07 99.0375 115.131C98.0651 113.431 97.3901 111.708 95.3231 112.342C94.1223 112.702 92.4449 113.739 91.7258 114.811L90.514 118.039Z" fill="#80C34D"/>
<path d="M134.117 141.152C130.571 139.353 128.065 137.032 128.756 141.152C129.448 145.273 129.167 150.833 131.558 153.694C133.947 156.564 134.292 156.564 134.117 152.982C133.947 149.396 134.812 147.782 136.022 145.632C137.236 143.484 136.401 142.309 134.117 141.152Z" fill="#64BC4D"/>
<path d="M57.5537 179.36C58.7745 173.186 57.4946 172.598 51.9756 171.267C47.7054 170.236 45.7415 168.863 41.3801 171.257C39.5174 172.278 38.2546 173.174 37.0889 173.894C42.9324 179.484 49.5751 184.191 56.8167 187.805C56.6634 185.285 56.8848 182.731 57.5537 179.36Z" fill="#45B64B"/>
<path d="M57.5536 179.361L57.7239 179.397C57.9973 177.994 58.1515 176.871 58.1515 175.952C58.1575 174.386 57.6908 173.379 56.6733 172.693C55.6618 172.011 54.1537 171.608 52.0175 171.092C49.5019 170.486 47.7804 169.75 45.8485 169.75C44.5116 169.75 43.0945 170.109 41.2939 171.1C39.4282 172.127 38.1593 173.017 37.0006 173.74L36.9165 173.877L36.9726 174.026C42.8281 179.629 49.4828 184.347 56.7454 187.968L56.9147 187.954L56.9908 187.794C56.9607 187.293 56.9437 186.793 56.9437 186.282C56.9437 184.24 57.1881 182.079 57.7239 179.397L57.5536 179.361L57.3844 179.326C56.8486 182.025 56.5972 184.213 56.5972 186.282C56.5972 186.799 56.6152 187.309 56.6473 187.814L56.8165 187.805L56.8916 187.643C49.6651 184.037 43.0354 179.34 37.2069 173.761L37.0888 173.895L37.1779 174.046C38.3516 173.321 39.6084 172.433 41.4571 171.415C43.2257 170.444 44.5767 170.108 45.8485 170.104C47.6852 170.104 49.3977 170.827 51.9364 171.442C54.0695 171.951 55.5577 172.362 56.4841 172.993C57.3974 173.626 57.796 174.448 57.802 175.951C57.802 176.828 57.6588 177.933 57.3844 179.326L57.5536 179.361Z" fill="#16763B"/>
<path d="M47.5322 171.794C42.4868 170.666 39.4223 173.588 43.0827 176.275C46.743 178.965 54.3281 184.403 55.7391 178.87C57.1462 173.331 52.5234 172.912 47.5322 171.794Z" fill="#64BC4D"/>
<path d="M50.5457 173.946C44.9225 172.584 43.8469 173.846 47.8878 176.403C51.9297 178.965 58.285 175.82 50.5457 173.946Z" fill="#80C34D"/>
<rect width="414" height="243.026" rx="20" fill="#0063A7" fill-opacity="0.2"/>
</svg>
